NotoSansGujarati-SemiBold.ufo
<glyph name="exclam.gujr" format="2">
  <advance width="403"/>
  <unicode hex="0021"/>
  <outline>
    <contour>
      <point x="159" y="237" type="line"/>
      <point x="278" y="237" type="line"/>
      <point x="303" y="714" type="line"/>
      <point x="134" y="714" type="line"/>
    </contour>
    <contour>
      <point x="218" y="-13" type="curve" smooth="yes"/>
      <point x="264" y="-13"/>
      <point x="303" y="11"/>
      <point x="303" y="70" type="curve" smooth="yes"/>
      <point x="303" y="131"/>
      <point x="264" y="153"/>
      <point x="218" y="153" type="curve" smooth="yes"/>
      <point x="170" y="153"/>
      <point x="132" y="131"/>
      <point x="132" y="70" type="curve" smooth="yes"/>
      <point x="132" y="11"/>
      <point x="170" y="-13"/>
    </contour>
  </outline>
</glyph>
<glyph name="quotedbl.gujr" format="2">
  <advance width="546"/>
  <unicode hex="0022"/>
  <outline>
    <contour>
      <point x="129" y="472" type="line"/>
      <point x="225" y="472" type="line"/>
      <point x="245" y="729" type="line"/>
      <point x="109" y="729" type="line"/>
    </contour>
    <contour>
      <point x="335" y="472" type="line"/>
      <point x="431" y="472" type="line"/>
      <point x="451" y="729" type="line"/>
      <point x="315" y="729" type="line"/>
    </contour>
  </outline>
</glyph>
<glyph name="quotesingle.gujr" format="2">
  <advance width="340"/>
  <unicode hex="0027"/>
  <outline>
    <contour>
      <point x="129" y="471" type="line"/>
      <point x="225" y="471" type="line"/>
      <point x="245" y="729" type="line"/>
      <point x="109" y="729" type="line"/>
    </contour>
  </outline>
</glyph>
<glyph name="comma.gujr" format="2">
  <advance width="290"/>
  <unicode hex="002C"/>
  <outline>
    <contour>
      <point x="44" y="-119" type="curve"/>
      <point x="151" y="-119" type="line"/>
      <point x="184" y="-42"/>
      <point x="219" y="53"/>
      <point x="237" y="129" type="curve"/>
      <point x="230" y="141" type="line"/>
      <point x="93" y="141" type="line"/>
      <point x="84" y="67"/>
      <point x="64" y="-35"/>
    </contour>
  </outline>
</glyph>
<glyph name="hyphen.gujr" format="2">
  <advance width="366"/>
  <unicode hex="002D"/>
  <outline>
    <contour>
      <point x="52" y="236" type="line"/>
      <point x="314" y="236" type="line"/>
      <point x="314" y="358" type="line"/>
      <point x="52" y="358" type="line"/>
    </contour>
  </outline>
</glyph>
<glyph name="period.gujr" format="2">
  <advance width="285"/>
  <unicode hex="002E"/>
  <outline>
    <contour>
      <point x="153" y="-13" type="curve" smooth="yes"/>
      <point x="199" y="-13"/>
      <point x="238" y="11"/>
      <point x="238" y="70" type="curve" smooth="yes"/>
      <point x="238" y="131"/>
      <point x="199" y="153"/>
      <point x="153" y="153" type="curve" smooth="yes"/>
      <point x="105" y="153"/>
      <point x="67" y="131"/>
      <point x="67" y="70" type="curve" smooth="yes"/>
      <point x="67" y="11"/>
      <point x="105" y="-13"/>
    </contour>
  </outline>
</glyph>
<glyph name="slash.gujr" format="2">
  <advance width="472"/>
  <unicode hex="002F"/>
  <outline>
    <contour>
      <point x="35" y="-166" type="line"/>
      <point x="163" y="-166" type="line"/>
      <point x="437" y="833" type="line"/>
      <point x="309" y="833" type="line"/>
    </contour>
  </outline>
</glyph>
<glyph name="zero.gujr" format="2">
  <advance width="551"/>
  <unicode hex="0030"/>
  <outline>
    <contour>
      <point x="275" y="-10" type="curve" smooth="yes"/>
      <point x="451" y="-10"/>
      <point x="520" y="127"/>
      <point x="520" y="357" type="curve" smooth="yes"/>
      <point x="520" y="589"/>
      <point x="439" y="725"/>
      <point x="275" y="725" type="curve" smooth="yes"/>
      <point x="99" y="725"/>
      <point x="31" y="587"/>
      <point x="31" y="357" type="curve" smooth="yes"/>
      <point x="31" y="127"/>
      <point x="110" y="-10"/>
    </contour>
    <contour>
      <point x="275" y="112" type="curve" smooth="yes"/>
      <point x="206" y="112"/>
      <point x="181" y="194"/>
      <point x="181" y="357" type="curve" smooth="yes"/>
      <point x="181" y="520"/>
      <point x="206" y="603"/>
      <point x="275" y="603" type="curve" smooth="yes"/>
      <point x="343" y="603"/>
      <point x="370" y="521"/>
      <point x="370" y="357" type="curve" smooth="yes"/>
      <point x="370" y="193"/>
      <point x="343" y="112"/>
    </contour>
  </outline>
</glyph>
<glyph name="one.gujr" format="2">
  <advance width="551"/>
  <unicode hex="0031"/>
  <outline>
    <contour>
      <point x="248" y="0" type="line"/>
      <point x="399" y="0" type="line"/>
      <point x="399" y="714" type="line"/>
      <point x="275" y="714" type="line"/>
      <point x="45" y="531" type="line"/>
      <point x="118" y="440" type="line"/>
      <point x="200" y="506" type="line" smooth="yes"/>
      <point x="226" y="527"/>
      <point x="245" y="547"/>
      <point x="252" y="555" type="curve"/>
      <point x="249" y="512"/>
      <point x="248" y="446"/>
      <point x="248" y="413" type="curve" smooth="yes"/>
    </contour>
  </outline>
</glyph>
<glyph name="two.gujr" format="2">
  <advance width="551"/>
  <unicode hex="0032"/>
  <outline>
    <contour>
      <point x="40" y="0" type="line"/>
      <point x="519" y="0" type="line"/>
      <point x="519" y="127" type="line"/>
      <point x="228" y="127" type="line"/>
      <point x="228" y="134" type="line"/>
      <point x="320" y="226" type="line" smooth="yes"/>
      <point x="457" y="363"/>
      <point x="499" y="435"/>
      <point x="499" y="531" type="curve" smooth="yes"/>
      <point x="499" y="646"/>
      <point x="410" y="724"/>
      <point x="278" y="724" type="curve" smooth="yes"/>
      <point x="181" y="724"/>
      <point x="117" y="695"/>
      <point x="38" y="622" type="curve"/>
      <point x="120" y="525" type="line"/>
      <point x="172" y="572"/>
      <point x="218" y="598"/>
      <point x="269" y="598" type="curve" smooth="yes"/>
      <point x="320" y="598"/>
      <point x="349" y="568"/>
      <point x="349" y="513" type="curve" smooth="yes"/>
      <point x="349" y="446"/>
      <point x="311" y="397"/>
      <point x="219" y="298" type="curve" smooth="yes"/>
      <point x="40" y="105" type="line"/>
    </contour>
  </outline>
</glyph>
<glyph name="three.gujr" format="2">
  <advance width="551"/>
  <unicode hex="0033"/>
  <outline>
    <contour>
      <point x="234" y="-10" type="curve" smooth="yes"/>
      <point x="394" y="-10"/>
      <point x="512" y="59"/>
      <point x="512" y="208" type="curve" smooth="yes"/>
      <point x="512" y="301"/>
      <point x="450" y="358"/>
      <point x="337" y="373" type="curve"/>
      <point x="337" y="376" type="line"/>
      <point x="424" y="397"/>
      <point x="491" y="455"/>
      <point x="491" y="554" type="curve" smooth="yes"/>
      <point x="491" y="662"/>
      <point x="401" y="724"/>
      <point x="257" y="724" type="curve" smooth="yes"/>
      <point x="155" y="724"/>
      <point x="84" y="694"/>
      <point x="29" y="654" type="curve"/>
      <point x="105" y="553" type="line"/>
      <point x="151" y="584"/>
      <point x="191" y="602"/>
      <point x="244" y="602" type="curve" smooth="yes"/>
      <point x="315" y="602"/>
      <point x="343" y="569"/>
      <point x="343" y="521" type="curve" smooth="yes"/>
      <point x="343" y="450"/>
      <point x="297" y="419"/>
      <point x="193" y="419" type="curve" smooth="yes"/>
      <point x="138" y="419" type="line"/>
      <point x="138" y="313" type="line"/>
      <point x="189" y="313" type="line" smooth="yes"/>
      <point x="312" y="313"/>
      <point x="361" y="285"/>
      <point x="361" y="217" type="curve" smooth="yes"/>
      <point x="361" y="149"/>
      <point x="324" y="110"/>
      <point x="218" y="110" type="curve" smooth="yes"/>
      <point x="159" y="110"/>
      <point x="89" y="126"/>
      <point x="28" y="157" type="curve"/>
      <point x="28" y="29" type="line"/>
      <point x="88" y="3"/>
      <point x="157" y="-10"/>
    </contour>
  </outline>
</glyph>
<glyph name="four.gujr" format="2">
  <advance width="551"/>
  <unicode hex="0034"/>
  <outline>
    <contour>
      <point x="297" y="0" type="line"/>
      <point x="444" y="0" type="line"/>
      <point x="444" y="148" type="line"/>
      <point x="530" y="148" type="line"/>
      <point x="530" y="265" type="line"/>
      <point x="444" y="265" type="line"/>
      <point x="444" y="714" type="line"/>
      <point x="305" y="714" type="line"/>
      <point x="2" y="253" type="line"/>
      <point x="2" y="148" type="line"/>
      <point x="297" y="148" type="line"/>
    </contour>
    <contour>
      <point x="135" y="265" type="line"/>
      <point x="247" y="436" type="line" smooth="yes"/>
      <point x="272" y="474"/>
      <point x="289" y="507"/>
      <point x="299" y="535" type="curve"/>
      <point x="303" y="535" type="line"/>
      <point x="300" y="489"/>
      <point x="297" y="427"/>
      <point x="297" y="386" type="curve" smooth="yes"/>
      <point x="297" y="265" type="line"/>
    </contour>
  </outline>
</glyph>
<glyph name="six.gujr" format="2">
  <advance width="551"/>
  <unicode hex="0036"/>
  <outline>
    <contour>
      <point x="288" y="-10" type="curve" smooth="yes"/>
      <point x="431" y="-10"/>
      <point x="521" y="83"/>
      <point x="521" y="238" type="curve" smooth="yes"/>
      <point x="521" y="382"/>
      <point x="446" y="464"/>
      <point x="322" y="464" type="curve" smooth="yes"/>
      <point x="245" y="464"/>
      <point x="198" y="428"/>
      <point x="172" y="381" type="curve"/>
      <point x="166" y="381" type="line"/>
      <point x="172" y="513"/>
      <point x="214" y="604"/>
      <point x="390" y="604" type="curve" smooth="yes"/>
      <point x="418" y="604"/>
      <point x="446" y="600"/>
      <point x="471" y="594" type="curve"/>
      <point x="471" y="715" type="line"/>
      <point x="446" y="720"/>
      <point x="406" y="722"/>
      <point x="379" y="722" type="curve" smooth="yes"/>
      <point x="96" y="722"/>
      <point x="37" y="508"/>
      <point x="37" y="303" type="curve" smooth="yes"/>
      <point x="37" y="89"/>
      <point x="147" y="-10"/>
    </contour>
    <contour>
      <point x="285" y="111" type="curve" smooth="yes"/>
      <point x="220" y="111"/>
      <point x="187" y="183"/>
      <point x="187" y="249" type="curve" smooth="yes"/>
      <point x="187" y="297"/>
      <point x="227" y="348"/>
      <point x="287" y="348" type="curve" smooth="yes"/>
      <point x="346" y="348"/>
      <point x="375" y="306"/>
      <point x="375" y="236" type="curve" smooth="yes"/>
      <point x="375" y="150"/>
      <point x="338" y="111"/>
    </contour>
  </outline>
</glyph>
<glyph name="seven.gujr" format="2">
  <advance width="551"/>
  <unicode hex="0037"/>
  <outline>
    <contour>
      <point x="101" y="0" type="line"/>
      <point x="259" y="0" type="line"/>
      <point x="519" y="618" type="line"/>
      <point x="519" y="714" type="line"/>
      <point x="27" y="714" type="line"/>
      <point x="27" y="586" type="line"/>
      <point x="355" y="586" type="line"/>
    </contour>
  </outline>
</glyph>
<glyph name="less.gujr" format="2">
  <advance width="570"/>
  <unicode hex="003C"/>
  <outline>
    <contour>
      <point x="518" y="70" type="line"/>
      <point x="518" y="187" type="line"/>
      <point x="204" y="324" type="line"/>
      <point x="518" y="479" type="line"/>
      <point x="518" y="596" type="line"/>
      <point x="53" y="354" type="line"/>
      <point x="53" y="284" type="line"/>
    </contour>
  </outline>
</glyph>
<glyph name="equal.gujr" format="2">
  <advance width="570"/>
  <unicode hex="003D"/>
  <outline>
    <contour>
      <point x="53" y="365" type="line"/>
      <point x="518" y="365" type="line"/>
      <point x="518" y="471" type="line"/>
      <point x="53" y="471" type="line"/>
    </contour>
    <contour>
      <point x="53" y="175" type="line"/>
      <point x="518" y="175" type="line"/>
      <point x="518" y="282" type="line"/>
      <point x="53" y="282" type="line"/>
    </contour>
  </outline>
</glyph>
<glyph name="backslash.gujr" format="2">
  <advance width="472"/>
  <unicode hex="005C"/>
  <outline>
    <contour>
      <point x="309" y="-166" type="line"/>
      <point x="437" y="-166" type="line"/>
      <point x="163" y="833" type="line"/>
      <point x="35" y="833" type="line"/>
    </contour>
  </outline>
</glyph>
<glyph name="bracketright.gujr" format="2">
  <advance width="390"/>
  <unicode hex="005D"/>
  <outline>
    <contour>
      <point x="49" y="-166" type="line"/>
      <point x="285" y="-166" type="line"/>
      <point x="285" y="832" type="line"/>
      <point x="49" y="832" type="line"/>
      <point x="49" y="729" type="line"/>
      <point x="158" y="729" type="line"/>
      <point x="158" y="-63" type="line"/>
      <point x="49" y="-63" type="line"/>
    </contour>
  </outline>
</glyph>
<glyph name="asciicircum.gujr" format="2">
  <advance width="570"/>
  <unicode hex="005E"/>
  <outline>
    <contour>
      <point x="22" y="254" type="line"/>
      <point x="137" y="254" type="line"/>
      <point x="274" y="568" type="line"/>
      <point x="431" y="254" type="line"/>
      <point x="548" y="254" type="line"/>
      <point x="306" y="718" type="line"/>
      <point x="236" y="718" type="line"/>
    </contour>
  </outline>
</glyph>
<glyph name="bar.gujr" format="2">
  <advance width="539"/>
  <unicode hex="007C"/>
  <outline>
    <contour>
      <point x="216" y="832" type="line"/>
      <point x="216" y="-166" type="line"/>
      <point x="323" y="-166" type="line"/>
      <point x="323" y="832" type="line"/>
    </contour>
  </outline>
</glyph>
<glyph name="braceright.gujr" format="2">
  <advance width="426"/>
  <unicode hex="007D"/>
  <outline>
    <contour>
      <point x="49" y="-166" type="line"/>
      <point x="220" y="-166"/>
      <point x="263" y="-119"/>
      <point x="263" y="-7" type="curve" smooth="yes"/>
      <point x="263" y="172" type="line" smooth="yes"/>
      <point x="263" y="246"/>
      <point x="306" y="274"/>
      <point x="388" y="274" type="curve"/>
      <point x="388" y="391" type="line"/>
      <point x="307" y="391"/>
      <point x="263" y="419"/>
      <point x="263" y="492" type="curve" smooth="yes"/>
      <point x="263" y="673" type="line" smooth="yes"/>
      <point x="263" y="785"/>
      <point x="220" y="832"/>
      <point x="49" y="832" type="curve"/>
      <point x="49" y="722" type="line"/>
      <point x="102" y="722"/>
      <point x="136" y="706"/>
      <point x="136" y="640" type="curve" smooth="yes"/>
      <point x="136" y="465" type="line" smooth="yes"/>
      <point x="136" y="393"/>
      <point x="174" y="350"/>
      <point x="248" y="336" type="curve"/>
      <point x="248" y="330" type="line"/>
      <point x="174" y="317"/>
      <point x="136" y="274"/>
      <point x="136" y="201" type="curve" smooth="yes"/>
      <point x="136" y="27" type="line" smooth="yes"/>
      <point x="136" y="-39"/>
      <point x="102" y="-55"/>
      <point x="49" y="-55" type="curve"/>
    </contour>
  </outline>
</glyph>
<glyph name="asciitilde.gujr" format="2">
  <advance width="570"/>
  <unicode hex="007E"/>
  <outline>
    <contour>
      <point x="53" y="353" type="curve"/>
      <point x="53" y="240" type="line"/>
      <point x="87" y="272"/>
      <point x="129" y="299"/>
      <point x="167" y="299" type="curve" smooth="yes"/>
      <point x="197" y="299"/>
      <point x="219" y="292"/>
      <point x="268" y="271" type="curve" smooth="yes"/>
      <point x="330" y="245"/>
      <point x="354" y="241"/>
      <point x="393" y="241" type="curve" smooth="yes"/>
      <point x="443" y="241"/>
      <point x="485" y="258"/>
      <point x="518" y="294" type="curve"/>
      <point x="518" y="407" type="line"/>
      <point x="485" y="374"/>
      <point x="443" y="348"/>
      <point x="404" y="348" type="curve" smooth="yes"/>
      <point x="375" y="348"/>
      <point x="352" y="354"/>
      <point x="303" y="375" type="curve" smooth="yes"/>
      <point x="247" y="399"/>
      <point x="217" y="406"/>
      <point x="178" y="406" type="curve" smooth="yes"/>
      <point x="127" y="406"/>
      <point x="86" y="388"/>
    </contour>
  </outline>
</glyph>
<glyph name="multiply.gujr" format="2">
  <advance width="570"/>
  <unicode hex="00D7"/>
  <outline>
    <contour>
      <point x="137" y="83" type="line"/>
      <point x="284" y="229" type="line"/>
      <point x="431" y="83" type="line"/>
      <point x="504" y="157" type="line"/>
      <point x="359" y="304" type="line"/>
      <point x="505" y="451" type="line"/>
      <point x="431" y="526" type="line"/>
      <point x="284" y="380" type="line"/>
      <point x="137" y="526" type="line"/>
      <point x="63" y="451" type="line"/>
      <point x="209" y="304" type="line"/>
      <point x="64" y="157" type="line"/>
    </contour>
  </outline>
</glyph>
<glyph name="divide.gujr" format="2">
  <advance width="570"/>
  <unicode hex="00F7"/>
  <outline>
    <contour>
      <point x="53" y="270" type="line"/>
      <point x="518" y="270" type="line"/>
      <point x="518" y="376" type="line"/>
      <point x="53" y="376" type="line"/>
    </contour>
    <contour>
      <point x="285" y="79" type="curve" smooth="yes"/>
      <point x="321" y="79"/>
      <point x="353" y="100"/>
      <point x="353" y="153" type="curve" smooth="yes"/>
      <point x="353" y="208"/>
      <point x="321" y="227"/>
      <point x="285" y="227" type="curve" smooth="yes"/>
      <point x="248" y="227"/>
      <point x="217" y="208"/>
      <point x="217" y="153" type="curve" smooth="yes"/>
      <point x="217" y="100"/>
      <point x="248" y="79"/>
    </contour>
    <contour>
      <point x="285" y="420" type="curve" smooth="yes"/>
      <point x="321" y="420"/>
      <point x="353" y="441"/>
      <point x="353" y="494" type="curve" smooth="yes"/>
      <point x="353" y="548"/>
      <point x="321" y="568"/>
      <point x="285" y="568" type="curve" smooth="yes"/>
      <point x="248" y="568"/>
      <point x="217" y="548"/>
      <point x="217" y="494" type="curve" smooth="yes"/>
      <point x="217" y="441"/>
      <point x="248" y="420"/>
    </contour>
  </outline>
</glyph>
<glyph name="uni0951" format="2">
  <unicode hex="0951"/>
  <outline>
    <contour>
      <point x="-205" y="655" type="line"/>
      <point x="-205" y="896" type="line"/>
      <point x="-305" y="896" type="line"/>
      <point x="-305" y="655" type="line"/>
    </contour>
  </outline>
</glyph>
<glyph name="uni0952" format="2">
  <unicode hex="0952"/>
  <outline>
    <contour>
      <point x="-441" y="-72" type="line"/>
      <point x="-441" y="-163" type="line"/>
      <point x="-69" y="-163" type="line"/>
      <point x="-69" y="-72" type="line"/>
    </contour>
  </outline>
</glyph>
<glyph name="danda.gujr" format="2">
  <advance width="398"/>
  <unicode hex="0964"/>
  <outline>
    <contour>
      <point x="178" y="0" type="line"/>
      <point x="312" y="0" type="line"/>
      <point x="312" y="597" type="line"/>
      <point x="178" y="597" type="line"/>
    </contour>
  </outline>
</glyph>
<glyph name="candrabindugujr" format="2">
  <unicode hex="0A81"/>
  <outline>
    <contour>
      <point x="-148" y="629" type="curve" smooth="yes"/>
      <point x="-42" y="629"/>
      <point x="36" y="678"/>
      <point x="87" y="797" type="curve"/>
      <point x="-18" y="836" type="line"/>
      <point x="-45" y="770"/>
      <point x="-85" y="731"/>
      <point x="-148" y="731" type="curve" smooth="yes"/>
      <point x="-216" y="731"/>
      <point x="-252" y="775"/>
      <point x="-279" y="836" type="curve"/>
      <point x="-384" y="797" type="line"/>
      <point x="-333" y="678"/>
      <point x="-253" y="629"/>
    </contour>
    <contour>
      <point x="-148" y="766" type="curve" smooth="yes"/>
      <point x="-111" y="766"/>
      <point x="-82" y="795"/>
      <point x="-82" y="831" type="curve" smooth="yes"/>
      <point x="-82" y="867"/>
      <point x="-111" y="896"/>
      <point x="-148" y="896" type="curve" smooth="yes"/>
      <point x="-186" y="896"/>
      <point x="-215" y="867"/>
      <point x="-215" y="831" type="curve" smooth="yes"/>
      <point x="-215" y="795"/>
      <point x="-186" y="766"/>
    </contour>
  </outline>
</glyph>
<glyph name="anusvaragujr" format="2">
  <unicode hex="0A82"/>
  <outline>
    <contour>
      <point x="-149" y="688" type="curve" smooth="yes"/>
      <point x="-107" y="688"/>
      <point x="-76" y="721"/>
      <point x="-76" y="763" type="curve" smooth="yes"/>
      <point x="-76" y="806"/>
      <point x="-107" y="838"/>
      <point x="-149" y="838" type="curve" smooth="yes"/>
      <point x="-191" y="838"/>
      <point x="-222" y="806"/>
      <point x="-222" y="763" type="curve" smooth="yes"/>
      <point x="-222" y="721"/>
      <point x="-191" y="688"/>
    </contour>
  </outline>
</glyph>
<glyph name="visargagujr" format="2">
  <advance width="261"/>
  <unicode hex="0A83"/>
  <outline>
    <contour>
      <point x="130" y="348" type="curve" smooth="yes"/>
      <point x="172" y="348"/>
      <point x="204" y="380"/>
      <point x="204" y="423" type="curve" smooth="yes"/>
      <point x="204" y="465"/>
      <point x="172" y="498"/>
      <point x="130" y="498" type="curve" smooth="yes"/>
      <point x="88" y="498"/>
      <point x="57" y="465"/>
      <point x="57" y="423" type="curve" smooth="yes"/>
      <point x="57" y="380"/>
      <point x="88" y="348"/>
    </contour>
    <contour>
      <point x="130" y="40" type="curve" smooth="yes"/>
      <point x="172" y="40"/>
      <point x="204" y="72"/>
      <point x="204" y="115" type="curve" smooth="yes"/>
      <point x="204" y="157"/>
      <point x="172" y="189"/>
      <point x="130" y="189" type="curve" smooth="yes"/>
      <point x="88" y="189"/>
      <point x="57" y="157"/>
      <point x="57" y="115" type="curve" smooth="yes"/>
      <point x="57" y="72"/>
      <point x="88" y="40"/>
    </contour>
  </outline>
</glyph>
<glyph name="aagujr" format="2">
  <advance width="1232"/>
  <unicode hex="0A86"/>
  <outline>
    <contour>
      <point x="348" y="97" type="curve" smooth="yes"/>
      <point x="537" y="97"/>
      <point x="619" y="206"/>
      <point x="619" y="358" type="curve" smooth="yes"/>
      <point x="619" y="437" type="line"/>
      <point x="485" y="448" type="line"/>
      <point x="485" y="408" type="line" smooth="yes"/>
      <point x="485" y="334"/>
      <point x="480" y="287"/>
      <point x="445" y="246" type="curve" smooth="yes"/>
      <point x="424" y="221"/>
      <point x="394" y="209"/>
      <point x="345" y="209" type="curve" smooth="yes"/>
      <point x="304" y="209"/>
      <point x="262" y="221"/>
      <point x="224" y="280" type="curve"/>
      <point x="219" y="316" type="line"/>
      <point x="184" y="357"/>
      <point x="149" y="372"/>
      <point x="107" y="372" type="curve" smooth="yes"/>
      <point x="56" y="372"/>
      <point x="26" y="342"/>
      <point x="26" y="301" type="curve" smooth="yes"/>
      <point x="26" y="250"/>
      <point x="63" y="218"/>
      <point x="128" y="218" type="curve" smooth="yes"/>
      <point x="271" y="218"/>
      <point x="380" y="297"/>
      <point x="380" y="422" type="curve" smooth="yes"/>
      <point x="380" y="533"/>
      <point x="304" y="603"/>
      <point x="172" y="603" type="curve" smooth="yes"/>
      <point x="119" y="603"/>
      <point x="68" y="590"/>
      <point x="24" y="572" type="curve"/>
      <point x="62" y="472" type="line"/>
      <point x="97" y="486"/>
      <point x="129" y="492"/>
      <point x="159" y="492" type="curve" smooth="yes"/>
      <point x="216" y="492"/>
      <point x="250" y="468"/>
      <point x="250" y="423" type="curve" smooth="yes"/>
      <point x="250" y="363"/>
      <point x="204" y="338"/>
      <point x="134" y="328" type="curve"/>
      <point x="111" y="240" type="line"/>
      <point x="178" y="131"/>
      <point x="261" y="97"/>
    </contour>
    <contour>
      <point x="659" y="204" type="curve" smooth="yes"/>
      <point x="718" y="204"/>
      <point x="749" y="231"/>
      <point x="769" y="255" type="curve"/>
      <point x="753" y="377" type="line"/>
      <point x="722" y="334"/>
      <point x="692" y="318"/>
      <point x="660" y="318" type="curve" smooth="yes"/>
      <point x="625" y="318"/>
      <point x="611" y="342"/>
      <point x="604" y="389" type="curve"/>
      <point x="517" y="363" type="line"/>
      <point x="544" y="227"/>
      <point x="605" y="204"/>
    </contour>
    <contour>
      <point x="900" y="0" type="curve" smooth="yes"/>
      <point x="927" y="0" type="line"/>
      <point x="937" y="114" type="line"/>
      <point x="899" y="114"/>
      <point x="886" y="115"/>
      <point x="872" y="129" type="curve" smooth="yes"/>
      <point x="863" y="138"/>
      <point x="859" y="157"/>
      <point x="859" y="187" type="curve" smooth="yes"/>
      <point x="859" y="592" type="line"/>
      <point x="725" y="603" type="line"/>
      <point x="725" y="177" type="line" smooth="yes"/>
      <point x="725" y="110"/>
      <point x="735" y="77"/>
      <point x="756" y="49" type="curve" smooth="yes"/>
      <point x="779" y="19"/>
      <point x="818" y="0"/>
    </contour>
    <contour>
      <point x="1193" y="0" type="curve" smooth="yes"/>
      <point x="1220" y="0" type="line"/>
      <point x="1229" y="114" type="line"/>
      <point x="1192" y="114"/>
      <point x="1178" y="115"/>
      <point x="1165" y="129" type="curve" smooth="yes"/>
      <point x="1156" y="138"/>
      <point x="1152" y="157"/>
      <point x="1152" y="187" type="curve" smooth="yes"/>
      <point x="1152" y="592" type="line"/>
      <point x="1018" y="603" type="line"/>
      <point x="1018" y="177" type="line" smooth="yes"/>
      <point x="1018" y="137"/>
      <point x="1018" y="89"/>
      <point x="1047" y="51" type="curve" smooth="yes"/>
      <point x="1074" y="15"/>
      <point x="1118" y="0"/>
    </contour>
  </outline>
</glyph>
<glyph name="igujr" format="2">
  <advance width="674"/>
  <unicode hex="0A87"/>
  <outline>
    <contour>
      <point x="328" y="-10" type="curve" smooth="yes"/>
      <point x="542" y="-10"/>
      <point x="638" y="103"/>
      <point x="638" y="256" type="curve" smooth="yes"/>
      <point x="638" y="344"/>
      <point x="607" y="406"/>
      <point x="578" y="458" type="curve" smooth="yes"/>
      <point x="554" y="502"/>
      <point x="536" y="535"/>
      <point x="536" y="573" type="curve" smooth="yes"/>
      <point x="536" y="604"/>
      <point x="555" y="628"/>
      <point x="592" y="653" type="curve"/>
      <point x="505" y="764" type="line"/>
      <point x="435" y="723"/>
      <point x="395" y="658"/>
      <point x="395" y="583" type="curve" smooth="yes"/>
      <point x="395" y="511"/>
      <point x="421" y="464"/>
      <point x="451" y="409" type="curve" smooth="yes"/>
      <point x="480" y="356"/>
      <point x="501" y="311"/>
      <point x="501" y="258" type="curve" smooth="yes"/>
      <point x="501" y="149"/>
      <point x="426" y="104"/>
      <point x="332" y="104" type="curve" smooth="yes"/>
      <point x="245" y="104"/>
      <point x="206" y="133"/>
      <point x="206" y="188" type="curve" smooth="yes"/>
      <point x="206" y="234"/>
      <point x="245" y="261"/>
      <point x="307" y="261" type="curve" smooth="yes"/>
      <point x="319" y="261"/>
      <point x="334" y="261"/>
      <point x="348" y="259" type="curve"/>
      <point x="363" y="370" type="line"/>
      <point x="347" y="373"/>
      <point x="324" y="374"/>
      <point x="304" y="374" type="curve" smooth="yes"/>
      <point x="162" y="374"/>
      <point x="70" y="294"/>
      <point x="70" y="183" type="curve" smooth="yes"/>
      <point x="70" y="76"/>
      <point x="150" y="-10"/>
    </contour>
    <contour>
      <point x="146" y="271" type="curve"/>
      <point x="252" y="342" type="line"/>
      <point x="196" y="367"/>
      <point x="170" y="398"/>
      <point x="170" y="434" type="curve" smooth="yes"/>
      <point x="170" y="469"/>
      <point x="198" y="489"/>
      <point x="246" y="489" type="curve" smooth="yes"/>
      <point x="263" y="489"/>
      <point x="287" y="487"/>
      <point x="307" y="482" type="curve"/>
      <point x="329" y="591" type="line"/>
      <point x="304" y="597"/>
      <point x="264" y="603"/>
      <point x="223" y="603" type="curve" smooth="yes"/>
      <point x="103" y="603"/>
      <point x="34" y="541"/>
      <point x="34" y="446" type="curve" smooth="yes"/>
      <point x="34" y="377"/>
      <point x="74" y="321"/>
    </contour>
  </outline>
</glyph>
<glyph name="iigujr" format="2">
  <advance width="674"/>
  <unicode hex="0A88"/>
  <outline>
    <contour>
      <point x="328" y="-10" type="curve" smooth="yes"/>
      <point x="542" y="-10"/>
      <point x="640" y="104"/>
      <point x="640" y="261" type="curve" smooth="yes"/>
      <point x="640" y="355"/>
      <point x="601" y="438"/>
      <point x="547" y="546" type="curve" smooth="yes"/>
      <point x="502" y="635"/>
      <point x="482" y="676"/>
      <point x="482" y="724" type="curve" smooth="yes"/>
      <point x="482" y="765"/>
      <point x="509" y="784"/>
      <point x="541" y="784" type="curve" smooth="yes"/>
      <point x="579" y="784"/>
      <point x="603" y="755"/>
      <point x="626" y="710" type="curve"/>
      <point x="752" y="764" type="line"/>
      <point x="705" y="847"/>
      <point x="636" y="896"/>
      <point x="546" y="896" type="curve" smooth="yes"/>
      <point x="402" y="896"/>
      <point x="346" y="810"/>
      <point x="346" y="723" type="curve" smooth="yes"/>
      <point x="346" y="635"/>
      <point x="387" y="556"/>
      <point x="432" y="470" type="curve" smooth="yes"/>
      <point x="477" y="384"/>
      <point x="501" y="324"/>
      <point x="501" y="264" type="curve" smooth="yes"/>
      <point x="501" y="149"/>
      <point x="425" y="104"/>
      <point x="332" y="104" type="curve" smooth="yes"/>
      <point x="245" y="104"/>
      <point x="206" y="133"/>
      <point x="206" y="188" type="curve" smooth="yes"/>
      <point x="206" y="234"/>
      <point x="245" y="261"/>
      <point x="307" y="261" type="curve" smooth="yes"/>
      <point x="319" y="261"/>
      <point x="334" y="261"/>
      <point x="348" y="259" type="curve"/>
      <point x="363" y="370" type="line"/>
      <point x="347" y="373"/>
      <point x="324" y="374"/>
      <point x="304" y="374" type="curve" smooth="yes"/>
      <point x="162" y="374"/>
      <point x="70" y="294"/>
      <point x="70" y="183" type="curve" smooth="yes"/>
      <point x="70" y="76"/>
      <point x="150" y="-10"/>
    </contour>
    <contour>
      <point x="146" y="271" type="curve"/>
      <point x="252" y="342" type="line"/>
      <point x="196" y="367"/>
      <point x="170" y="398"/>
      <point x="170" y="434" type="curve" smooth="yes"/>
      <point x="170" y="469"/>
      <point x="198" y="489"/>
      <point x="246" y="489" type="curve" smooth="yes"/>
      <point x="263" y="489"/>
      <point x="287" y="487"/>
      <point x="307" y="482" type="curve"/>
      <point x="329" y="591" type="line"/>
      <point x="304" y="597"/>
      <point x="264" y="603"/>
      <point x="223" y="603" type="curve" smooth="yes"/>
      <point x="103" y="603"/>
      <point x="34" y="541"/>
      <point x="34" y="446" type="curve" smooth="yes"/>
      <point x="34" y="377"/>
      <point x="74" y="321"/>
    </contour>
  </outline>
</glyph>
<glyph name="ugujr" format="2">
  <advance width="665"/>
  <unicode hex="0A89"/>
  <outline>
    <contour>
      <point x="379" y="-10" type="curve" smooth="yes"/>
      <point x="536" y="-10"/>
      <point x="624" y="56"/>
      <point x="624" y="169" type="curve" smooth="yes"/>
      <point x="624" y="247"/>
      <point x="586" y="303"/>
      <point x="505" y="354" type="curve"/>
      <point x="408" y="304" type="line"/>
      <point x="408" y="282" type="line"/>
      <point x="450" y="255"/>
      <point x="488" y="228"/>
      <point x="488" y="182" type="curve" smooth="yes"/>
      <point x="488" y="128"/>
      <point x="445" y="104"/>
      <point x="375" y="104" type="curve" smooth="yes"/>
      <point x="255" y="104"/>
      <point x="182" y="190"/>
      <point x="182" y="388" type="curve" smooth="yes"/>
      <point x="182" y="551"/>
      <point x="238" y="715"/>
      <point x="436" y="717" type="curve" smooth="yes"/>
      <point x="461" y="717"/>
      <point x="489" y="715"/>
      <point x="511" y="709" type="curve"/>
      <point x="533" y="824" type="line"/>
      <point x="505" y="831"/>
      <point x="471" y="834"/>
      <point x="438" y="834" type="curve" smooth="yes"/>
      <point x="158" y="832"/>
      <point x="46" y="626"/>
      <point x="46" y="391" type="curve" smooth="yes"/>
      <point x="46" y="122"/>
      <point x="178" y="-10"/>
    </contour>
    <contour>
      <point x="366" y="248" type="line"/>
      <point x="495" y="259"/>
      <point x="621" y="313"/>
      <point x="621" y="441" type="curve" smooth="yes"/>
      <point x="621" y="535"/>
      <point x="560" y="603"/>
      <point x="432" y="603" type="curve" smooth="yes"/>
      <point x="363" y="603"/>
      <point x="317" y="590"/>
      <point x="266" y="571" type="curve"/>
      <point x="302" y="467" type="line"/>
      <point x="338" y="482"/>
      <point x="375" y="490"/>
      <point x="412" y="490" type="curve" smooth="yes"/>
      <point x="461" y="490"/>
      <point x="487" y="471"/>
      <point x="487" y="437" type="curve" smooth="yes"/>
      <point x="487" y="386"/>
      <point x="421" y="366"/>
      <point x="342" y="360" type="curve"/>
    </contour>
  </outline>
</glyph>
<glyph name="uugujr" format="2">
  <advance width="926"/>
  <unicode hex="0A8A"/>
  <outline>
    <contour>
      <point x="381" y="-10" type="curve" smooth="yes"/>
      <point x="536" y="-10"/>
      <point x="624" y="56"/>
      <point x="624" y="169" type="curve" smooth="yes"/>
      <point x="624" y="247"/>
      <point x="586" y="303"/>
      <point x="505" y="354" type="curve"/>
      <point x="409" y="304" type="line"/>
      <point x="409" y="281" type="line"/>
      <point x="451" y="254"/>
      <point x="488" y="227"/>
      <point x="488" y="182" type="curve" smooth="yes"/>
      <point x="488" y="128"/>
      <point x="445" y="104"/>
      <point x="375" y="104" type="curve" smooth="yes"/>
      <point x="253" y="104"/>
      <point x="182" y="190"/>
      <point x="182" y="382" type="curve" smooth="yes"/>
      <point x="182" y="557"/>
      <point x="251" y="718"/>
      <point x="452" y="718" type="curve" smooth="yes"/>
      <point x="566" y="718"/>
      <point x="657" y="647"/>
      <point x="711" y="511" type="curve"/>
      <point x="711" y="177" type="line" smooth="yes"/>
      <point x="711" y="110"/>
      <point x="721" y="77"/>
      <point x="742" y="49" type="curve" smooth="yes"/>
      <point x="765" y="19"/>
      <point x="804" y="0"/>
      <point x="886" y="0" type="curve" smooth="yes"/>
      <point x="913" y="0" type="line"/>
      <point x="923" y="114" type="line"/>
      <point x="885" y="114"/>
      <point x="871" y="115"/>
      <point x="858" y="129" type="curve" smooth="yes"/>
      <point x="849" y="139"/>
      <point x="845" y="157"/>
      <point x="845" y="187" type="curve" smooth="yes"/>
      <point x="845" y="559" type="line"/>
      <point x="789" y="698"/>
      <point x="660" y="834"/>
      <point x="449" y="834" type="curve" smooth="yes"/>
      <point x="169" y="834"/>
      <point x="46" y="625"/>
      <point x="46" y="385" type="curve" smooth="yes"/>
      <point x="46" y="125"/>
      <point x="178" y="-10"/>
    </contour>
    <contour>
      <point x="366" y="248" type="line"/>
      <point x="495" y="259"/>
      <point x="621" y="313"/>
      <point x="621" y="441" type="curve" smooth="yes"/>
      <point x="621" y="535"/>
      <point x="560" y="603"/>
      <point x="432" y="603" type="curve" smooth="yes"/>
      <point x="363" y="603"/>
      <point x="317" y="590"/>
      <point x="266" y="571" type="curve"/>
      <point x="302" y="467" type="line"/>
      <point x="338" y="482"/>
      <point x="375" y="490"/>
      <point x="412" y="490" type="curve" smooth="yes"/>
      <point x="461" y="490"/>
      <point x="487" y="471"/>
      <point x="487" y="437" type="curve" smooth="yes"/>
      <point x="487" y="386"/>
      <point x="421" y="366"/>
      <point x="342" y="360" type="curve"/>
    </contour>
  </outline>
</glyph>
<glyph name="rvocalicgujr" format="2">
  <advance width="905"/>
  <unicode hex="0A8B"/>
  <outline>
    <contour>
      <point x="747" y="54" type="line"/>
      <point x="816" y="94"/>
      <point x="873" y="141"/>
      <point x="873" y="226" type="curve" smooth="yes"/>
      <point x="873" y="270"/>
      <point x="857" y="328"/>
      <point x="780" y="412" type="curve"/>
      <point x="755" y="431" type="line"/>
      <point x="743" y="422"/>
      <point x="706" y="406"/>
      <point x="666" y="406" type="curve" smooth="yes"/>
      <point x="625" y="406"/>
      <point x="577" y="428"/>
      <point x="537" y="472" type="curve"/>
      <point x="521" y="352" type="line"/>
      <point x="569" y="312"/>
      <point x="636" y="296"/>
      <point x="677" y="296" type="curve" smooth="yes"/>
      <point x="770" y="296"/>
      <point x="850" y="326"/>
      <point x="850" y="417" type="curve" smooth="yes"/>
      <point x="850" y="471"/>
      <point x="813" y="510"/>
      <point x="754" y="510" type="curve" smooth="yes"/>
      <point x="705" y="510"/>
      <point x="667" y="484"/>
      <point x="667" y="431" type="curve" smooth="yes"/>
      <point x="667" y="415"/>
      <point x="672" y="395"/>
      <point x="687" y="375" type="curve"/>
      <point x="688" y="349" type="line"/>
      <point x="733" y="286"/>
      <point x="740" y="262"/>
      <point x="740" y="235" type="curve" smooth="yes"/>
      <point x="740" y="201"/>
      <point x="720" y="182"/>
      <point x="677" y="162" type="curve"/>
    </contour>
    <contour>
      <point x="165" y="111" type="line"/>
      <point x="483" y="326" type="line"/>
      <point x="426" y="414" type="line"/>
      <point x="91" y="223" type="line"/>
    </contour>
    <contour>
      <point x="326" y="335" type="curve"/>
      <point x="418" y="396" type="line"/>
      <point x="322" y="516"/>
      <point x="264" y="547"/>
      <point x="169" y="547" type="curve" smooth="yes"/>
      <point x="111" y="547"/>
      <point x="63" y="532"/>
      <point x="10" y="508" type="curve"/>
      <point x="52" y="402" type="line"/>
      <point x="98" y="424"/>
      <point x="130" y="432"/>
      <point x="166" y="432" type="curve" smooth="yes"/>
      <point x="217" y="432"/>
      <point x="267" y="413"/>
    </contour>
    <contour>
      <point x="593" y="0" type="curve" smooth="yes"/>
      <point x="620" y="0" type="line"/>
      <point x="630" y="114" type="line"/>
      <point x="592" y="114"/>
      <point x="579" y="115"/>
      <point x="565" y="129" type="curve" smooth="yes"/>
      <point x="556" y="138"/>
      <point x="552" y="157"/>
      <point x="552" y="187" type="curve" smooth="yes"/>
      <point x="552" y="592" type="line"/>
      <point x="418" y="603" type="line"/>
      <point x="418" y="177" type="line" smooth="yes"/>
      <point x="418" y="110"/>
      <point x="428" y="77"/>
      <point x="448" y="49" type="curve" smooth="yes"/>
      <point x="470" y="18"/>
      <point x="511" y="0"/>
    </contour>
  </outline>
</glyph>
<glyph name="lvocalicgujr" format="2">
  <advance width="752"/>
  <unicode hex="0A8C"/>
  <outline>
    <contour>
      <point x="197" y="30" type="curve"/>
      <point x="288" y="115" type="line"/>
      <point x="213" y="179"/>
      <point x="170" y="228"/>
      <point x="170" y="280" type="curve" smooth="yes"/>
      <point x="170" y="317"/>
      <point x="195" y="342"/>
      <point x="235" y="342" type="curve" smooth="yes"/>
      <point x="285" y="342"/>
      <point x="320" y="304"/>
      <point x="357" y="264" type="curve"/>
      <point x="392" y="389" type="line"/>
      <point x="333" y="435"/>
      <point x="284" y="454"/>
      <point x="208" y="454" type="curve" smooth="yes"/>
      <point x="129" y="454"/>
      <point x="34" y="415"/>
      <point x="34" y="294" type="curve" smooth="yes"/>
      <point x="34" y="195"/>
      <point x="105" y="112"/>
    </contour>
    <contour>
      <point x="635" y="-87" type="curve" smooth="yes"/>
      <point x="703" y="-87"/>
      <point x="750" y="-70"/>
      <point x="785" y="-52" type="curve"/>
      <point x="747" y="45" type="line"/>
      <point x="700" y="21"/>
      <point x="672" y="14"/>
      <point x="641" y="14" type="curve" smooth="yes"/>
      <point x="601" y="14"/>
      <point x="580" y="30"/>
      <point x="580" y="60" type="curve" smooth="yes"/>
      <point x="580" y="89"/>
      <point x="599" y="111"/>
      <point x="669" y="120" type="curve"/>
      <point x="657" y="213" type="line"/>
      <point x="533" y="205"/>
      <point x="462" y="149"/>
      <point x="462" y="58" type="curve" smooth="yes"/>
      <point x="462" y="-28"/>
      <point x="535" y="-87"/>
    </contour>
    <contour>
      <point x="669" y="120" type="line"/>
      <point x="699" y="170"/>
      <point x="715" y="220"/>
      <point x="715" y="279" type="curve" smooth="yes"/>
      <point x="715" y="390"/>
      <point x="638" y="454"/>
      <point x="531" y="454" type="curve" smooth="yes"/>
      <point x="400" y="454"/>
      <point x="319" y="387"/>
      <point x="284" y="253" type="curve"/>
      <point x="408" y="215" type="line"/>
      <point x="437" y="320"/>
      <point x="489" y="343"/>
      <point x="522" y="343" type="curve" smooth="yes"/>
      <point x="558" y="343"/>
      <point x="582" y="321"/>
      <point x="582" y="270" type="curve" smooth="yes"/>
      <point x="582" y="237"/>
      <point x="566" y="199"/>
      <point x="539" y="156" type="curve"/>
    </contour>
    <contour>
      <point x="456" y="390" type="line"/>
      <point x="590" y="390" type="line"/>
      <point x="590" y="592" type="line"/>
      <point x="456" y="603" type="line"/>
    </contour>
  </outline>
</glyph>
<glyph name="kagujr" format="2">
  <advance width="541"/>
  <unicode hex="0A95"/>
  <outline>
    <contour>
      <point x="260" y="-10" type="curve" smooth="yes"/>
      <point x="433" y="-10"/>
      <point x="491" y="72"/>
      <point x="491" y="155" type="curve" smooth="yes"/>
      <point x="491" y="250"/>
      <point x="426" y="296"/>
      <point x="336" y="336" type="curve"/>
      <point x="327" y="356" type="line"/>
      <point x="263" y="388"/>
      <point x="223" y="408"/>
      <point x="223" y="441" type="curve" smooth="yes"/>
      <point x="223" y="468"/>
      <point x="244" y="490"/>
      <point x="309" y="490" type="curve" smooth="yes"/>
      <point x="335" y="490"/>
      <point x="359" y="488"/>
      <point x="396" y="480" type="curve"/>
      <point x="419" y="589" type="line"/>
      <point x="379" y="599"/>
      <point x="338" y="602"/>
      <point x="303" y="602" type="curve" smooth="yes"/>
      <point x="172" y="602"/>
      <point x="87" y="545"/>
      <point x="87" y="454" type="curve" smooth="yes"/>
      <point x="87" y="383"/>
      <point x="146" y="337"/>
      <point x="209" y="299" type="curve"/>
      <point x="234" y="268" type="line"/>
      <point x="335" y="230"/>
      <point x="354" y="198"/>
      <point x="354" y="167" type="curve" smooth="yes"/>
      <point x="354" y="126"/>
      <point x="314" y="104"/>
      <point x="249" y="104" type="curve" smooth="yes"/>
      <point x="188" y="104"/>
      <point x="137" y="123"/>
      <point x="82" y="152" type="curve"/>
      <point x="19" y="55" type="line"/>
      <point x="86" y="13"/>
      <point x="169" y="-10"/>
    </contour>
    <contour>
      <point x="77" y="188" type="line"/>
      <point x="326" y="277" type="line"/>
      <point x="528" y="344" type="line"/>
      <point x="481" y="452" type="line"/>
      <point x="218" y="357" type="line"/>
      <point x="32" y="295" type="line"/>
    </contour>
  </outline>
</glyph>
<glyph name="ngagujr" format="2">
  <advance width="543"/>
  <unicode hex="0A99"/>
  <outline>
    <contour>
      <point x="461" y="338" type="curve" smooth="yes"/>
      <point x="500" y="338"/>
      <point x="529" y="369"/>
      <point x="529" y="409" type="curve" smooth="yes"/>
      <point x="529" y="449"/>
      <point x="500" y="479"/>
      <point x="461" y="479" type="curve" smooth="yes"/>
      <point x="421" y="479"/>
      <point x="392" y="449"/>
      <point x="392" y="409" type="curve" smooth="yes"/>
      <point x="392" y="369"/>
      <point x="421" y="338"/>
    </contour>
    <contour>
      <point x="287" y="-10" type="curve" smooth="yes"/>
      <point x="421" y="-10"/>
      <point x="498" y="62"/>
      <point x="498" y="168" type="curve" smooth="yes"/>
      <point x="498" y="250"/>
      <point x="463" y="309"/>
      <point x="334" y="375" type="curve" smooth="yes"/>
      <point x="258" y="414"/>
      <point x="243" y="425"/>
      <point x="243" y="454" type="curve" smooth="yes"/>
      <point x="243" y="478"/>
      <point x="262" y="491"/>
      <point x="308" y="491" type="curve" smooth="yes"/>
      <point x="338" y="491"/>
      <point x="370" y="486"/>
      <point x="398" y="479" type="curve"/>
      <point x="423" y="591" type="line"/>
      <point x="388" y="598"/>
      <point x="356" y="603"/>
      <point x="304" y="603" type="curve" smooth="yes"/>
      <point x="180" y="603"/>
      <point x="108" y="538"/>
      <point x="108" y="455" type="curve" smooth="yes"/>
      <point x="108" y="388"/>
      <point x="137" y="334"/>
      <point x="255" y="273" type="curve" smooth="yes"/>
      <point x="333" y="233"/>
      <point x="360" y="207"/>
      <point x="360" y="165" type="curve" smooth="yes"/>
      <point x="360" y="124"/>
      <point x="331" y="104"/>
      <point x="279" y="104" type="curve" smooth="yes"/>
      <point x="215" y="104"/>
      <point x="161" y="138"/>
      <point x="110" y="207" type="curve"/>
      <point x="5" y="145" type="line"/>
      <point x="70" y="53"/>
      <point x="156" y="-10"/>
    </contour>
  </outline>
</glyph>
<glyph name="cagujr" format="2">
  <advance width="707"/>
  <unicode hex="0A9A"/>
  <guideline x="26" y="287" angle="90"/>
  <outline>
    <contour>
      <point x="346" y="112" type="curve" smooth="yes"/>
      <point x="425" y="112"/>
      <point x="477" y="138"/>
      <point x="514" y="165" type="curve"/>
      <point x="498" y="299" type="line"/>
      <point x="457" y="253"/>
      <point x="408" y="225"/>
      <point x="346" y="225" type="curve" smooth="yes"/>
      <point x="295" y="225"/>
      <point x="241" y="236"/>
      <point x="206" y="277" type="curve"/>
      <point x="219" y="316" type="line"/>
      <point x="184" y="357"/>
      <point x="149" y="372"/>
      <point x="107" y="372" type="curve" smooth="yes"/>
      <point x="57" y="372"/>
      <point x="26" y="342"/>
      <point x="26" y="301" type="curve" smooth="yes"/>
      <point x="26" y="250"/>
      <point x="63" y="218"/>
      <point x="126" y="218" type="curve" smooth="yes"/>
      <point x="274" y="218"/>
      <point x="380" y="297"/>
      <point x="380" y="423" type="curve" smooth="yes"/>
      <point x="380" y="532"/>
      <point x="303" y="603"/>
      <point x="170" y="603" type="curve" smooth="yes"/>
      <point x="120" y="603"/>
      <point x="70" y="591"/>
      <point x="24" y="572" type="curve"/>
      <point x="62" y="472" type="line"/>
      <point x="97" y="486"/>
      <point x="130" y="492"/>
      <point x="160" y="492" type="curve" smooth="yes"/>
      <point x="216" y="492"/>
      <point x="250" y="467"/>
      <point x="250" y="423" type="curve" smooth="yes"/>
      <point x="250" y="364"/>
      <point x="204" y="338"/>
      <point x="134" y="328" type="curve"/>
      <point x="122" y="325" type="line"/>
      <point x="104" y="243" type="line"/>
      <point x="171" y="145"/>
      <point x="253" y="112"/>
    </contour>
    <contour>
      <point x="667" y="0" type="curve" smooth="yes"/>
      <point x="694" y="0" type="line"/>
      <point x="704" y="114" type="line"/>
      <point x="666" y="114"/>
      <point x="653" y="115"/>
      <point x="639" y="129" type="curve" smooth="yes"/>
      <point x="630" y="138"/>
      <point x="626" y="157"/>
      <point x="626" y="187" type="curve" smooth="yes"/>
      <point x="626" y="592" type="line"/>
      <point x="492" y="603" type="line"/>
      <point x="492" y="177" type="line" smooth="yes"/>
      <point x="492" y="110"/>
      <point x="502" y="77"/>
      <point x="522" y="49" type="curve" smooth="yes"/>
      <point x="544" y="18"/>
      <point x="585" y="0"/>
    </contour>
  </outline>
</glyph>
<glyph name="chagujr" format="2">
  <advance width="782"/>
  <unicode hex="0A9B"/>
  <outline>
    <contour>
      <point x="333" y="-10" type="curve" smooth="yes"/>
      <point x="613" y="-10"/>
      <point x="752" y="166"/>
      <point x="752" y="371" type="curve" smooth="yes"/>
      <point x="752" y="550"/>
      <point x="641" y="603"/>
      <point x="545" y="603" type="curve" smooth="yes"/>
      <point x="430" y="603"/>
      <point x="373" y="531"/>
      <point x="373" y="449" type="curve" smooth="yes"/>
      <point x="373" y="329"/>
      <point x="462" y="274"/>
      <point x="560" y="251" type="curve"/>
      <point x="598" y="362" type="line"/>
      <point x="516" y="378"/>
      <point x="494" y="411"/>
      <point x="494" y="442" type="curve" smooth="yes"/>
      <point x="494" y="467"/>
      <point x="508" y="494"/>
      <point x="545" y="494" type="curve" smooth="yes"/>
      <point x="579" y="494"/>
      <point x="617" y="470"/>
      <point x="617" y="375" type="curve" smooth="yes"/>
      <point x="617" y="256"/>
      <point x="533" y="104"/>
      <point x="332" y="104" type="curve" smooth="yes"/>
      <point x="245" y="104"/>
      <point x="206" y="133"/>
      <point x="206" y="188" type="curve" smooth="yes"/>
      <point x="206" y="234"/>
      <point x="245" y="261"/>
      <point x="307" y="261" type="curve" smooth="yes"/>
      <point x="319" y="261"/>
      <point x="334" y="261"/>
      <point x="348" y="259" type="curve"/>
      <point x="363" y="370" type="line"/>
      <point x="347" y="373"/>
      <point x="324" y="374"/>
      <point x="304" y="374" type="curve" smooth="yes"/>
      <point x="162" y="374"/>
      <point x="70" y="294"/>
      <point x="70" y="183" type="curve" smooth="yes"/>
      <point x="70" y="76"/>
      <point x="144" y="-10"/>
    </contour>
    <contour>
      <point x="146" y="271" type="curve"/>
      <point x="252" y="342" type="line"/>
      <point x="196" y="367"/>
      <point x="170" y="398"/>
      <point x="170" y="434" type="curve" smooth="yes"/>
      <point x="170" y="469"/>
      <point x="198" y="489"/>
      <point x="246" y="489" type="curve" smooth="yes"/>
      <point x="263" y="489"/>
      <point x="287" y="487"/>
      <point x="307" y="482" type="curve"/>
      <point x="329" y="591" type="line"/>
      <point x="304" y="597"/>
      <point x="264" y="603"/>
      <point x="223" y="603" type="curve" smooth="yes"/>
      <point x="103" y="603"/>
      <point x="34" y="541"/>
      <point x="34" y="446" type="curve" smooth="yes"/>
      <point x="34" y="377"/>
      <point x="74" y="321"/>
    </contour>
  </outline>
</glyph>
<glyph name="jagujr" format="2">
  <advance width="889"/>
  <unicode hex="0A9C"/>
  <outline>
    <contour>
      <point x="604" y="-10" type="curve" smooth="yes"/>
      <point x="733" y="-10"/>
      <point x="804" y="66"/>
      <point x="804" y="175" type="curve" smooth="yes"/>
      <point x="804" y="257"/>
      <point x="773" y="333"/>
      <point x="693" y="413" type="curve"/>
      <point x="576" y="539"/>
      <point x="437" y="603"/>
      <point x="267" y="603" type="curve" smooth="yes"/>
      <point x="105" y="603"/>
      <point x="27" y="513"/>
      <point x="27" y="414" type="curve" smooth="yes"/>
      <point x="27" y="323"/>
      <point x="90" y="248"/>
      <point x="213" y="248" type="curve" smooth="yes"/>
      <point x="356" y="248"/>
      <point x="395" y="338"/>
      <point x="395" y="405" type="curve" smooth="yes"/>
      <point x="395" y="454"/>
      <point x="373" y="499"/>
      <point x="363" y="514" type="curve"/>
      <point x="256" y="497" type="line"/>
      <point x="270" y="472"/>
      <point x="276" y="450"/>
      <point x="276" y="424" type="curve" smooth="yes"/>
      <point x="276" y="381"/>
      <point x="258" y="359"/>
      <point x="214" y="359" type="curve" smooth="yes"/>
      <point x="179" y="359"/>
      <point x="158" y="380"/>
      <point x="158" y="417" type="curve" smooth="yes"/>
      <point x="158" y="459"/>
      <point x="189" y="494"/>
      <point x="258" y="494" type="curve" smooth="yes"/>
      <point x="353" y="494"/>
      <point x="494" y="449"/>
      <point x="560" y="374" type="curve"/>
      <point x="638" y="302"/>
      <point x="671" y="252"/>
      <point x="671" y="172" type="curve" smooth="yes"/>
      <point x="671" y="126"/>
      <point x="647" y="100"/>
      <point x="604" y="100" type="curve" smooth="yes"/>
      <point x="565" y="100"/>
      <point x="540" y="123"/>
      <point x="540" y="174" type="curve" smooth="yes"/>
      <point x="540" y="233"/>
      <point x="566" y="276"/>
      <point x="672" y="357" type="curve"/>
      <point x="739" y="404"/>
      <point x="814" y="450"/>
      <point x="896" y="500" type="curve"/>
      <point x="823" y="603" type="line"/>
      <point x="734" y="550"/>
      <point x="649" y="493"/>
      <point x="580" y="437" type="curve"/>
      <point x="451" y="335"/>
      <point x="408" y="259"/>
      <point x="408" y="166" type="curve" smooth="yes"/>
      <point x="408" y="81"/>
      <point x="463" y="-10"/>
    </contour>
  </outline>
</glyph>
<glyph name="nyagujr" format="2">
  <advance width="741"/>
  <unicode hex="0A9E"/>
  <outline>
    <contour>
      <point x="228" y="166" type="curve" smooth="yes"/>
      <point x="326" y="166"/>
      <point x="423" y="216"/>
      <point x="423" y="376" type="curve" smooth="yes"/>
      <point x="423" y="516"/>
      <point x="348" y="603"/>
      <point x="212" y="603" type="curve" smooth="yes"/>
      <point x="146" y="603"/>
      <point x="96" y="588"/>
      <point x="53" y="569" type="curve"/>
      <point x="90" y="466" type="line"/>
      <point x="121" y="480"/>
      <point x="156" y="490"/>
      <point x="196" y="490" type="curve" smooth="yes"/>
      <point x="260" y="490"/>
      <point x="291" y="459"/>
      <point x="291" y="379" type="curve" smooth="yes"/>
      <point x="291" y="301"/>
      <point x="258" y="281"/>
      <point x="215" y="281" type="curve" smooth="yes"/>
      <point x="166" y="281"/>
      <point x="134" y="313"/>
      <point x="104" y="360" type="curve"/>
      <point x="5" y="302" type="line"/>
      <point x="61" y="216"/>
      <point x="129" y="166"/>
    </contour>
    <contour>
      <point x="437" y="309" type="curve" smooth="yes"/>
      <point x="499" y="309"/>
      <point x="538" y="327"/>
      <point x="576" y="360" type="curve"/>
      <point x="558" y="490" type="line"/>
      <point x="528" y="445"/>
      <point x="495" y="420"/>
      <point x="435" y="420" type="curve" smooth="yes"/>
      <point x="389" y="420"/>
      <point x="357" y="439"/>
      <point x="330" y="468" type="curve"/>
      <point x="323" y="341" type="line"/>
      <point x="353" y="318"/>
      <point x="396" y="309"/>
    </contour>
    <contour>
      <point x="702" y="0" type="curve" smooth="yes"/>
      <point x="729" y="0" type="line"/>
      <point x="738" y="114" type="line"/>
      <point x="701" y="114"/>
      <point x="687" y="115"/>
      <point x="673" y="129" type="curve" smooth="yes"/>
      <point x="664" y="138"/>
      <point x="661" y="157"/>
      <point x="661" y="187" type="curve" smooth="yes"/>
      <point x="661" y="592" type="line"/>
      <point x="526" y="603" type="line"/>
      <point x="526" y="177" type="line" smooth="yes"/>
      <point x="526" y="114"/>
      <point x="537" y="77"/>
      <point x="557" y="49" type="curve" smooth="yes"/>
      <point x="579" y="18"/>
      <point x="620" y="0"/>
    </contour>
  </outline>
</glyph>
<glyph name="ttagujr" format="2">
  <advance width="488"/>
  <unicode hex="0A9F"/>
  <outline>
    <contour>
      <point x="261" y="-10" type="curve" smooth="yes"/>
      <point x="358" y="-10"/>
      <point x="425" y="14"/>
      <point x="497" y="46" type="curve"/>
      <point x="444" y="152" type="line"/>
      <point x="400" y="127"/>
      <point x="336" y="104"/>
      <point x="261" y="104" type="curve" smooth="yes"/>
      <point x="212" y="104"/>
      <point x="171" y="118"/>
      <point x="171" y="167" type="curve" smooth="yes"/>
      <point x="171" y="204"/>
      <point x="198" y="226"/>
      <point x="280" y="268" type="curve" smooth="yes"/>
      <point x="410" y="335"/>
      <point x="448" y="377"/>
      <point x="448" y="458" type="curve" smooth="yes"/>
      <point x="448" y="544"/>
      <point x="385" y="603"/>
      <point x="258" y="603" type="curve" smooth="yes"/>
      <point x="190" y="603"/>
      <point x="129" y="589"/>
      <point x="75" y="570" type="curve"/>
      <point x="113" y="464" type="line"/>
      <point x="152" y="480"/>
      <point x="200" y="491"/>
      <point x="253" y="491" type="curve" smooth="yes"/>
      <point x="288" y="491"/>
      <point x="314" y="480"/>
      <point x="314" y="454" type="curve" smooth="yes"/>
      <point x="314" y="428"/>
      <point x="295" y="416"/>
      <point x="211" y="374" type="curve" smooth="yes"/>
      <point x="96" y="317"/>
      <point x="34" y="262"/>
      <point x="34" y="170" type="curve" smooth="yes"/>
      <point x="34" y="63"/>
      <point x="113" y="-10"/>
    </contour>
  </outline>
</glyph>
<glyph name="tthagujr" format="2">
  <advance width="550"/>
  <unicode hex="0AA0"/>
  <outline>
    <contour>
      <point x="282" y="-10" type="curve" smooth="yes"/>
      <point x="437" y="-10"/>
      <point x="525" y="59"/>
      <point x="525" y="173" type="curve" smooth="yes"/>
      <point x="525" y="261"/>
      <point x="485" y="330"/>
      <point x="344" y="405" type="curve" smooth="yes"/>
      <point x="289" y="434"/>
      <point x="277" y="445"/>
      <point x="277" y="464" type="curve" smooth="yes"/>
      <point x="277" y="483"/>
      <point x="295" y="492"/>
      <point x="336" y="492" type="curve" smooth="yes"/>
      <point x="363" y="492"/>
      <point x="394" y="488"/>
      <point x="425" y="479" type="curve"/>
      <point x="450" y="591" type="line"/>
      <point x="413" y="598"/>
      <point x="374" y="603"/>
      <point x="330" y="603" type="curve" smooth="yes"/>
      <point x="202" y="603"/>
      <point x="147" y="537"/>
      <point x="147" y="471" type="curve" smooth="yes"/>
      <point x="147" y="417"/>
      <point x="176" y="373"/>
      <point x="228" y="336" type="curve"/>
      <point x="265" y="311" type="line"/>
      <point x="363" y="257"/>
      <point x="390" y="228"/>
      <point x="390" y="181" type="curve" smooth="yes"/>
      <point x="390" y="127"/>
      <point x="343" y="104"/>
      <point x="280" y="104" type="curve" smooth="yes"/>
      <point x="212" y="104"/>
      <point x="168" y="132"/>
      <point x="168" y="190" type="curve" smooth="yes"/>
      <point x="168" y="247"/>
      <point x="219" y="285"/>
      <point x="307" y="285" type="curve" smooth="yes"/>
      <point x="321" y="285"/>
      <point x="352" y="284"/>
      <point x="381" y="277" type="curve"/>
      <point x="376" y="336" type="line"/>
      <point x="280" y="390" type="line"/>
      <point x="145" y="389"/>
      <point x="33" y="314"/>
      <point x="33" y="191" type="curve" smooth="yes"/>
      <point x="33" y="72"/>
      <point x="122" y="-10"/>
    </contour>
  </outline>
</glyph>
<glyph name="ddhagujr" format="2">
  <advance width="546"/>
  <unicode hex="0AA2"/>
  <outline>
    <contour>
      <point x="302" y="-10" type="curve" smooth="yes"/>
      <point x="444" y="-10"/>
      <point x="536" y="43"/>
      <point x="536" y="146" type="curve" smooth="yes"/>
      <point x="536" y="225"/>
      <point x="482" y="284"/>
      <point x="382" y="284" type="curve" smooth="yes"/>
      <point x="296" y="284"/>
      <point x="230" y="237"/>
      <point x="230" y="161" type="curve" smooth="yes"/>
      <point x="230" y="126"/>
      <point x="241" y="83"/>
      <point x="271" y="37" type="curve"/>
      <point x="371" y="52" type="line"/>
      <point x="347" y="80"/>
      <point x="334" y="105"/>
      <point x="334" y="140" type="curve" smooth="yes"/>
      <point x="334" y="172"/>
      <point x="358" y="186"/>
      <point x="382" y="186" type="curve" smooth="yes"/>
      <point x="407" y="186"/>
      <point x="421" y="170"/>
      <point x="421" y="149" type="curve" smooth="yes"/>
      <point x="421" y="116"/>
      <point x="388" y="97"/>
      <point x="325" y="97" type="curve" smooth="yes"/>
      <point x="272" y="97" type="line" smooth="yes"/>
      <point x="205" y="97"/>
      <point x="168" y="132"/>
      <point x="168" y="176" type="curve" smooth="yes"/>
      <point x="168" y="212"/>
      <point x="183" y="235"/>
      <point x="250" y="268" type="curve" smooth="yes"/>
      <point x="309" y="297" type="line" smooth="yes"/>
      <point x="416" y="350"/>
      <point x="449" y="392"/>
      <point x="449" y="462" type="curve" smooth="yes"/>
      <point x="449" y="550"/>
      <point x="386" y="603"/>
      <point x="261" y="603" type="curve" smooth="yes"/>
      <point x="201" y="603"/>
      <point x="141" y="589"/>
      <point x="93" y="573" type="curve"/>
      <point x="131" y="467" type="line"/>
      <point x="170" y="483"/>
      <point x="218" y="491"/>
      <point x="258" y="491" type="curve" smooth="yes"/>
      <point x="292" y="491"/>
      <point x="315" y="481"/>
      <point x="315" y="458" type="curve" smooth="yes"/>
      <point x="315" y="429"/>
      <point x="289" y="415"/>
      <point x="238" y="391" type="curve" smooth="yes"/>
      <point x="204" y="375" type="line" smooth="yes"/>
      <point x="98" y="325"/>
      <point x="34" y="274"/>
      <point x="34" y="176" type="curve" smooth="yes"/>
      <point x="34" y="67"/>
      <point x="130" y="-10"/>
    </contour>
  </outline>
</glyph>
<glyph name="tagujr" format="2">
  <advance width="621"/>
  <unicode hex="0AA4"/>
  <outline>
    <contour>
      <point x="198" y="10" type="curve"/>
      <point x="287" y="95" type="line"/>
      <point x="207" y="161"/>
      <point x="170" y="198"/>
      <point x="170" y="256" type="curve" smooth="yes"/>
      <point x="170" y="278"/>
      <point x="177" y="294"/>
      <point x="190" y="306" type="curve" smooth="yes"/>
      <point x="210" y="324"/>
      <point x="238" y="330"/>
      <point x="303" y="330" type="curve" smooth="yes"/>
      <point x="426" y="330" type="line"/>
      <point x="426" y="444" type="line"/>
      <point x="284" y="444" type="line" smooth="yes"/>
      <point x="187" y="444"/>
      <point x="134" y="430"/>
      <point x="92" y="397" type="curve" smooth="yes"/>
      <point x="56" y="369"/>
      <point x="34" y="325"/>
      <point x="34" y="265" type="curve" smooth="yes"/>
      <point x="34" y="169"/>
      <point x="95" y="93"/>
    </contour>
    <contour>
      <point x="581" y="0" type="curve" smooth="yes"/>
      <point x="608" y="0" type="line"/>
      <point x="618" y="114" type="line"/>
      <point x="580" y="114"/>
      <point x="567" y="115"/>
      <point x="553" y="129" type="curve" smooth="yes"/>
      <point x="544" y="138"/>
      <point x="540" y="157"/>
      <point x="540" y="187" type="curve" smooth="yes"/>
      <point x="540" y="592" type="line"/>
      <point x="406" y="603" type="line"/>
      <point x="406" y="177" type="line" smooth="yes"/>
      <point x="406" y="110"/>
      <point x="416" y="77"/>
      <point x="436" y="49" type="curve" smooth="yes"/>
      <point x="458" y="18"/>
      <point x="499" y="0"/>
    </contour>
  </outline>
</glyph>
<glyph name="nagujr" format="2">
  <advance width="609"/>
  <unicode hex="0AA8"/>
  <outline>
    <contour>
      <point x="569" y="0" type="curve" smooth="yes"/>
      <point x="596" y="0" type="line"/>
      <point x="606" y="114" type="line"/>
      <point x="568" y="114"/>
      <point x="555" y="115"/>
      <point x="541" y="129" type="curve" smooth="yes"/>
      <point x="532" y="138"/>
      <point x="528" y="157"/>
      <point x="528" y="187" type="curve" smooth="yes"/>
      <point x="528" y="592" type="line"/>
      <point x="394" y="603" type="line"/>
      <point x="394" y="177" type="line" smooth="yes"/>
      <point x="394" y="110"/>
      <point x="404" y="77"/>
      <point x="424" y="49" type="curve" smooth="yes"/>
      <point x="446" y="18"/>
      <point x="487" y="0"/>
    </contour>
    <contour>
      <point x="169" y="175" type="curve" smooth="yes"/>
      <point x="212" y="175"/>
      <point x="237" y="198"/>
      <point x="237" y="254" type="curve" smooth="yes"/>
      <point x="237" y="299" type="line"/>
      <point x="439" y="299" type="line"/>
      <point x="439" y="413" type="line"/>
      <point x="98" y="413" type="line" smooth="yes"/>
      <point x="37" y="413"/>
      <point x="21" y="379"/>
      <point x="21" y="340" type="curve" smooth="yes"/>
      <point x="21" y="256"/>
      <point x="108" y="175"/>
    </contour>
  </outline>
</glyph>
<glyph name="pagujr" format="2">
  <advance width="607"/>
  <unicode hex="0AAA"/>
  <outline>
    <contour>
      <point x="269" y="157" type="curve" smooth="yes"/>
      <point x="325" y="157"/>
      <point x="370" y="171"/>
      <point x="412" y="197" type="curve"/>
      <point x="410" y="334" type="line"/>
      <point x="386" y="306"/>
      <point x="342" y="271"/>
      <point x="288" y="271" type="curve" smooth="yes"/>
      <point x="271" y="271"/>
      <point x="252" y="274"/>
      <point x="241" y="284" type="curve" smooth="yes"/>
      <point x="226" y="297"/>
      <point x="218" y="314"/>
      <point x="218" y="372" type="curve" smooth="yes"/>
      <point x="218" y="415" type="line" smooth="yes"/>
      <point x="218" y="474"/>
      <point x="211" y="511"/>
      <point x="187" y="543" type="curve" smooth="yes"/>
      <point x="164" y="573"/>
      <point x="125" y="592"/>
      <point x="43" y="592" type="curve" smooth="yes"/>
      <point x="16" y="592" type="line"/>
      <point x="6" y="478" type="line"/>
      <point x="46" y="478"/>
      <point x="57" y="477"/>
      <point x="71" y="462" type="curve" smooth="yes"/>
      <point x="80" y="452"/>
      <point x="84" y="436"/>
      <point x="84" y="405" type="curve" smooth="yes"/>
      <point x="84" y="363" type="line" smooth="yes"/>
      <point x="84" y="291"/>
      <point x="90" y="246"/>
      <point x="133" y="203" type="curve" smooth="yes"/>
      <point x="161" y="175"/>
      <point x="208" y="157"/>
    </contour>
    <contour>
      <point x="567" y="0" type="curve" smooth="yes"/>
      <point x="594" y="0" type="line"/>
      <point x="604" y="114" type="line"/>
      <point x="566" y="114"/>
      <point x="553" y="115"/>
      <point x="539" y="129" type="curve" smooth="yes"/>
      <point x="530" y="138"/>
      <point x="526" y="157"/>
      <point x="526" y="187" type="curve" smooth="yes"/>
      <point x="526" y="592" type="line"/>
      <point x="392" y="603" type="line"/>
      <point x="392" y="177" type="line" smooth="yes"/>
      <point x="392" y="110"/>
      <point x="402" y="77"/>
      <point x="422" y="49" type="curve" smooth="yes"/>
      <point x="444" y="18"/>
      <point x="485" y="0"/>
    </contour>
  </outline>
</glyph>
<glyph name="phagujr" format="2">
  <advance width="541"/>
  <unicode hex="0AAB"/>
  <outline>
    <contour>
      <point x="402" y="-181" type="curve" smooth="yes"/>
      <point x="421" y="-181" type="line"/>
      <point x="434" y="-64" type="line"/>
      <point x="410" y="-64" type="line" smooth="yes"/>
      <point x="332" y="-64"/>
      <point x="294" y="-29"/>
      <point x="225" y="73" type="curve"/>
      <point x="232" y="83" type="line"/>
      <point x="192" y="125"/>
      <point x="160" y="156"/>
      <point x="104" y="156" type="curve" smooth="yes"/>
      <point x="61" y="156"/>
      <point x="34" y="126"/>
      <point x="34" y="92" type="curve" smooth="yes"/>
      <point x="34" y="31"/>
      <point x="79" y="4"/>
      <point x="167" y="-6" type="curve" smooth="yes"/>
      <point x="193" y="-9"/>
      <point x="226" y="-10"/>
      <point x="255" y="-10" type="curve" smooth="yes"/>
      <point x="433" y="-10"/>
      <point x="491" y="72"/>
      <point x="491" y="155" type="curve" smooth="yes"/>
      <point x="491" y="250"/>
      <point x="426" y="296"/>
      <point x="336" y="336" type="curve"/>
      <point x="327" y="356" type="line"/>
      <point x="258" y="390"/>
      <point x="223" y="410"/>
      <point x="223" y="442" type="curve" smooth="yes"/>
      <point x="223" y="469"/>
      <point x="244" y="491"/>
      <point x="309" y="491" type="curve" smooth="yes"/>
      <point x="335" y="491"/>
      <point x="359" y="489"/>
      <point x="396" y="481" type="curve"/>
      <point x="419" y="590" type="line"/>
      <point x="379" y="600"/>
      <point x="338" y="603"/>
      <point x="303" y="603" type="curve" smooth="yes"/>
      <point x="172" y="603"/>
      <point x="87" y="546"/>
      <point x="87" y="455" type="curve" smooth="yes"/>
      <point x="87" y="384"/>
      <point x="146" y="337"/>
      <point x="209" y="299" type="curve"/>
      <point x="234" y="268" type="line"/>
      <point x="335" y="230"/>
      <point x="354" y="198"/>
      <point x="354" y="167" type="curve" smooth="yes"/>
      <point x="354" y="126"/>
      <point x="314" y="103"/>
      <point x="249" y="103" type="curve" smooth="yes"/>
      <point x="211" y="103"/>
      <point x="178" y="109"/>
      <point x="145" y="122" type="curve"/>
      <point x="123" y="27" type="line"/>
      <point x="202" y="-115"/>
      <point x="280" y="-181"/>
    </contour>
    <contour>
      <point x="77" y="188" type="line"/>
      <point x="326" y="277" type="line"/>
      <point x="528" y="344" type="line"/>
      <point x="481" y="452" type="line"/>
      <point x="218" y="357" type="line"/>
      <point x="32" y="295" type="line"/>
    </contour>
  </outline>
</glyph>
<glyph name="bagujr" format="2">
  <advance width="796"/>
  <unicode hex="0AAC"/>
  <outline>
    <contour>
      <point x="257" y="149" type="curve" smooth="yes"/>
      <point x="411" y="149"/>
      <point x="475" y="225"/>
      <point x="475" y="373" type="curve" smooth="yes"/>
      <point x="475" y="441" type="line"/>
      <point x="341" y="452" type="line"/>
      <point x="341" y="381" type="line" smooth="yes"/>
      <point x="341" y="322"/>
      <point x="334" y="299"/>
      <point x="318" y="283" type="curve" smooth="yes"/>
      <point x="305" y="270"/>
      <point x="286" y="263"/>
      <point x="259" y="263" type="curve" smooth="yes"/>
      <point x="212" y="263"/>
      <point x="170" y="283"/>
      <point x="170" y="358" type="curve" smooth="yes"/>
      <point x="170" y="430"/>
      <point x="228" y="469"/>
      <point x="302" y="487" type="curve"/>
      <point x="271" y="603" type="line"/>
      <point x="127" y="570"/>
      <point x="34" y="483"/>
      <point x="34" y="357" type="curve" smooth="yes"/>
      <point x="34" y="228"/>
      <point x="125" y="149"/>
    </contour>
    <contour>
      <point x="515" y="222" type="curve" smooth="yes"/>
      <point x="574" y="222"/>
      <point x="604" y="249"/>
      <point x="625" y="273" type="curve"/>
      <point x="609" y="395" type="line"/>
      <point x="588" y="367"/>
      <point x="562" y="335"/>
      <point x="516" y="335" type="curve" smooth="yes"/>
      <point x="492" y="335"/>
      <point x="475" y="347"/>
      <point x="469" y="373" type="curve"/>
      <point x="411" y="277" type="line"/>
      <point x="441" y="232"/>
      <point x="479" y="222"/>
    </contour>
    <contour>
      <point x="757" y="0" type="curve" smooth="yes"/>
      <point x="784" y="0" type="line"/>
      <point x="793" y="114" type="line"/>
      <point x="756" y="114"/>
      <point x="742" y="115"/>
      <point x="729" y="129" type="curve" smooth="yes"/>
      <point x="720" y="138"/>
      <point x="716" y="157"/>
      <point x="716" y="187" type="curve" smooth="yes"/>
      <point x="716" y="592" type="line"/>
      <point x="582" y="603" type="line"/>
      <point x="582" y="177" type="line" smooth="yes"/>
      <point x="582" y="137"/>
      <point x="582" y="89"/>
      <point x="611" y="51" type="curve" smooth="yes"/>
      <point x="638" y="15"/>
      <point x="682" y="0"/>
    </contour>
  </outline>
</glyph>
<glyph name="magujr" format="2">
  <advance width="629"/>
  <unicode hex="0AAE"/>
  <outline>
    <contour>
      <point x="590" y="0" type="curve" smooth="yes"/>
      <point x="617" y="0" type="line"/>
      <point x="626" y="114" type="line"/>
      <point x="589" y="114"/>
      <point x="576" y="115"/>
      <point x="562" y="129" type="curve" smooth="yes"/>
      <point x="553" y="138"/>
      <point x="549" y="157"/>
      <point x="549" y="187" type="curve" smooth="yes"/>
      <point x="549" y="592" type="line"/>
      <point x="415" y="603" type="line"/>
      <point x="415" y="177" type="line" smooth="yes"/>
      <point x="415" y="110"/>
      <point x="425" y="77"/>
      <point x="445" y="49" type="curve" smooth="yes"/>
      <point x="467" y="18"/>
      <point x="508" y="0"/>
    </contour>
    <contour>
      <point x="182" y="111" type="curve" smooth="yes"/>
      <point x="227" y="111"/>
      <point x="252" y="133"/>
      <point x="252" y="190" type="curve" smooth="yes"/>
      <point x="252" y="209" type="line"/>
      <point x="429" y="209" type="line"/>
      <point x="429" y="322" type="line"/>
      <point x="108" y="322" type="line" smooth="yes"/>
      <point x="52" y="322"/>
      <point x="38" y="294"/>
      <point x="38" y="259" type="curve" smooth="yes"/>
      <point x="38" y="197"/>
      <point x="125" y="111"/>
    </contour>
    <contour>
      <point x="118" y="306" type="line"/>
      <point x="252" y="306" type="line"/>
      <point x="252" y="419" type="line" smooth="yes"/>
      <point x="252" y="486"/>
      <point x="242" y="514"/>
      <point x="222" y="542" type="curve" smooth="yes"/>
      <point x="199" y="574"/>
      <point x="159" y="592"/>
      <point x="77" y="592" type="curve" smooth="yes"/>
      <point x="50" y="592" type="line"/>
      <point x="41" y="478" type="line"/>
      <point x="78" y="478"/>
      <point x="92" y="477"/>
      <point x="105" y="462" type="curve" smooth="yes"/>
      <point x="113" y="453"/>
      <point x="118" y="435"/>
      <point x="118" y="405" type="curve" smooth="yes"/>
    </contour>
  </outline>
</glyph>
<glyph name="yagujr" format="2">
  <advance width="648"/>
  <unicode hex="0AAF"/>
  <outline>
    <contour>
      <point x="293" y="157" type="curve" smooth="yes"/>
      <point x="352" y="157"/>
      <point x="401" y="170"/>
      <point x="447" y="201" type="curve"/>
      <point x="439" y="339" type="line"/>
      <point x="392" y="290"/>
      <point x="349" y="271"/>
      <point x="297" y="271" type="curve" smooth="yes"/>
      <point x="242" y="271"/>
      <point x="210" y="295"/>
      <point x="180" y="341" type="curve"/>
      <point x="175" y="283" type="line"/>
      <point x="250" y="319"/>
      <point x="298" y="364"/>
      <point x="298" y="444" type="curve" smooth="yes"/>
      <point x="298" y="530"/>
      <point x="243" y="603"/>
      <point x="110" y="603" type="curve" smooth="yes"/>
      <point x="81" y="603"/>
      <point x="41" y="598"/>
      <point x="14" y="588" type="curve"/>
      <point x="42" y="483" type="line"/>
      <point x="52" y="487"/>
      <point x="76" y="492"/>
      <point x="101" y="492" type="curve" smooth="yes"/>
      <point x="146" y="492"/>
      <point x="166" y="473"/>
      <point x="166" y="444" type="curve" smooth="yes"/>
      <point x="166" y="395"/>
      <point x="111" y="369"/>
      <point x="40" y="352" type="curve"/>
      <point x="80" y="236"/>
      <point x="157" y="157"/>
    </contour>
    <contour>
      <point x="608" y="0" type="curve" smooth="yes"/>
      <point x="635" y="0" type="line"/>
      <point x="645" y="114" type="line"/>
      <point x="607" y="114"/>
      <point x="593" y="115"/>
      <point x="580" y="129" type="curve" smooth="yes"/>
      <point x="571" y="138"/>
      <point x="567" y="157"/>
      <point x="567" y="187" type="curve" smooth="yes"/>
      <point x="567" y="592" type="line"/>
      <point x="433" y="603" type="line"/>
      <point x="433" y="177" type="line" smooth="yes"/>
      <point x="433" y="137"/>
      <point x="433" y="89"/>
      <point x="462" y="51" type="curve" smooth="yes"/>
      <point x="489" y="15"/>
      <point x="533" y="0"/>
    </contour>
  </outline>
</glyph>
<glyph name="ragujr" format="2">
  <advance width="477"/>
  <unicode hex="0AB0"/>
  <outline>
    <contour>
      <point x="448" y="0" type="curve" smooth="yes"/>
      <point x="467" y="0" type="line"/>
      <point x="476" y="117" type="line"/>
      <point x="454" y="117" type="line" smooth="yes"/>
      <point x="386" y="117"/>
      <point x="319" y="127"/>
      <point x="228" y="245" type="curve"/>
      <point x="225" y="268" type="line"/>
      <point x="182" y="310"/>
      <point x="152" y="324"/>
      <point x="114" y="324" type="curve" smooth="yes"/>
      <point x="64" y="324"/>
      <point x="29" y="299"/>
      <point x="29" y="251" type="curve" smooth="yes"/>
      <point x="29" y="201"/>
      <point x="66" y="170"/>
      <point x="136" y="170" type="curve" smooth="yes"/>
      <point x="311" y="170"/>
      <point x="432" y="270"/>
      <point x="432" y="405" type="curve" smooth="yes"/>
      <point x="432" y="534"/>
      <point x="335" y="603"/>
      <point x="204" y="603" type="curve" smooth="yes"/>
      <point x="135" y="603"/>
      <point x="76" y="589"/>
      <point x="28" y="569" type="curve"/>
      <point x="66" y="463" type="line"/>
      <point x="100" y="479"/>
      <point x="140" y="489"/>
      <point x="188" y="489" type="curve" smooth="yes"/>
      <point x="248" y="489"/>
      <point x="294" y="466"/>
      <point x="294" y="404" type="curve" smooth="yes"/>
      <point x="294" y="334"/>
      <point x="219" y="291"/>
      <point x="140" y="283" type="curve"/>
      <point x="114" y="204" type="line"/>
      <point x="220" y="46"/>
      <point x="311" y="0"/>
    </contour>
  </outline>
</glyph>
<glyph name="lagujr" format="2">
  <advance width="701"/>
  <unicode hex="0AB2"/>
  <outline>
    <contour>
      <point x="296" y="95" type="curve" smooth="yes"/>
      <point x="343" y="95"/>
      <point x="398" y="104"/>
      <point x="439" y="123" type="curve"/>
      <point x="393" y="226" type="line"/>
      <point x="364" y="213"/>
      <point x="338" y="208"/>
      <point x="304" y="208" type="curve" smooth="yes"/>
      <point x="225" y="208"/>
      <point x="170" y="248"/>
      <point x="170" y="330" type="curve" smooth="yes"/>
      <point x="170" y="415"/>
      <point x="233" y="463"/>
      <point x="353" y="486" type="curve"/>
      <point x="321" y="603" type="line"/>
      <point x="126" y="567"/>
      <point x="34" y="463"/>
      <point x="34" y="336" type="curve" smooth="yes"/>
      <point x="34" y="187"/>
      <point x="127" y="95"/>
    </contour>
    <contour>
      <point x="286" y="276" type="line"/>
      <point x="529" y="326" type="line"/>
      <point x="521" y="441" type="line"/>
      <point x="258" y="389" type="line"/>
    </contour>
    <contour>
      <point x="661" y="0" type="curve" smooth="yes"/>
      <point x="688" y="0" type="line"/>
      <point x="698" y="114" type="line"/>
      <point x="660" y="114"/>
      <point x="647" y="115"/>
      <point x="633" y="129" type="curve" smooth="yes"/>
      <point x="624" y="138"/>
      <point x="620" y="157"/>
      <point x="620" y="187" type="curve" smooth="yes"/>
      <point x="620" y="592" type="line"/>
      <point x="486" y="603" type="line"/>
      <point x="486" y="177" type="line" smooth="yes"/>
      <point x="486" y="110"/>
      <point x="496" y="77"/>
      <point x="516" y="49" type="curve" smooth="yes"/>
      <point x="538" y="18"/>
      <point x="579" y="0"/>
    </contour>
  </outline>
</glyph>
<glyph name="llagujr" format="2">
  <advance width="799"/>
  <unicode hex="0AB3"/>
  <outline>
    <contour>
      <point x="760" y="0" type="curve" smooth="yes"/>
      <point x="787" y="0" type="line"/>
      <point x="796" y="114" type="line"/>
      <point x="759" y="114"/>
      <point x="745" y="115"/>
      <point x="731" y="129" type="curve" smooth="yes"/>
      <point x="722" y="138"/>
      <point x="719" y="157"/>
      <point x="719" y="187" type="curve"/>
      <point x="719" y="380" type="line" smooth="yes"/>
      <point x="719" y="472"/>
      <point x="698" y="514"/>
      <point x="665" y="545" type="curve" smooth="yes"/>
      <point x="630" y="577"/>
      <point x="585" y="593"/>
      <point x="527" y="593" type="curve" smooth="yes"/>
      <point x="474" y="593"/>
      <point x="430" y="582"/>
      <point x="397" y="552" type="curve" smooth="yes"/>
      <point x="363" y="521"/>
      <point x="345" y="483"/>
      <point x="345" y="391" type="curve" smooth="yes"/>
      <point x="345" y="368" type="line" smooth="yes"/>
      <point x="345" y="310"/>
      <point x="339" y="284"/>
      <point x="321" y="266" type="curve" smooth="yes"/>
      <point x="307" y="252"/>
      <point x="287" y="244"/>
      <point x="260" y="244" type="curve" smooth="yes"/>
      <point x="217" y="244"/>
      <point x="170" y="266"/>
      <point x="170" y="350" type="curve" smooth="yes"/>
      <point x="170" y="426"/>
      <point x="228" y="467"/>
      <point x="302" y="487" type="curve"/>
      <point x="271" y="603" type="line"/>
      <point x="127" y="568"/>
      <point x="34" y="477"/>
      <point x="34" y="351" type="curve" smooth="yes"/>
      <point x="34" y="210"/>
      <point x="130" y="130"/>
      <point x="262" y="130" type="curve" smooth="yes"/>
      <point x="329" y="130"/>
      <point x="378" y="146"/>
      <point x="412" y="175" type="curve" smooth="yes"/>
      <point x="460" y="216"/>
      <point x="479" y="274"/>
      <point x="479" y="375" type="curve" smooth="yes"/>
      <point x="479" y="395" type="line" smooth="yes"/>
      <point x="479" y="443"/>
      <point x="484" y="461"/>
      <point x="499" y="472" type="curve" smooth="yes"/>
      <point x="507" y="478"/>
      <point x="517" y="482"/>
      <point x="530" y="482" type="curve" smooth="yes"/>
      <point x="545" y="482"/>
      <point x="557" y="478"/>
      <point x="565" y="470" type="curve" smooth="yes"/>
      <point x="580" y="455"/>
      <point x="584" y="430"/>
      <point x="584" y="379" type="curve" smooth="yes"/>
      <point x="584" y="177" type="line"/>
      <point x="584" y="110"/>
      <point x="595" y="77"/>
      <point x="615" y="49" type="curve" smooth="yes"/>
      <point x="637" y="18"/>
      <point x="678" y="0"/>
    </contour>
  </outline>
</glyph>
<glyph name="vagujr" format="2">
  <advance width="618"/>
  <unicode hex="0AB5"/>
  <outline>
    <contour>
      <point x="251" y="157" type="curve" smooth="yes"/>
      <point x="314" y="157"/>
      <point x="364" y="172"/>
      <point x="408" y="202" type="curve"/>
      <point x="410" y="337" type="line"/>
      <point x="362" y="292"/>
      <point x="318" y="271"/>
      <point x="258" y="271" type="curve" smooth="yes"/>
      <point x="209" y="271"/>
      <point x="169" y="292"/>
      <point x="169" y="348" type="curve" smooth="yes"/>
      <point x="169" y="399"/>
      <point x="206" y="431"/>
      <point x="277" y="431" type="curve" smooth="yes"/>
      <point x="310" y="431"/>
      <point x="330" y="429"/>
      <point x="350" y="425" type="curve"/>
      <point x="361" y="537" type="line"/>
      <point x="335" y="541"/>
      <point x="304" y="545"/>
      <point x="259" y="545" type="curve" smooth="yes"/>
      <point x="127" y="545"/>
      <point x="34" y="473"/>
      <point x="34" y="352" type="curve" smooth="yes"/>
      <point x="34" y="226"/>
      <point x="127" y="157"/>
    </contour>
    <contour>
      <point x="579" y="0" type="curve" smooth="yes"/>
      <point x="605" y="0" type="line"/>
      <point x="615" y="114" type="line"/>
      <point x="578" y="114"/>
      <point x="564" y="115"/>
      <point x="550" y="129" type="curve" smooth="yes"/>
      <point x="541" y="138"/>
      <point x="538" y="157"/>
      <point x="538" y="187" type="curve" smooth="yes"/>
      <point x="538" y="592" type="line"/>
      <point x="403" y="603" type="line"/>
      <point x="403" y="177" type="line" smooth="yes"/>
      <point x="403" y="110"/>
      <point x="413" y="77"/>
      <point x="434" y="49" type="curve" smooth="yes"/>
      <point x="457" y="18"/>
      <point x="497" y="0"/>
    </contour>
  </outline>
</glyph>
<glyph name="shagujr" format="2">
  <advance width="742"/>
  <unicode hex="0AB6"/>
  <outline>
    <contour>
      <point x="393" y="0" type="curve" smooth="yes"/>
      <point x="426" y="0" type="line"/>
      <point x="439" y="117" type="line"/>
      <point x="415" y="117" type="line" smooth="yes"/>
      <point x="340" y="117"/>
      <point x="294" y="143"/>
      <point x="223" y="231" type="curve"/>
      <point x="226" y="249" type="line"/>
      <point x="182" y="293"/>
      <point x="147" y="310"/>
      <point x="110" y="310" type="curve" smooth="yes"/>
      <point x="57" y="310"/>
      <point x="23" y="283"/>
      <point x="23" y="238" type="curve" smooth="yes"/>
      <point x="23" y="187"/>
      <point x="61" y="156"/>
      <point x="130" y="156" type="curve" smooth="yes"/>
      <point x="316" y="156"/>
      <point x="449" y="254"/>
      <point x="449" y="403" type="curve" smooth="yes"/>
      <point x="449" y="538"/>
      <point x="351" y="603"/>
      <point x="229" y="603" type="curve" smooth="yes"/>
      <point x="116" y="603"/>
      <point x="55" y="547"/>
      <point x="55" y="471" type="curve" smooth="yes"/>
      <point x="55" y="398"/>
      <point x="104" y="344"/>
      <point x="222" y="322" type="curve"/>
      <point x="261" y="412" type="line"/>
      <point x="196" y="423"/>
      <point x="179" y="444"/>
      <point x="179" y="467" type="curve" smooth="yes"/>
      <point x="179" y="488"/>
      <point x="192" y="503"/>
      <point x="228" y="503" type="curve" smooth="yes"/>
      <point x="272" y="503"/>
      <point x="317" y="474"/>
      <point x="317" y="412" type="curve" smooth="yes"/>
      <point x="317" y="328"/>
      <point x="245" y="274"/>
      <point x="156" y="265" type="curve"/>
      <point x="109" y="190" type="line"/>
      <point x="204" y="48"/>
      <point x="290" y="0"/>
    </contour>
    <contour>
      <point x="703" y="0" type="curve" smooth="yes"/>
      <point x="729" y="0" type="line"/>
      <point x="739" y="114" type="line"/>
      <point x="702" y="114"/>
      <point x="688" y="115"/>
      <point x="674" y="129" type="curve" smooth="yes"/>
      <point x="665" y="138"/>
      <point x="662" y="157"/>
      <point x="662" y="187" type="curve" smooth="yes"/>
      <point x="662" y="592" type="line"/>
      <point x="527" y="603" type="line"/>
      <point x="527" y="177" type="line" smooth="yes"/>
      <point x="527" y="110"/>
      <point x="538" y="77"/>
      <point x="558" y="49" type="curve" smooth="yes"/>
      <point x="580" y="18"/>
      <point x="621" y="0"/>
    </contour>
  </outline>
</glyph>
<glyph name="ssagujr" format="2">
  <advance width="615"/>
  <unicode hex="0AB7"/>
  <outline>
    <contour>
      <point x="265" y="158" type="curve" smooth="yes"/>
      <point x="321" y="158"/>
      <point x="367" y="172"/>
      <point x="410" y="198" type="curve"/>
      <point x="419" y="335" type="line"/>
      <point x="395" y="307"/>
      <point x="350" y="272"/>
      <point x="288" y="272" type="curve" smooth="yes"/>
      <point x="271" y="272"/>
      <point x="252" y="275"/>
      <point x="241" y="285" type="curve" smooth="yes"/>
      <point x="226" y="298"/>
      <point x="218" y="315"/>
      <point x="218" y="373" type="curve" smooth="yes"/>
      <point x="218" y="389" type="line" smooth="yes"/>
      <point x="218" y="439"/>
      <point x="213" y="468"/>
      <point x="208" y="490" type="curve"/>
      <point x="143" y="504" type="line"/>
      <point x="204" y="450"/>
      <point x="249" y="413"/>
      <point x="304" y="376" type="curve" smooth="yes"/>
      <point x="425" y="295" type="line"/>
      <point x="437" y="373" type="line"/>
      <point x="419" y="391"/>
      <point x="395" y="411"/>
      <point x="369" y="428" type="curve" smooth="yes"/>
      <point x="183" y="553" type="line" smooth="yes"/>
      <point x="123" y="593"/>
      <point x="98" y="593"/>
      <point x="33" y="593" type="curve" smooth="yes"/>
      <point x="16" y="593" type="line"/>
      <point x="6" y="479" type="line"/>
      <point x="48" y="479"/>
      <point x="61" y="478"/>
      <point x="72" y="465" type="curve" smooth="yes"/>
      <point x="80" y="456"/>
      <point x="84" y="442"/>
      <point x="84" y="410" type="curve" smooth="yes"/>
      <point x="84" y="364" type="line" smooth="yes"/>
      <point x="84" y="290"/>
      <point x="91" y="245"/>
      <point x="132" y="204" type="curve" smooth="yes"/>
      <point x="160" y="176"/>
      <point x="204" y="158"/>
    </contour>
    <contour>
      <point x="575" y="0" type="curve" smooth="yes"/>
      <point x="602" y="0" type="line"/>
      <point x="612" y="114" type="line"/>
      <point x="574" y="114"/>
      <point x="561" y="115"/>
      <point x="547" y="129" type="curve" smooth="yes"/>
      <point x="538" y="138"/>
      <point x="534" y="157"/>
      <point x="534" y="187" type="curve" smooth="yes"/>
      <point x="534" y="592" type="line"/>
      <point x="400" y="603" type="line"/>
      <point x="400" y="177" type="line" smooth="yes"/>
      <point x="400" y="110"/>
      <point x="410" y="77"/>
      <point x="430" y="49" type="curve" smooth="yes"/>
      <point x="452" y="18"/>
      <point x="493" y="0"/>
    </contour>
  </outline>
</glyph>
<glyph name="sagujr" format="2">
  <advance width="757"/>
  <unicode hex="0AB8"/>
  <outline>
    <contour>
      <point x="448" y="0" type="curve" smooth="yes"/>
      <point x="466" y="0" type="line"/>
      <point x="475" y="117" type="line"/>
      <point x="453" y="117" type="line" smooth="yes"/>
      <point x="386" y="117"/>
      <point x="320" y="127"/>
      <point x="228" y="245" type="curve"/>
      <point x="224" y="268" type="line"/>
      <point x="181" y="310"/>
      <point x="151" y="324"/>
      <point x="114" y="324" type="curve" smooth="yes"/>
      <point x="64" y="324"/>
      <point x="29" y="299"/>
      <point x="29" y="251" type="curve" smooth="yes"/>
      <point x="29" y="201"/>
      <point x="65" y="170"/>
      <point x="135" y="170" type="curve" smooth="yes"/>
      <point x="302" y="170"/>
      <point x="414" y="270"/>
      <point x="414" y="405" type="curve" smooth="yes"/>
      <point x="414" y="534"/>
      <point x="323" y="603"/>
      <point x="200" y="603" type="curve" smooth="yes"/>
      <point x="129" y="603"/>
      <point x="77" y="589"/>
      <point x="28" y="569" type="curve"/>
      <point x="65" y="463" type="line"/>
      <point x="97" y="479"/>
      <point x="139" y="489"/>
      <point x="180" y="489" type="curve" smooth="yes"/>
      <point x="235" y="489"/>
      <point x="279" y="466"/>
      <point x="279" y="404" type="curve" smooth="yes"/>
      <point x="279" y="332"/>
      <point x="211" y="291"/>
      <point x="139" y="283" type="curve"/>
      <point x="114" y="204" type="line"/>
      <point x="220" y="46"/>
      <point x="311" y="0"/>
    </contour>
    <contour>
      <point x="453" y="253" type="curve" smooth="yes"/>
      <point x="514" y="253"/>
      <point x="554" y="268"/>
      <point x="592" y="307" type="curve"/>
      <point x="574" y="429" type="line"/>
      <point x="544" y="384"/>
      <point x="506" y="365"/>
      <point x="454" y="365" type="curve" smooth="yes"/>
      <point x="405" y="365"/>
      <point x="374" y="382"/>
      <point x="346" y="410" type="curve"/>
      <point x="338" y="283" type="line"/>
      <point x="369" y="263"/>
      <point x="413" y="253"/>
    </contour>
    <contour>
      <point x="717" y="0" type="curve" smooth="yes"/>
      <point x="744" y="0" type="line"/>
      <point x="754" y="114" type="line"/>
      <point x="716" y="114"/>
      <point x="703" y="115"/>
      <point x="689" y="129" type="curve" smooth="yes"/>
      <point x="681" y="138"/>
      <point x="676" y="157"/>
      <point x="676" y="187" type="curve" smooth="yes"/>
      <point x="676" y="592" type="line"/>
      <point x="542" y="603" type="line"/>
      <point x="542" y="177" type="line" smooth="yes"/>
      <point x="542" y="110"/>
      <point x="552" y="77"/>
      <point x="573" y="49" type="curve" smooth="yes"/>
      <point x="596" y="19"/>
      <point x="635" y="0"/>
    </contour>
  </outline>
</glyph>
<glyph name="hagujr" format="2">
  <advance width="665"/>
  <unicode hex="0AB9"/>
  <outline>
    <contour>
      <point x="412" y="-9" type="curve" smooth="yes"/>
      <point x="502" y="-9"/>
      <point x="583" y="5"/>
      <point x="669" y="39" type="curve"/>
      <point x="614" y="147" type="line"/>
      <point x="553" y="116"/>
      <point x="485" y="105"/>
      <point x="414" y="105" type="curve" smooth="yes"/>
      <point x="254" y="105"/>
      <point x="172" y="179"/>
      <point x="172" y="291" type="curve" smooth="yes"/>
      <point x="172" y="342"/>
      <point x="187" y="384"/>
      <point x="204" y="421" type="curve"/>
      <point x="79" y="470" type="line"/>
      <point x="52" y="419"/>
      <point x="36" y="357"/>
      <point x="36" y="295" type="curve" smooth="yes"/>
      <point x="36" y="137"/>
      <point x="145" y="-9"/>
    </contour>
    <contour>
      <point x="447" y="157" type="curve" smooth="yes"/>
      <point x="549" y="157"/>
      <point x="619" y="207"/>
      <point x="619" y="286" type="curve" smooth="yes"/>
      <point x="619" y="356"/>
      <point x="586" y="403"/>
      <point x="469" y="440" type="curve" smooth="yes"/>
      <point x="419" y="456"/>
      <point x="410" y="463"/>
      <point x="410" y="480" type="curve" smooth="yes"/>
      <point x="410" y="497"/>
      <point x="425" y="504"/>
      <point x="458" y="504" type="curve" smooth="yes"/>
      <point x="480" y="504"/>
      <point x="515" y="501"/>
      <point x="543" y="494" type="curve"/>
      <point x="564" y="592" type="line"/>
      <point x="533" y="598"/>
      <point x="501" y="603"/>
      <point x="459" y="603" type="curve" smooth="yes"/>
      <point x="344" y="603"/>
      <point x="283" y="554"/>
      <point x="283" y="480" type="curve" smooth="yes"/>
      <point x="283" y="419"/>
      <point x="321" y="376"/>
      <point x="415" y="343" type="curve" smooth="yes"/>
      <point x="466" y="325"/>
      <point x="490" y="314"/>
      <point x="490" y="290" type="curve" smooth="yes"/>
      <point x="490" y="266"/>
      <point x="472" y="258"/>
      <point x="442" y="258" type="curve" smooth="yes"/>
      <point x="391" y="258"/>
      <point x="337" y="288"/>
      <point x="294" y="341" type="curve"/>
      <point x="205" y="280" type="line"/>
      <point x="275" y="190"/>
      <point x="360" y="157"/>
    </contour>
  </outline>
</glyph>
<glyph name="nuktagujr" format="2">
  <unicode hex="0ABC"/>
  <outline>
    <contour>
      <point x="-249" y="-209" type="curve" smooth="yes"/>
      <point x="-207" y="-209"/>
      <point x="-175" y="-177"/>
      <point x="-175" y="-134" type="curve" smooth="yes"/>
      <point x="-175" y="-92"/>
      <point x="-207" y="-60"/>
      <point x="-249" y="-60" type="curve" smooth="yes"/>
      <point x="-291" y="-60"/>
      <point x="-322" y="-92"/>
      <point x="-322" y="-134" type="curve" smooth="yes"/>
      <point x="-322" y="-177"/>
      <point x="-291" y="-209"/>
    </contour>
  </outline>
</glyph>
<glyph name="avagrahagujr" format="2">
  <advance width="502"/>
  <unicode hex="0ABD"/>
  <outline>
    <contour>
      <point x="286" y="23" type="curve" smooth="yes"/>
      <point x="401" y="23"/>
      <point x="468" y="79"/>
      <point x="468" y="170" type="curve" smooth="yes"/>
      <point x="468" y="250"/>
      <point x="432" y="297"/>
      <point x="348" y="363" type="curve" smooth="yes"/>
      <point x="273" y="422"/>
      <point x="256" y="439"/>
      <point x="256" y="459" type="curve" smooth="yes"/>
      <point x="256" y="464"/>
      <point x="258" y="469"/>
      <point x="262" y="472" type="curve" smooth="yes"/>
      <point x="267" y="476"/>
      <point x="271" y="478"/>
      <point x="300" y="478" type="curve" smooth="yes"/>
      <point x="456" y="478" type="line"/>
      <point x="456" y="592" type="line"/>
      <point x="320" y="592" type="line" smooth="yes"/>
      <point x="245" y="592"/>
      <point x="197" y="582"/>
      <point x="163" y="554" type="curve" smooth="yes"/>
      <point x="138" y="533"/>
      <point x="122" y="504"/>
      <point x="122" y="464" type="curve" smooth="yes"/>
      <point x="122" y="406"/>
      <point x="152" y="362"/>
      <point x="248" y="283" type="curve" smooth="yes"/>
      <point x="324" y="220"/>
      <point x="333" y="205"/>
      <point x="333" y="180" type="curve" smooth="yes"/>
      <point x="333" y="147"/>
      <point x="307" y="137"/>
      <point x="272" y="137" type="curve" smooth="yes"/>
      <point x="213" y="137"/>
      <point x="158" y="173"/>
      <point x="110" y="240" type="curve"/>
      <point x="5" y="178" type="line"/>
      <point x="89" y="59"/>
      <point x="188" y="23"/>
    </contour>
  </outline>
</glyph>
<glyph name="aavowelsigngujr" format="2">
  <advance width="292"/>
  <unicode hex="0ABE"/>
  <outline>
    <contour>
      <point x="252" y="0" type="curve" smooth="yes"/>
      <point x="279" y="0" type="line"/>
      <point x="289" y="114" type="line"/>
      <point x="251" y="114"/>
      <point x="238" y="115"/>
      <point x="224" y="129" type="curve" smooth="yes"/>
      <point x="215" y="138"/>
      <point x="211" y="157"/>
      <point x="211" y="187" type="curve" smooth="yes"/>
      <point x="211" y="592" type="line"/>
      <point x="77" y="603" type="line"/>
      <point x="77" y="177" type="line" smooth="yes"/>
      <point x="77" y="110"/>
      <point x="87" y="77"/>
      <point x="107" y="49" type="curve" smooth="yes"/>
      <point x="129" y="18"/>
      <point x="170" y="0"/>
    </contour>
  </outline>
</glyph>
<glyph name="iivowelsigngujr" format="2">
  <advance width="292"/>
  <unicode hex="0AC0"/>
  <outline>
    <contour>
      <point x="252" y="0" type="curve" smooth="yes"/>
      <point x="279" y="0" type="line"/>
      <point x="289" y="114" type="line"/>
      <point x="251" y="114"/>
      <point x="237" y="115"/>
      <point x="224" y="129" type="curve" smooth="yes"/>
      <point x="215" y="138"/>
      <point x="211" y="157"/>
      <point x="211" y="187" type="curve" smooth="yes"/>
      <point x="211" y="607" type="line"/>
      <point x="189" y="753"/>
      <point x="109" y="896"/>
      <point x="-46" y="896" type="curve" smooth="yes"/>
      <point x="-166" y="896"/>
      <point x="-230" y="832"/>
      <point x="-230" y="722" type="curve" smooth="yes"/>
      <point x="-230" y="700"/>
      <point x="-228" y="681"/>
      <point x="-225" y="662" type="curve"/>
      <point x="-92" y="660" type="line"/>
      <point x="-95" y="676"/>
      <point x="-96" y="693"/>
      <point x="-96" y="709" type="curve" smooth="yes"/>
      <point x="-96" y="760"/>
      <point x="-74" y="784"/>
      <point x="-37" y="784" type="curve" smooth="yes"/>
      <point x="17" y="784"/>
      <point x="59" y="714"/>
      <point x="77" y="597" type="curve"/>
      <point x="77" y="177" type="line" smooth="yes"/>
      <point x="77" y="118"/>
      <point x="84" y="81"/>
      <point x="108" y="49" type="curve" smooth="yes"/>
      <point x="131" y="19"/>
      <point x="170" y="0"/>
    </contour>
  </outline>
</glyph>
<glyph name="uvowelsigngujr" format="2">
  <unicode hex="0AC1"/>
  <outline>
    <contour>
      <point x="-169" y="-268" type="curve" smooth="yes"/>
      <point x="-54" y="-268"/>
      <point x="12" y="-206"/>
      <point x="12" y="-121" type="curve" smooth="yes"/>
      <point x="12" y="-33"/>
      <point x="-52" y="30"/>
      <point x="-160" y="30" type="curve" smooth="yes"/>
      <point x="-197" y="30"/>
      <point x="-236" y="22"/>
      <point x="-275" y="7" type="curve"/>
      <point x="-241" y="-87" type="line"/>
      <point x="-217" y="-78"/>
      <point x="-192" y="-71"/>
      <point x="-165" y="-71" type="curve" smooth="yes"/>
      <point x="-133" y="-71"/>
      <point x="-106" y="-83"/>
      <point x="-106" y="-117" type="curve" smooth="yes"/>
      <point x="-106" y="-150"/>
      <point x="-133" y="-167"/>
      <point x="-178" y="-167" type="curve" smooth="yes"/>
      <point x="-256" y="-167"/>
      <point x="-320" y="-129"/>
      <point x="-403" y="-36" type="curve"/>
      <point x="-495" y="-102" type="line"/>
      <point x="-406" y="-202"/>
      <point x="-313" y="-268"/>
    </contour>
  </outline>
</glyph>
<glyph name="uuvowelsigngujr" format="2">
  <unicode hex="0AC2"/>
  <outline>
    <contour>
      <point x="-203" y="-268" type="curve" smooth="yes"/>
      <point x="-166" y="-268"/>
      <point x="-126" y="-260"/>
      <point x="-88" y="-245" type="curve"/>
      <point x="-122" y="-150" type="line"/>
      <point x="-146" y="-160"/>
      <point x="-171" y="-167"/>
      <point x="-198" y="-167" type="curve" smooth="yes"/>
      <point x="-230" y="-167"/>
      <point x="-257" y="-155"/>
      <point x="-257" y="-121" type="curve" smooth="yes"/>
      <point x="-257" y="-87"/>
      <point x="-229" y="-71"/>
      <point x="-185" y="-71" type="curve" smooth="yes"/>
      <point x="-100" y="-71"/>
      <point x="-31" y="-132"/>
      <point x="35" y="-237" type="curve"/>
      <point x="132" y="-179" type="line"/>
      <point x="49" y="-64"/>
      <point x="-43" y="30"/>
      <point x="-193" y="30" type="curve" smooth="yes"/>
      <point x="-306" y="30"/>
      <point x="-375" y="-32"/>
      <point x="-375" y="-123" type="curve" smooth="yes"/>
      <point x="-375" y="-201"/>
      <point x="-311" y="-268"/>
    </contour>
  </outline>
</glyph>
<glyph name="rvocalicvowelsigngujr" format="2">
  <unicode hex="0AC3"/>
  <outline>
    <contour>
      <point x="43" y="-233" type="curve"/>
      <point x="4" y="-136" type="line"/>
      <point x="-43" y="-159"/>
      <point x="-73" y="-167"/>
      <point x="-105" y="-167" type="curve" smooth="yes"/>
      <point x="-146" y="-167"/>
      <point x="-168" y="-150"/>
      <point x="-168" y="-117" type="curve" smooth="yes"/>
      <point x="-168" y="-86"/>
      <point x="-146" y="-63"/>
      <point x="-81" y="-56" type="curve"/>
      <point x="-81" y="46" type="line"/>
      <point x="-211" y="38"/>
      <point x="-286" y="-21"/>
      <point x="-286" y="-119" type="curve" smooth="yes"/>
      <point x="-286" y="-208"/>
      <point x="-211" y="-268"/>
      <point x="-110" y="-268" type="curve" smooth="yes"/>
      <point x="-41" y="-268"/>
      <point x="7" y="-250"/>
    </contour>
  </outline>
</glyph>
<glyph name="rrvocalicvowelsigngujr" format="2">
  <unicode hex="0AC4"/>
  <outline>
    <contour>
      <point x="-62" y="-394" type="curve" smooth="yes"/>
      <point x="5" y="-394"/>
      <point x="52" y="-376"/>
      <point x="87" y="-359" type="curve"/>
      <point x="52" y="-269" type="line"/>
      <point x="5" y="-292"/>
      <point x="-22" y="-300"/>
      <point x="-57" y="-300" type="curve" smooth="yes"/>
      <point x="-101" y="-300"/>
      <point x="-118" y="-285"/>
      <point x="-118" y="-258" type="curve" smooth="yes"/>
      <point x="-118" y="-243"/>
      <point x="-113" y="-233"/>
      <point x="-96" y="-217" type="curve"/>
      <point x="-149" y="-231" type="line"/>
      <point x="-133" y="-235"/>
      <point x="-116" y="-238"/>
      <point x="-100" y="-238" type="curve" smooth="yes"/>
      <point x="-38" y="-238"/>
      <point x="9" y="-221"/>
      <point x="44" y="-204" type="curve"/>
      <point x="9" y="-114" type="line"/>
      <point x="-38" y="-137"/>
      <point x="-66" y="-145"/>
      <point x="-100" y="-145" type="curve" smooth="yes"/>
      <point x="-143" y="-145"/>
      <point x="-161" y="-131"/>
      <point x="-161" y="-105" type="curve" smooth="yes"/>
      <point x="-161" y="-80"/>
      <point x="-142" y="-63"/>
      <point x="-81" y="-56" type="curve"/>
      <point x="-81" y="40" type="line"/>
      <point x="-207" y="34"/>
      <point x="-278" y="-21"/>
      <point x="-278" y="-107" type="curve" smooth="yes"/>
      <point x="-278" y="-162"/>
      <point x="-242" y="-206"/>
      <point x="-184" y="-225" type="curve"/>
      <point x="-205" y="-174" type="line"/>
      <point x="-223" y="-197"/>
      <point x="-235" y="-228"/>
      <point x="-235" y="-262" type="curve" smooth="yes"/>
      <point x="-235" y="-340"/>
      <point x="-163" y="-394"/>
    </contour>
  </outline>
</glyph>
<glyph name="ecandravowelsigngujr" format="2">
  <unicode hex="0AC5"/>
  <outline>
    <contour>
      <point x="-137" y="641" type="curve" smooth="yes"/>
      <point x="-103" y="641"/>
      <point x="-74" y="646"/>
      <point x="-48" y="654" type="curve"/>
      <point x="-83" y="764" type="line"/>
      <point x="-96" y="759"/>
      <point x="-111" y="755"/>
      <point x="-138" y="755" type="curve" smooth="yes"/>
      <point x="-221" y="755"/>
      <point x="-262" y="789"/>
      <point x="-337" y="882" type="curve"/>
      <point x="-430" y="821" type="line"/>
      <point x="-346" y="715"/>
      <point x="-271" y="641"/>
    </contour>
  </outline>
</glyph>
<glyph name="evowelsigngujr" format="2">
  <unicode hex="0AC7"/>
  <outline>
    <contour>
      <point x="-212" y="641" type="curve"/>
      <point x="-90" y="641" type="line"/>
      <point x="-146" y="868"/>
      <point x="-229" y="896"/>
      <point x="-320" y="896" type="curve" smooth="yes"/>
      <point x="-359" y="896"/>
      <point x="-395" y="891"/>
      <point x="-421" y="882" type="curve"/>
      <point x="-387" y="777" type="line"/>
      <point x="-369" y="783"/>
      <point x="-348" y="785"/>
      <point x="-330" y="785" type="curve" smooth="yes"/>
      <point x="-263" y="785"/>
      <point x="-233" y="744"/>
    </contour>
  </outline>
</glyph>
<glyph name="aivowelsigngujr" format="2">
  <unicode hex="0AC8"/>
  <outline>
    <contour>
      <point x="-190" y="641" type="curve"/>
      <point x="-82" y="641" type="line"/>
      <point x="-117" y="875"/>
      <point x="-202" y="896"/>
      <point x="-287" y="896" type="curve" smooth="yes"/>
      <point x="-321" y="896"/>
      <point x="-358" y="891"/>
      <point x="-385" y="882" type="curve"/>
      <point x="-352" y="788" type="line"/>
      <point x="-337" y="792"/>
      <point x="-319" y="796"/>
      <point x="-298" y="796" type="curve" smooth="yes"/>
      <point x="-230" y="796"/>
      <point x="-212" y="750"/>
    </contour>
    <contour>
      <point x="-256" y="620" type="curve"/>
      <point x="-202" y="689" type="line"/>
      <point x="-275" y="750"/>
      <point x="-329" y="785"/>
      <point x="-422" y="785" type="curve" smooth="yes"/>
      <point x="-448" y="785"/>
      <point x="-476" y="783"/>
      <point x="-502" y="775" type="curve"/>
      <point x="-469" y="679" type="line"/>
      <point x="-456" y="683"/>
      <point x="-436" y="685"/>
      <point x="-420" y="685" type="curve" smooth="yes"/>
      <point x="-372" y="685"/>
      <point x="-331" y="673"/>
    </contour>
  </outline>
</glyph>
<glyph name="omgujr" format="2">
  <advance width="983"/>
  <unicode hex="0AD0"/>
  <outline>
    <contour>
      <point x="277" y="-10" type="curve" smooth="yes"/>
      <point x="409" y="-10"/>
      <point x="499" y="55"/>
      <point x="499" y="168" type="curve" smooth="yes"/>
      <point x="499" y="194"/>
      <point x="494" y="215"/>
      <point x="485" y="242" type="curve"/>
      <point x="445" y="215" type="line"/>
      <point x="462" y="207"/>
      <point x="484" y="202"/>
      <point x="501" y="202" type="curve" smooth="yes"/>
      <point x="581" y="202"/>
      <point x="612" y="242"/>
      <point x="658" y="313" type="curve" smooth="yes"/>
      <point x="678" y="344" type="line" smooth="yes"/>
      <point x="701" y="379"/>
      <point x="723" y="403"/>
      <point x="759" y="403" type="curve" smooth="yes"/>
      <point x="793" y="403"/>
      <point x="817" y="380"/>
      <point x="817" y="326" type="curve" smooth="yes"/>
      <point x="817" y="262"/>
      <point x="782" y="242"/>
      <point x="742" y="242" type="curve" smooth="yes"/>
      <point x="714" y="242"/>
      <point x="692" y="250"/>
      <point x="667" y="269" type="curve"/>
      <point x="593" y="184" type="line"/>
      <point x="633" y="151"/>
      <point x="688" y="130"/>
      <point x="749" y="130" type="curve" smooth="yes"/>
      <point x="885" y="130"/>
      <point x="952" y="211"/>
      <point x="952" y="326" type="curve" smooth="yes"/>
      <point x="952" y="453"/>
      <point x="869" y="517"/>
      <point x="764" y="517" type="curve" smooth="yes"/>
      <point x="662" y="517"/>
      <point x="614" y="469"/>
      <point x="567" y="403" type="curve" smooth="yes"/>
      <point x="539" y="364" type="line" smooth="yes"/>
      <point x="510" y="323"/>
      <point x="490" y="306"/>
      <point x="465" y="306" type="curve" smooth="yes"/>
      <point x="457" y="306"/>
      <point x="448" y="308"/>
      <point x="441" y="313" type="curve"/>
      <point x="438" y="316"/>
      <point x="436" y="318"/>
      <point x="433" y="320" type="curve"/>
      <point x="465" y="349"/>
      <point x="484" y="388"/>
      <point x="484" y="437" type="curve" smooth="yes"/>
      <point x="484" y="533"/>
      <point x="420" y="603"/>
      <point x="279" y="603" type="curve" smooth="yes"/>
      <point x="205" y="603"/>
      <point x="153" y="590"/>
      <point x="100" y="570" type="curve"/>
      <point x="136" y="466" type="line"/>
      <point x="178" y="481"/>
      <point x="214" y="490"/>
      <point x="263" y="490" type="curve" smooth="yes"/>
      <point x="324" y="490"/>
      <point x="350" y="470"/>
      <point x="350" y="433" type="curve" smooth="yes"/>
      <point x="350" y="378"/>
      <point x="274" y="356"/>
      <point x="181" y="351" type="curve"/>
      <point x="204" y="239" type="line"/>
      <point x="242" y="242"/>
      <point x="280" y="248"/>
      <point x="315" y="259" type="curve"/>
      <point x="342" y="236"/>
      <point x="363" y="209"/>
      <point x="363" y="174" type="curve" smooth="yes"/>
      <point x="363" y="127"/>
      <point x="331" y="104"/>
      <point x="279" y="104" type="curve" smooth="yes"/>
      <point x="215" y="104"/>
      <point x="161" y="138"/>
      <point x="110" y="207" type="curve"/>
      <point x="5" y="145" type="line"/>
      <point x="70" y="53"/>
      <point x="155" y="-10"/>
    </contour>
    <contour>
      <point x="504" y="629" type="curve" smooth="yes"/>
      <point x="611" y="629"/>
      <point x="688" y="678"/>
      <point x="739" y="797" type="curve"/>
      <point x="634" y="836" type="line"/>
      <point x="607" y="770"/>
      <point x="567" y="731"/>
      <point x="504" y="731" type="curve" smooth="yes"/>
      <point x="436" y="731"/>
      <point x="400" y="775"/>
      <point x="374" y="836" type="curve"/>
      <point x="269" y="797" type="line"/>
      <point x="319" y="678"/>
      <point x="399" y="629"/>
    </contour>
    <contour>
      <point x="504" y="766" type="curve" smooth="yes"/>
      <point x="542" y="766"/>
      <point x="571" y="795"/>
      <point x="571" y="831" type="curve" smooth="yes"/>
      <point x="571" y="867"/>
      <point x="541" y="896"/>
      <point x="504" y="896" type="curve" smooth="yes"/>
      <point x="466" y="896"/>
      <point x="437" y="867"/>
      <point x="437" y="831" type="curve" smooth="yes"/>
      <point x="437" y="795"/>
      <point x="467" y="766"/>
    </contour>
  </outline>
</glyph>
<glyph name="rrvocalicgujr" format="2">
  <advance width="973"/>
  <unicode hex="0AE0"/>
  <outline>
    <contour>
      <point x="593" y="0" type="curve" smooth="yes"/>
      <point x="620" y="0" type="line"/>
      <point x="630" y="114" type="line"/>
      <point x="592" y="114"/>
      <point x="579" y="115"/>
      <point x="565" y="129" type="curve" smooth="yes"/>
      <point x="556" y="138"/>
      <point x="552" y="157"/>
      <point x="552" y="187" type="curve" smooth="yes"/>
      <point x="552" y="592" type="line"/>
      <point x="418" y="603" type="line"/>
      <point x="418" y="177" type="line" smooth="yes"/>
      <point x="418" y="110"/>
      <point x="428" y="77"/>
      <point x="448" y="49" type="curve" smooth="yes"/>
      <point x="470" y="18"/>
      <point x="511" y="0"/>
    </contour>
    <contour>
      <point x="165" y="111" type="line"/>
      <point x="483" y="326" type="line"/>
      <point x="426" y="414" type="line"/>
      <point x="91" y="223" type="line"/>
    </contour>
    <contour>
      <point x="326" y="335" type="curve"/>
      <point x="418" y="396" type="line"/>
      <point x="322" y="516"/>
      <point x="264" y="547"/>
      <point x="169" y="547" type="curve" smooth="yes"/>
      <point x="111" y="547"/>
      <point x="63" y="532"/>
      <point x="10" y="508" type="curve"/>
      <point x="52" y="402" type="line"/>
      <point x="98" y="424"/>
      <point x="130" y="432"/>
      <point x="166" y="432" type="curve" smooth="yes"/>
      <point x="217" y="432"/>
      <point x="267" y="413"/>
    </contour>
    <contour>
      <point x="847" y="0" type="curve" smooth="yes"/>
      <point x="916" y="0"/>
      <point x="964" y="17"/>
      <point x="1000" y="35" type="curve"/>
      <point x="961" y="132" type="line"/>
      <point x="913" y="108"/>
      <point x="884" y="101"/>
      <point x="852" y="101" type="curve" smooth="yes"/>
      <point x="811" y="101"/>
      <point x="789" y="118"/>
      <point x="789" y="150" type="curve" smooth="yes"/>
      <point x="789" y="181"/>
      <point x="809" y="205"/>
      <point x="885" y="212" type="curve"/>
      <point x="802" y="296" type="line"/>
      <point x="719" y="273"/>
      <point x="671" y="226"/>
      <point x="671" y="148" type="curve" smooth="yes"/>
      <point x="671" y="60"/>
      <point x="745" y="0"/>
    </contour>
    <contour>
      <point x="885" y="212" type="line"/>
      <point x="871" y="260"/>
      <point x="857" y="300"/>
      <point x="835" y="341" type="curve"/>
      <point x="853" y="359"/>
      <point x="862" y="384"/>
      <point x="862" y="417" type="curve" smooth="yes"/>
      <point x="862" y="471"/>
      <point x="826" y="510"/>
      <point x="766" y="510" type="curve" smooth="yes"/>
      <point x="717" y="510"/>
      <point x="679" y="484"/>
      <point x="679" y="431" type="curve" smooth="yes"/>
      <point x="679" y="413"/>
      <point x="686" y="382"/>
      <point x="716" y="371" type="curve"/>
      <point x="739" y="416" type="line"/>
      <point x="715" y="409"/>
      <point x="695" y="406"/>
      <point x="672" y="406" type="curve" smooth="yes"/>
      <point x="629" y="406"/>
      <point x="579" y="428"/>
      <point x="537" y="472" type="curve"/>
      <point x="521" y="352" type="line"/>
      <point x="571" y="312"/>
      <point x="641" y="296"/>
      <point x="685" y="296" type="curve" smooth="yes"/>
      <point x="718" y="296"/>
      <point x="744" y="299"/>
      <point x="769" y="306" type="curve"/>
      <point x="710" y="343" type="line"/>
      <point x="738" y="297"/>
      <point x="755" y="254"/>
      <point x="766" y="223" type="curve"/>
    </contour>
  </outline>
</glyph>
<glyph name="llvocalicgujr" format="2">
  <advance width="752"/>
  <unicode hex="0AE1"/>
  <outline>
    <contour>
      <point x="634" y="-43" type="curve" smooth="yes"/>
      <point x="702" y="-43"/>
      <point x="749" y="-26"/>
      <point x="784" y="-8" type="curve"/>
      <point x="748" y="82" type="line"/>
      <point x="702" y="58"/>
      <point x="673" y="50"/>
      <point x="640" y="50" type="curve" smooth="yes"/>
      <point x="596" y="50"/>
      <point x="579" y="64"/>
      <point x="579" y="90" type="curve" smooth="yes"/>
      <point x="579" y="115"/>
      <point x="598" y="137"/>
      <point x="681" y="141" type="curve"/>
      <point x="704" y="188"/>
      <point x="715" y="220"/>
      <point x="715" y="279" type="curve" smooth="yes"/>
      <point x="715" y="390"/>
      <point x="638" y="454"/>
      <point x="531" y="454" type="curve" smooth="yes"/>
      <point x="400" y="454"/>
      <point x="319" y="387"/>
      <point x="284" y="253" type="curve"/>
      <point x="408" y="215" type="line"/>
      <point x="437" y="320"/>
      <point x="489" y="343"/>
      <point x="522" y="343" type="curve" smooth="yes"/>
      <point x="558" y="343"/>
      <point x="582" y="321"/>
      <point x="582" y="270" type="curve" smooth="yes"/>
      <point x="582" y="254"/>
      <point x="579" y="238"/>
      <point x="573" y="221" type="curve"/>
      <point x="500" y="199"/>
      <point x="461" y="153"/>
      <point x="461" y="88" type="curve" smooth="yes"/>
      <point x="461" y="2"/>
      <point x="548" y="-43"/>
    </contour>
    <contour>
      <point x="197" y="30" type="curve"/>
      <point x="288" y="115" type="line"/>
      <point x="213" y="179"/>
      <point x="170" y="228"/>
      <point x="170" y="280" type="curve" smooth="yes"/>
      <point x="170" y="317"/>
      <point x="195" y="342"/>
      <point x="235" y="342" type="curve" smooth="yes"/>
      <point x="287" y="342"/>
      <point x="320" y="305"/>
      <point x="357" y="264" type="curve"/>
      <point x="392" y="389" type="line"/>
      <point x="333" y="435"/>
      <point x="284" y="454"/>
      <point x="208" y="454" type="curve" smooth="yes"/>
      <point x="129" y="454"/>
      <point x="34" y="415"/>
      <point x="34" y="294" type="curve" smooth="yes"/>
      <point x="34" y="195"/>
      <point x="105" y="112"/>
    </contour>
    <contour>
      <point x="677" y="-198" type="curve" smooth="yes"/>
      <point x="745" y="-198"/>
      <point x="792" y="-181"/>
      <point x="827" y="-164" type="curve"/>
      <point x="791" y="-74" type="line"/>
      <point x="745" y="-97"/>
      <point x="717" y="-105"/>
      <point x="683" y="-105" type="curve" smooth="yes"/>
      <point x="639" y="-105"/>
      <point x="622" y="-91"/>
      <point x="622" y="-65" type="curve" smooth="yes"/>
      <point x="622" y="-52"/>
      <point x="628" y="-41"/>
      <point x="644" y="-28" type="curve"/>
      <point x="524" y="3" type="line"/>
      <point x="511" y="-18"/>
      <point x="504" y="-40"/>
      <point x="504" y="-67" type="curve" smooth="yes"/>
      <point x="504" y="-145"/>
      <point x="577" y="-198"/>
    </contour>
    <contour>
      <point x="456" y="390" type="line"/>
      <point x="590" y="390" type="line"/>
      <point x="590" y="592" type="line"/>
      <point x="456" y="603" type="line"/>
    </contour>
  </outline>
</glyph>
<glyph name="lvocalicvowelsigngujr" format="2">
  <unicode hex="0AE2"/>
  <outline>
    <contour>
      <point x="-28" y="-394" type="curve" smooth="yes"/>
      <point x="28" y="-394"/>
      <point x="66" y="-380"/>
      <point x="95" y="-367" type="curve"/>
      <point x="64" y="-288" type="line"/>
      <point x="27" y="-306"/>
      <point x="5" y="-312"/>
      <point x="-20" y="-312" type="curve" smooth="yes"/>
      <point x="-52" y="-312"/>
      <point x="-68" y="-300"/>
      <point x="-68" y="-276" type="curve" smooth="yes"/>
      <point x="-68" y="-254"/>
      <point x="-41" y="-233"/>
      <point x="23" y="-229" type="curve"/>
      <point x="37" y="-199"/>
      <point x="46" y="-170"/>
      <point x="46" y="-130" type="curve" smooth="yes"/>
      <point x="46" y="-42"/>
      <point x="-18" y="9"/>
      <point x="-106" y="9" type="curve" smooth="yes"/>
      <point x="-216" y="9"/>
      <point x="-278" y="-42"/>
      <point x="-311" y="-153" type="curve"/>
      <point x="-205" y="-182" type="line"/>
      <point x="-182" y="-102"/>
      <point x="-140" y="-84"/>
      <point x="-114" y="-84" type="curve" smooth="yes"/>
      <point x="-86" y="-84"/>
      <point x="-67" y="-101"/>
      <point x="-67" y="-140" type="curve" smooth="yes"/>
      <point x="-67" y="-158"/>
      <point x="-72" y="-181"/>
      <point x="-83" y="-197" type="curve"/>
      <point x="-18" y="-159" type="line"/>
      <point x="-115" y="-169"/>
      <point x="-168" y="-214"/>
      <point x="-168" y="-282" type="curve" smooth="yes"/>
      <point x="-168" y="-348"/>
      <point x="-109" y="-394"/>
    </contour>
    <contour>
      <point x="-381" y="-344" type="curve"/>
      <point x="-302" y="-271" type="line"/>
      <point x="-381" y="-207"/>
      <point x="-400" y="-171"/>
      <point x="-400" y="-133" type="curve" smooth="yes"/>
      <point x="-400" y="-104"/>
      <point x="-379" y="-84"/>
      <point x="-349" y="-84" type="curve" smooth="yes"/>
      <point x="-321" y="-84"/>
      <point x="-301" y="-98"/>
      <point x="-279" y="-115" type="curve"/>
      <point x="-224" y="-43" type="line"/>
      <point x="-274" y="-6"/>
      <point x="-316" y="9"/>
      <point x="-371" y="9" type="curve" smooth="yes"/>
      <point x="-432" y="9"/>
      <point x="-514" y="-22"/>
      <point x="-514" y="-127" type="curve" smooth="yes"/>
      <point x="-514" y="-196"/>
      <point x="-473" y="-260"/>
    </contour>
  </outline>
</glyph>
<glyph name="llvocalicvowelsigngujr" format="2">
  <unicode hex="0AE3"/>
  <outline>
    <contour>
      <point x="19" y="-284" type="curve" smooth="yes"/>
      <point x="51" y="-284"/>
      <point x="100" y="-273"/>
      <point x="128" y="-259" type="curve"/>
      <point x="97" y="-188" type="line"/>
      <point x="61" y="-207"/>
      <point x="38" y="-212"/>
      <point x="13" y="-212" type="curve" smooth="yes"/>
      <point x="-21" y="-212"/>
      <point x="-35" y="-202"/>
      <point x="-35" y="-181" type="curve" smooth="yes"/>
      <point x="-35" y="-163"/>
      <point x="-19" y="-146"/>
      <point x="46" y="-142" type="curve"/>
      <point x="46" y="-43"/>
      <point x="-11" y="9"/>
      <point x="-106" y="9" type="curve" smooth="yes"/>
      <point x="-215" y="9"/>
      <point x="-278" y="-42"/>
      <point x="-311" y="-153" type="curve"/>
      <point x="-205" y="-182" type="line"/>
      <point x="-182" y="-102"/>
      <point x="-140" y="-84"/>
      <point x="-114" y="-84" type="curve" smooth="yes"/>
      <point x="-85" y="-84"/>
      <point x="-74" y="-100"/>
      <point x="-60" y="-134" type="curve"/>
      <point x="-27" y="-86" type="line"/>
      <point x="-96" y="-102"/>
      <point x="-135" y="-137"/>
      <point x="-135" y="-188" type="curve" smooth="yes"/>
      <point x="-135" y="-255"/>
      <point x="-61" y="-284"/>
    </contour>
    <contour>
      <point x="-381" y="-344" type="curve"/>
      <point x="-302" y="-271" type="line"/>
      <point x="-381" y="-207"/>
      <point x="-400" y="-171"/>
      <point x="-400" y="-133" type="curve" smooth="yes"/>
      <point x="-400" y="-104"/>
      <point x="-381" y="-84"/>
      <point x="-349" y="-84" type="curve" smooth="yes"/>
      <point x="-321" y="-84"/>
      <point x="-301" y="-98"/>
      <point x="-279" y="-115" type="curve"/>
      <point x="-224" y="-43" type="line"/>
      <point x="-274" y="-6"/>
      <point x="-316" y="9"/>
      <point x="-371" y="9" type="curve" smooth="yes"/>
      <point x="-432" y="9"/>
      <point x="-514" y="-22"/>
      <point x="-514" y="-128" type="curve" smooth="yes"/>
      <point x="-514" y="-196"/>
      <point x="-473" y="-260"/>
    </contour>
    <contour>
      <point x="56" y="-394" type="curve" smooth="yes"/>
      <point x="111" y="-394"/>
      <point x="149" y="-381"/>
      <point x="178" y="-369" type="curve"/>
      <point x="147" y="-298" type="line"/>
      <point x="111" y="-316"/>
      <point x="88" y="-322"/>
      <point x="63" y="-322" type="curve" smooth="yes"/>
      <point x="30" y="-322"/>
      <point x="15" y="-312"/>
      <point x="15" y="-291" type="curve" smooth="yes"/>
      <point x="15" y="-283"/>
      <point x="16" y="-276"/>
      <point x="18" y="-268" type="curve"/>
      <point x="-71" y="-251" type="line"/>
      <point x="-80" y="-266"/>
      <point x="-85" y="-280"/>
      <point x="-85" y="-297" type="curve" smooth="yes"/>
      <point x="-85" y="-354"/>
      <point x="-26" y="-394"/>
    </contour>
  </outline>
</glyph>
<glyph name="zerogujr" format="2">
  <advance width="570"/>
  <unicode hex="0AE6"/>
  <outline>
    <contour>
      <point x="286" y="83" type="curve" smooth="yes"/>
      <point x="420" y="83"/>
      <point x="522" y="167"/>
      <point x="522" y="305" type="curve" smooth="yes"/>
      <point x="522" y="443"/>
      <point x="427" y="527"/>
      <point x="285" y="527" type="curve" smooth="yes"/>
      <point x="146" y="527"/>
      <point x="48" y="438"/>
      <point x="48" y="306" type="curve" smooth="yes"/>
      <point x="48" y="168"/>
      <point x="145" y="83"/>
    </contour>
    <contour>
      <point x="283" y="198" type="curve" smooth="yes"/>
      <point x="223" y="198"/>
      <point x="184" y="238"/>
      <point x="184" y="304" type="curve" smooth="yes"/>
      <point x="184" y="373"/>
      <point x="226" y="413"/>
      <point x="287" y="413" type="curve" smooth="yes"/>
      <point x="347" y="413"/>
      <point x="386" y="375"/>
      <point x="386" y="308" type="curve" smooth="yes"/>
      <point x="386" y="240"/>
      <point x="344" y="198"/>
    </contour>
  </outline>
</glyph>
<glyph name="onegujr" format="2">
  <advance width="570"/>
  <unicode hex="0AE7"/>
  <outline>
    <contour>
      <point x="500" y="0" type="curve" smooth="yes"/>
      <point x="527" y="0" type="line"/>
      <point x="537" y="114" type="line"/>
      <point x="500" y="114"/>
      <point x="486" y="115"/>
      <point x="472" y="129" type="curve" smooth="yes"/>
      <point x="463" y="138"/>
      <point x="459" y="157"/>
      <point x="459" y="187" type="curve" smooth="yes"/>
      <point x="459" y="385" type="line" smooth="yes"/>
      <point x="459" y="486"/>
      <point x="435" y="536"/>
      <point x="391" y="567" type="curve" smooth="yes"/>
      <point x="360" y="589"/>
      <point x="319" y="603"/>
      <point x="262" y="603" type="curve" smooth="yes"/>
      <point x="135" y="603"/>
      <point x="65" y="524"/>
      <point x="65" y="433" type="curve" smooth="yes"/>
      <point x="65" y="328"/>
      <point x="133" y="259"/>
      <point x="257" y="259" type="curve" smooth="yes"/>
      <point x="310" y="259"/>
      <point x="348" y="272"/>
      <point x="392" y="294" type="curve"/>
      <point x="375" y="418" type="line"/>
      <point x="350" y="390"/>
      <point x="318" y="369"/>
      <point x="262" y="369" type="curve" smooth="yes"/>
      <point x="226" y="369"/>
      <point x="195" y="389"/>
      <point x="195" y="432" type="curve" smooth="yes"/>
      <point x="195" y="470"/>
      <point x="220" y="492"/>
      <point x="259" y="492" type="curve" smooth="yes"/>
      <point x="281" y="492"/>
      <point x="294" y="485"/>
      <point x="304" y="476" type="curve" smooth="yes"/>
      <point x="321" y="460"/>
      <point x="325" y="431"/>
      <point x="325" y="390" type="curve" smooth="yes"/>
      <point x="325" y="177" type="line" smooth="yes"/>
      <point x="325" y="110"/>
      <point x="335" y="77"/>
      <point x="356" y="49" type="curve" smooth="yes"/>
      <point x="379" y="19"/>
      <point x="418" y="0"/>
    </contour>
  </outline>
</glyph>
<glyph name="twogujr" format="2">
  <advance width="570"/>
  <unicode hex="0AE8"/>
  <outline>
    <contour>
      <point x="444" y="0" type="curve" smooth="yes"/>
      <point x="488" y="0"/>
      <point x="531" y="11"/>
      <point x="562" y="26" type="curve"/>
      <point x="520" y="133" type="line"/>
      <point x="497" y="120"/>
      <point x="470" y="114"/>
      <point x="446" y="114" type="curve" smooth="yes"/>
      <point x="408" y="114"/>
      <point x="367" y="124"/>
      <point x="295" y="245" type="curve"/>
      <point x="269" y="268" type="line"/>
      <point x="226" y="310"/>
      <point x="196" y="324"/>
      <point x="159" y="324" type="curve" smooth="yes"/>
      <point x="108" y="324"/>
      <point x="74" y="299"/>
      <point x="74" y="251" type="curve" smooth="yes"/>
      <point x="74" y="201"/>
      <point x="110" y="170"/>
      <point x="180" y="170" type="curve" smooth="yes"/>
      <point x="355" y="170"/>
      <point x="476" y="270"/>
      <point x="476" y="405" type="curve" smooth="yes"/>
      <point x="476" y="534"/>
      <point x="379" y="603"/>
      <point x="249" y="603" type="curve" smooth="yes"/>
      <point x="180" y="603"/>
      <point x="121" y="589"/>
      <point x="73" y="569" type="curve"/>
      <point x="110" y="463" type="line"/>
      <point x="144" y="479"/>
      <point x="185" y="489"/>
      <point x="233" y="489" type="curve" smooth="yes"/>
      <point x="292" y="489"/>
      <point x="339" y="466"/>
      <point x="339" y="404" type="curve" smooth="yes"/>
      <point x="339" y="334"/>
      <point x="264" y="291"/>
      <point x="184" y="283" type="curve"/>
      <point x="184" y="206" type="line"/>
      <point x="270" y="32"/>
      <point x="346" y="0"/>
    </contour>
  </outline>
</glyph>
<glyph name="threegujr" format="2">
  <advance width="570"/>
  <unicode hex="0AE9"/>
  <outline>
    <contour>
      <point x="290" y="-10" type="curve" smooth="yes"/>
      <point x="421" y="-10"/>
      <point x="512" y="55"/>
      <point x="512" y="168" type="curve" smooth="yes"/>
      <point x="512" y="243"/>
      <point x="474" y="302"/>
      <point x="394" y="354" type="curve"/>
      <point x="293" y="302" type="line"/>
      <point x="293" y="284" type="line"/>
      <point x="334" y="257"/>
      <point x="376" y="223"/>
      <point x="376" y="174" type="curve" smooth="yes"/>
      <point x="376" y="127"/>
      <point x="344" y="104"/>
      <point x="292" y="104" type="curve" smooth="yes"/>
      <point x="228" y="104"/>
      <point x="173" y="138"/>
      <point x="123" y="207" type="curve"/>
      <point x="18" y="145" type="line"/>
      <point x="83" y="53"/>
      <point x="168" y="-10"/>
    </contour>
    <contour>
      <point x="217" y="239" type="line"/>
      <point x="358" y="251"/>
      <point x="497" y="305"/>
      <point x="497" y="437" type="curve" smooth="yes"/>
      <point x="497" y="533"/>
      <point x="433" y="603"/>
      <point x="292" y="603" type="curve" smooth="yes"/>
      <point x="218" y="603"/>
      <point x="166" y="590"/>
      <point x="112" y="570" type="curve"/>
      <point x="148" y="466" type="line"/>
      <point x="190" y="481"/>
      <point x="227" y="490"/>
      <point x="275" y="490" type="curve" smooth="yes"/>
      <point x="337" y="490"/>
      <point x="362" y="470"/>
      <point x="362" y="433" type="curve" smooth="yes"/>
      <point x="362" y="378"/>
      <point x="287" y="356"/>
      <point x="193" y="351" type="curve"/>
    </contour>
  </outline>
</glyph>
<glyph name="fourgujr" format="2">
  <advance width="570"/>
  <unicode hex="0AEA"/>
  <outline>
    <contour>
      <point x="277" y="-10" type="curve" smooth="yes"/>
      <point x="404" y="-10"/>
      <point x="462" y="64"/>
      <point x="462" y="156" type="curve" smooth="yes"/>
      <point x="462" y="221"/>
      <point x="444" y="278"/>
      <point x="371" y="355" type="curve"/>
      <point x="421" y="400"/>
      <point x="478" y="447"/>
      <point x="556" y="509" type="curve"/>
      <point x="467" y="603" type="line"/>
      <point x="393" y="540"/>
      <point x="334" y="486"/>
      <point x="286" y="439" type="curve"/>
      <point x="231" y="492"/>
      <point x="170" y="544"/>
      <point x="99" y="603" type="curve"/>
      <point x="16" y="509" type="line"/>
      <point x="76" y="464"/>
      <point x="143" y="408"/>
      <point x="201" y="354" type="curve"/>
      <point x="110" y="263"/>
      <point x="91" y="215"/>
      <point x="91" y="154" type="curve" smooth="yes"/>
      <point x="91" y="65"/>
      <point x="151" y="-10"/>
    </contour>
    <contour>
      <point x="276" y="101" type="curve" smooth="yes"/>
      <point x="242" y="101"/>
      <point x="222" y="125"/>
      <point x="222" y="164" type="curve" smooth="yes"/>
      <point x="222" y="202"/>
      <point x="240" y="232"/>
      <point x="282" y="274" type="curve"/>
      <point x="320" y="229"/>
      <point x="332" y="200"/>
      <point x="332" y="161" type="curve" smooth="yes"/>
      <point x="332" y="127"/>
      <point x="313" y="101"/>
    </contour>
  </outline>
</glyph>
<glyph name="fivegujr" format="2">
  <advance width="570"/>
  <unicode hex="0AEB"/>
  <outline>
    <contour>
      <point x="248" y="157" type="curve" smooth="yes"/>
      <point x="299" y="157"/>
      <point x="341" y="171"/>
      <point x="380" y="196" type="curve"/>
      <point x="380" y="334" type="line"/>
      <point x="358" y="306"/>
      <point x="320" y="271"/>
      <point x="273" y="271" type="curve" smooth="yes"/>
      <point x="256" y="271"/>
      <point x="240" y="273"/>
      <point x="229" y="283" type="curve" smooth="yes"/>
      <point x="216" y="295"/>
      <point x="209" y="311"/>
      <point x="209" y="363" type="curve" smooth="yes"/>
      <point x="209" y="415" type="line" smooth="yes"/>
      <point x="209" y="482"/>
      <point x="199" y="514"/>
      <point x="179" y="542" type="curve" smooth="yes"/>
      <point x="156" y="574"/>
      <point x="116" y="592"/>
      <point x="34" y="592" type="curve" smooth="yes"/>
      <point x="20" y="592" type="line"/>
      <point x="10" y="478" type="line"/>
      <point x="33" y="478"/>
      <point x="48" y="477"/>
      <point x="63" y="462" type="curve" smooth="yes"/>
      <point x="71" y="454"/>
      <point x="75" y="435"/>
      <point x="75" y="405" type="curve" smooth="yes"/>
      <point x="75" y="353" type="line" smooth="yes"/>
      <point x="75" y="270"/>
      <point x="90" y="232"/>
      <point x="121" y="201" type="curve" smooth="yes"/>
      <point x="148" y="174"/>
      <point x="190" y="157"/>
    </contour>
    <contour>
      <point x="532" y="0" type="curve" smooth="yes"/>
      <point x="551" y="0" type="line"/>
      <point x="561" y="114" type="line"/>
      <point x="535" y="114"/>
      <point x="518" y="115"/>
      <point x="504" y="129" type="curve" smooth="yes"/>
      <point x="495" y="138"/>
      <point x="491" y="157"/>
      <point x="491" y="187" type="curve" smooth="yes"/>
      <point x="491" y="592" type="line"/>
      <point x="357" y="603" type="line"/>
      <point x="357" y="171" type="line" smooth="yes"/>
      <point x="357" y="104"/>
      <point x="367" y="77"/>
      <point x="388" y="49" type="curve" smooth="yes"/>
      <point x="411" y="19"/>
      <point x="450" y="0"/>
    </contour>
  </outline>
</glyph>
<glyph name="sixgujr" format="2">
  <advance width="570"/>
  <unicode hex="0AEC"/>
  <outline>
    <contour>
      <point x="457" y="-183" type="line"/>
      <point x="501" y="-137"/>
      <point x="529" y="-96"/>
      <point x="529" y="-42" type="curve" smooth="yes"/>
      <point x="529" y="21"/>
      <point x="495" y="77"/>
      <point x="363" y="120" type="curve" smooth="yes"/>
      <point x="289" y="144"/>
      <point x="252" y="171"/>
      <point x="252" y="211" type="curve" smooth="yes"/>
      <point x="252" y="251"/>
      <point x="280" y="276"/>
      <point x="356" y="276" type="curve" smooth="yes"/>
      <point x="385" y="276"/>
      <point x="409" y="273"/>
      <point x="432" y="270" type="curve"/>
      <point x="452" y="381" type="line"/>
      <point x="427" y="386"/>
      <point x="393" y="390"/>
      <point x="358" y="390" type="curve" smooth="yes"/>
      <point x="215" y="390"/>
      <point x="117" y="310"/>
      <point x="117" y="211" type="curve" smooth="yes"/>
      <point x="117" y="112"/>
      <point x="179" y="60"/>
      <point x="274" y="21" type="curve" smooth="yes"/>
      <point x="375" y="-21"/>
      <point x="387" y="-31"/>
      <point x="387" y="-57" type="curve" smooth="yes"/>
      <point x="387" y="-75"/>
      <point x="370" y="-95"/>
      <point x="356" y="-109" type="curve"/>
    </contour>
    <contour>
      <point x="192" y="271" type="curve"/>
      <point x="299" y="342" type="line"/>
      <point x="242" y="367"/>
      <point x="216" y="398"/>
      <point x="216" y="434" type="curve" smooth="yes"/>
      <point x="216" y="469"/>
      <point x="242" y="489"/>
      <point x="308" y="489" type="curve" smooth="yes"/>
      <point x="340" y="489"/>
      <point x="375" y="484"/>
      <point x="403" y="479" type="curve"/>
      <point x="425" y="588" type="line"/>
      <point x="399" y="594"/>
      <point x="344" y="603"/>
      <point x="287" y="603" type="curve" smooth="yes"/>
      <point x="148" y="603"/>
      <point x="81" y="537"/>
      <point x="81" y="446" type="curve" smooth="yes"/>
      <point x="81" y="377"/>
      <point x="124" y="321"/>
    </contour>
  </outline>
</glyph>
<glyph name="sevengujr" format="2">
  <advance width="570"/>
  <unicode hex="0AED"/>
  <outline>
    <contour>
      <point x="303" y="-9" type="curve" smooth="yes"/>
      <point x="439" y="-9"/>
      <point x="530" y="71"/>
      <point x="530" y="284" type="curve" smooth="yes"/>
      <point x="530" y="494"/>
      <point x="428" y="603"/>
      <point x="291" y="603" type="curve" smooth="yes"/>
      <point x="163" y="603"/>
      <point x="106" y="530"/>
      <point x="106" y="447" type="curve" smooth="yes"/>
      <point x="106" y="318"/>
      <point x="211" y="257"/>
      <point x="372" y="253" type="curve"/>
      <point x="372" y="366" type="line"/>
      <point x="296" y="371"/>
      <point x="239" y="386"/>
      <point x="239" y="438" type="curve" smooth="yes"/>
      <point x="239" y="471"/>
      <point x="259" y="490"/>
      <point x="296" y="490" type="curve" smooth="yes"/>
      <point x="362" y="490"/>
      <point x="394" y="401"/>
      <point x="394" y="296" type="curve" smooth="yes"/>
      <point x="394" y="166"/>
      <point x="368" y="104"/>
      <point x="290" y="104" type="curve" smooth="yes"/>
      <point x="212" y="104"/>
      <point x="175" y="162"/>
      <point x="150" y="281" type="curve"/>
      <point x="19" y="263" type="line"/>
      <point x="65" y="58"/>
      <point x="159" y="-9"/>
    </contour>
  </outline>
</glyph>
<glyph name="eightgujr" format="2">
  <advance width="570"/>
  <unicode hex="0AEE"/>
  <outline>
    <contour>
      <point x="272" y="-10" type="curve" smooth="yes"/>
      <point x="380" y="-10"/>
      <point x="442" y="17"/>
      <point x="516" y="54" type="curve"/>
      <point x="463" y="159" type="line"/>
      <point x="404" y="127"/>
      <point x="349" y="104"/>
      <point x="285" y="104" type="curve" smooth="yes"/>
      <point x="228" y="104"/>
      <point x="191" y="128"/>
      <point x="191" y="174" type="curve" smooth="yes"/>
      <point x="191" y="212"/>
      <point x="209" y="234"/>
      <point x="265" y="285" type="curve" smooth="yes"/>
      <point x="502" y="501" type="line"/>
      <point x="403" y="604" type="line"/>
      <point x="161" y="378" type="line" smooth="yes"/>
      <point x="84" y="306"/>
      <point x="55" y="245"/>
      <point x="55" y="178" type="curve" smooth="yes"/>
      <point x="55" y="51"/>
      <point x="154" y="-10"/>
    </contour>
  </outline>
</glyph>
<glyph name="ninegujr" format="2">
  <advance width="570"/>
  <unicode hex="0AEF"/>
  <outline>
    <contour>
      <point x="357" y="-10" type="curve" smooth="yes"/>
      <point x="438" y="-10"/>
      <point x="501" y="6"/>
      <point x="548" y="23" type="curve"/>
      <point x="502" y="131" type="line"/>
      <point x="464" y="116"/>
      <point x="423" y="104"/>
      <point x="361" y="104" type="curve" smooth="yes"/>
      <point x="268" y="104"/>
      <point x="190" y="154"/>
      <point x="190" y="271" type="curve" smooth="yes"/>
      <point x="190" y="378"/>
      <point x="248" y="440"/>
      <point x="406" y="487" type="curve"/>
      <point x="372" y="603" type="line"/>
      <point x="175" y="557"/>
      <point x="52" y="443"/>
      <point x="52" y="275" type="curve" smooth="yes"/>
      <point x="52" y="105"/>
      <point x="164" y="-10"/>
    </contour>
    <contour>
      <point x="283" y="202" type="line"/>
      <point x="527" y="265" type="line"/>
      <point x="494" y="384" type="line"/>
      <point x="249" y="324" type="line"/>
    </contour>
  </outline>
</glyph>
<glyph name="uni0AF0" format="2">
  <advance width="396"/>
  <unicode hex="0AF0"/>
  <outline>
    <contour>
      <point x="198" y="184" type="curve" smooth="yes"/>
      <point x="292" y="184"/>
      <point x="361" y="246"/>
      <point x="361" y="338" type="curve" smooth="yes"/>
      <point x="361" y="430"/>
      <point x="292" y="492"/>
      <point x="198" y="492" type="curve" smooth="yes"/>
      <point x="104" y="492"/>
      <point x="35" y="430"/>
      <point x="35" y="338" type="curve" smooth="yes"/>
      <point x="35" y="246"/>
      <point x="104" y="184"/>
    </contour>
    <contour>
      <point x="198" y="274" type="curve" smooth="yes"/>
      <point x="157" y="274"/>
      <point x="131" y="301"/>
      <point x="131" y="338" type="curve" smooth="yes"/>
      <point x="131" y="375"/>
      <point x="157" y="402"/>
      <point x="198" y="402" type="curve" smooth="yes"/>
      <point x="239" y="402"/>
      <point x="265" y="375"/>
      <point x="265" y="338" type="curve" smooth="yes"/>
      <point x="265" y="301"/>
      <point x="239" y="274"/>
    </contour>
  </outline>
</glyph>
<glyph name="uni0AFA" format="2">
  <unicode hex="0AFA"/>
  <outline>
    <contour>
      <point x="-196" y="609" type="line"/>
      <point x="-106" y="637"/>
      <point x="-48" y="676"/>
      <point x="-48" y="769" type="curve" smooth="yes"/>
      <point x="-48" y="841"/>
      <point x="-102" y="896"/>
      <point x="-215" y="896" type="curve" smooth="yes"/>
      <point x="-262" y="896"/>
      <point x="-302" y="887"/>
      <point x="-340" y="873" type="curve"/>
      <point x="-312" y="778" type="line"/>
      <point x="-281" y="791"/>
      <point x="-258" y="796"/>
      <point x="-231" y="796" type="curve" smooth="yes"/>
      <point x="-196" y="796"/>
      <point x="-176" y="780"/>
      <point x="-176" y="755" type="curve" smooth="yes"/>
      <point x="-176" y="726"/>
      <point x="-201" y="710"/>
      <point x="-244" y="695" type="curve"/>
    </contour>
  </outline>
</glyph>
<glyph name="uni0AFB" format="2">
  <unicode hex="0AFB"/>
  <outline>
    <contour>
      <point x="-171" y="833" type="curve"/>
      <point x="-246" y="833" type="line"/>
      <point x="-248" y="778"/>
      <point x="-261" y="756"/>
      <point x="-291" y="756" type="curve" smooth="yes"/>
      <point x="-317" y="756"/>
      <point x="-333" y="767"/>
      <point x="-336" y="835" type="curve"/>
      <point x="-423" y="832" type="line"/>
      <point x="-417" y="709"/>
      <point x="-371" y="669"/>
      <point x="-300" y="669" type="curve" smooth="yes"/>
      <point x="-218" y="669"/>
      <point x="-193" y="720"/>
    </contour>
    <contour>
      <point x="-168" y="833" type="curve"/>
      <point x="-243" y="833" type="line"/>
      <point x="-222" y="720"/>
      <point x="-197" y="669"/>
      <point x="-114" y="669" type="curve" smooth="yes"/>
      <point x="-44" y="669"/>
      <point x="3" y="709"/>
      <point x="7" y="832" type="curve"/>
      <point x="-78" y="835" type="line"/>
      <point x="-82" y="767"/>
      <point x="-97" y="756"/>
      <point x="-123" y="756" type="curve" smooth="yes"/>
      <point x="-153" y="756"/>
      <point x="-166" y="778"/>
    </contour>
  </outline>
</glyph>
<glyph name="uni0AFC" format="2">
  <unicode hex="0AFC"/>
  <outline>
    <contour>
      <point x="-34" y="870" type="line"/>
      <point x="-128" y="800"/>
      <point x="-158" y="784"/>
      <point x="-225" y="784" type="curve" smooth="yes"/>
      <point x="-267" y="784"/>
      <point x="-297" y="800"/>
      <point x="-322" y="823" type="curve"/>
      <point x="-376" y="761" type="line"/>
      <point x="-344" y="735"/>
      <point x="-297" y="718"/>
      <point x="-246" y="718" type="curve"/>
      <point x="-242" y="718"/>
      <point x="-238" y="718"/>
      <point x="-234" y="719" type="curve"/>
      <point x="-241" y="723" type="line"/>
      <point x="-263" y="716"/>
      <point x="-279" y="713"/>
      <point x="-309" y="713" type="curve" smooth="yes"/>
      <point x="-356" y="713"/>
      <point x="-394" y="727"/>
      <point x="-431" y="751" type="curve"/>
      <point x="-480" y="675" type="line"/>
      <point x="-438" y="650"/>
      <point x="-381" y="635"/>
      <point x="-318" y="635" type="curve" smooth="yes"/>
      <point x="-216" y="635"/>
      <point x="-145" y="663"/>
      <point x="28" y="791" type="curve"/>
    </contour>
  </outline>
</glyph>
<glyph name="uni0AFD" format="2">
  <unicode hex="0AFD"/>
  <outline>
    <contour>
      <point x="-254" y="771" type="curve" smooth="yes"/>
      <point x="-221" y="771"/>
      <point x="-194" y="796"/>
      <point x="-194" y="832" type="curve" smooth="yes"/>
      <point x="-194" y="869"/>
      <point x="-221" y="895"/>
      <point x="-254" y="895" type="curve" smooth="yes"/>
      <point x="-287" y="895"/>
      <point x="-314" y="869"/>
      <point x="-314" y="832" type="curve" smooth="yes"/>
      <point x="-314" y="796"/>
      <point x="-287" y="771"/>
    </contour>
    <contour>
      <point x="-332" y="644" type="curve" smooth="yes"/>
      <point x="-299" y="644"/>
      <point x="-273" y="672"/>
      <point x="-273" y="707" type="curve" smooth="yes"/>
      <point x="-273" y="741"/>
      <point x="-298" y="768"/>
      <point x="-332" y="768" type="curve" smooth="yes"/>
      <point x="-367" y="768"/>
      <point x="-392" y="741"/>
      <point x="-392" y="707" type="curve" smooth="yes"/>
      <point x="-392" y="672"/>
      <point x="-367" y="644"/>
    </contour>
    <contour>
      <point x="-177" y="644" type="curve" smooth="yes"/>
      <point x="-143" y="644"/>
      <point x="-118" y="672"/>
      <point x="-118" y="707" type="curve" smooth="yes"/>
      <point x="-118" y="741"/>
      <point x="-143" y="768"/>
      <point x="-177" y="768" type="curve" smooth="yes"/>
      <point x="-211" y="768"/>
      <point x="-237" y="741"/>
      <point x="-237" y="707" type="curve" smooth="yes"/>
      <point x="-237" y="672"/>
      <point x="-211" y="644"/>
    </contour>
  </outline>
</glyph>
<glyph name="uni0AFE" format="2">
  <unicode hex="0AFE"/>
  <outline>
    <contour>
      <point x="-372" y="763" type="curve" smooth="yes"/>
      <point x="-372" y="696"/>
      <point x="-323" y="653"/>
      <point x="-254" y="653" type="curve" smooth="yes"/>
      <point x="-185" y="653"/>
      <point x="-137" y="695"/>
      <point x="-137" y="763" type="curve" smooth="yes"/>
      <point x="-137" y="832"/>
      <point x="-185" y="873"/>
      <point x="-255" y="873" type="curve" smooth="yes"/>
      <point x="-324" y="873"/>
      <point x="-372" y="831"/>
    </contour>
    <contour>
      <point x="-301" y="762" type="curve" smooth="yes"/>
      <point x="-301" y="793"/>
      <point x="-281" y="811"/>
      <point x="-254" y="811" type="curve" smooth="yes"/>
      <point x="-226" y="811"/>
      <point x="-208" y="793"/>
      <point x="-208" y="764" type="curve" smooth="yes"/>
      <point x="-208" y="733"/>
      <point x="-227" y="715"/>
      <point x="-255" y="715" type="curve" smooth="yes"/>
      <point x="-283" y="715"/>
      <point x="-301" y="732"/>
    </contour>
  </outline>
</glyph>
<glyph name="uni0AFF" format="2">
  <unicode hex="0AFF"/>
  <outline>
    <contour>
      <point x="-485" y="763" type="curve" smooth="yes"/>
      <point x="-485" y="696"/>
      <point x="-439" y="653"/>
      <point x="-374" y="653" type="curve" smooth="yes"/>
      <point x="-309" y="653"/>
      <point x="-264" y="695"/>
      <point x="-264" y="763" type="curve" smooth="yes"/>
      <point x="-264" y="832"/>
      <point x="-309" y="873"/>
      <point x="-375" y="873" type="curve" smooth="yes"/>
      <point x="-440" y="873"/>
      <point x="-485" y="831"/>
    </contour>
    <contour>
      <point x="-416" y="762" type="curve" smooth="yes"/>
      <point x="-416" y="793"/>
      <point x="-400" y="811"/>
      <point x="-374" y="811" type="curve" smooth="yes"/>
      <point x="-347" y="811"/>
      <point x="-333" y="793"/>
      <point x="-333" y="764" type="curve" smooth="yes"/>
      <point x="-333" y="733"/>
      <point x="-348" y="715"/>
      <point x="-375" y="715" type="curve" smooth="yes"/>
      <point x="-402" y="715"/>
      <point x="-416" y="732"/>
    </contour>
    <contour>
      <point x="-245" y="763" type="curve" smooth="yes"/>
      <point x="-245" y="696"/>
      <point x="-199" y="653"/>
      <point x="-134" y="653" type="curve" smooth="yes"/>
      <point x="-69" y="653"/>
      <point x="-24" y="695"/>
      <point x="-24" y="763" type="curve" smooth="yes"/>
      <point x="-24" y="832"/>
      <point x="-69" y="873"/>
      <point x="-135" y="873" type="curve" smooth="yes"/>
      <point x="-200" y="873"/>
      <point x="-245" y="831"/>
    </contour>
    <contour>
      <point x="-176" y="762" type="curve" smooth="yes"/>
      <point x="-176" y="793"/>
      <point x="-160" y="811"/>
      <point x="-134" y="811" type="curve" smooth="yes"/>
      <point x="-107" y="811"/>
      <point x="-93" y="793"/>
      <point x="-93" y="764" type="curve" smooth="yes"/>
      <point x="-93" y="733"/>
      <point x="-108" y="715"/>
      <point x="-135" y="715" type="curve" smooth="yes"/>
      <point x="-162" y="715"/>
      <point x="-176" y="732"/>
    </contour>
  </outline>
</glyph>
<glyph name="quoteleft.gujr" format="2">
  <advance width="335"/>
  <unicode hex="2018"/>
  <outline>
    <contour>
      <point x="85" y="484" type="line"/>
      <point x="222" y="484" type="line"/>
      <point x="232" y="553"/>
      <point x="252" y="651"/>
      <point x="271" y="729" type="curve"/>
      <point x="164" y="729" type="line"/>
      <point x="131" y="656"/>
      <point x="96" y="566"/>
      <point x="78" y="495" type="curve"/>
    </contour>
  </outline>
</glyph>
<glyph name="uni20B9.gujr" format="2">
  <advance width="570"/>
  <unicode hex="20B9"/>
  <outline>
    <contour>
      <point x="516" y="521" type="line"/>
      <point x="516" y="622" type="line"/>
      <point x="61" y="622" type="line"/>
      <point x="61" y="521" type="line"/>
      <point x="119" y="521" type="line" smooth="yes"/>
      <point x="172" y="521"/>
      <point x="197" y="515"/>
      <point x="215" y="497" type="curve" smooth="yes"/>
      <point x="232" y="480"/>
      <point x="243" y="457"/>
      <point x="243" y="417" type="curve" smooth="yes"/>
      <point x="243" y="381"/>
      <point x="234" y="353"/>
      <point x="216" y="335" type="curve" smooth="yes"/>
      <point x="196" y="315"/>
      <point x="165" y="308"/>
      <point x="105" y="308" type="curve" smooth="yes"/>
      <point x="79" y="308" type="line"/>
      <point x="61" y="212" type="line"/>
      <point x="241" y="0" type="line"/>
      <point x="406" y="0" type="line"/>
      <point x="195" y="237" type="line"/>
      <point x="195" y="217" type="line"/>
      <point x="309" y="238"/>
      <point x="374" y="307"/>
      <point x="374" y="408" type="curve" smooth="yes"/>
      <point x="374" y="455"/>
      <point x="354" y="500"/>
      <point x="327" y="521" type="curve"/>
    </contour>
    <contour>
      <point x="61" y="469" type="line"/>
      <point x="61" y="368" type="line"/>
      <point x="516" y="368" type="line"/>
      <point x="516" y="469" type="line"/>
    </contour>
  </outline>
</glyph>
<glyph name="minus.gujr" format="2">
  <advance width="570"/>
  <unicode hex="2212"/>
  <outline>
    <contour>
      <point x="53" y="270" type="line"/>
      <point x="518" y="270" type="line"/>
      <point x="518" y="377" type="line"/>
      <point x="53" y="377" type="line"/>
    </contour>
  </outline>
</glyph>
<glyph name="uniA836" format="2">
  <advance width="476"/>
  <unicode hex="A836"/>
  <outline>
    <contour>
      <point x="238" y="151" type="curve" smooth="yes"/>
      <point x="340" y="151"/>
      <point x="417" y="220"/>
      <point x="417" y="321" type="curve" smooth="yes"/>
      <point x="417" y="422"/>
      <point x="340" y="489"/>
      <point x="238" y="489" type="curve" smooth="yes"/>
      <point x="130" y="489"/>
      <point x="59" y="417"/>
      <point x="59" y="321" type="curve" smooth="yes"/>
      <point x="59" y="215"/>
      <point x="139" y="151"/>
    </contour>
    <contour>
      <point x="238" y="250" type="curve" smooth="yes"/>
      <point x="196" y="250"/>
      <point x="164" y="278"/>
      <point x="164" y="321" type="curve" smooth="yes"/>
      <point x="164" y="359"/>
      <point x="192" y="391"/>
      <point x="238" y="391" type="curve" smooth="yes"/>
      <point x="281" y="391"/>
      <point x="312" y="361"/>
      <point x="312" y="321" type="curve" smooth="yes"/>
      <point x="312" y="279"/>
      <point x="281" y="250"/>
    </contour>
  </outline>
</glyph>
<glyph name="uniA838" format="2">
  <advance width="343"/>
  <unicode hex="A838"/>
  <outline>
    <contour>
      <point x="-139" y="-104" type="curve"/>
      <point x="-147" y="-216" type="line"/>
      <point x="-117" y="-222"/>
      <point x="-78" y="-227"/>
      <point x="-48" y="-227" type="curve" smooth="yes"/>
      <point x="242" y="-227"/>
      <point x="290" y="-43"/>
      <point x="290" y="177" type="curve" smooth="yes"/>
      <point x="290" y="322"/>
      <point x="261" y="509"/>
      <point x="225" y="633" type="curve"/>
      <point x="90" y="615" type="line"/>
      <point x="121" y="505"/>
      <point x="154" y="335"/>
      <point x="154" y="180" type="curve" smooth="yes"/>
      <point x="154" y="-9"/>
      <point x="108" y="-115"/>
      <point x="-51" y="-115" type="curve" smooth="yes"/>
      <point x="-82" y="-115"/>
      <point x="-109" y="-111"/>
    </contour>
  </outline>
</glyph>
<glyph name="uniA839" format="2">
  <advance width="357"/>
  <unicode hex="A839"/>
  <outline>
    <contour>
      <point x="-143" y="-133" type="curve"/>
      <point x="-147" y="-247" type="line"/>
      <point x="-134" y="-248"/>
      <point x="-106" y="-250"/>
      <point x="-83" y="-250" type="curve" smooth="yes"/>
      <point x="222" y="-250"/>
      <point x="300" y="-99"/>
      <point x="300" y="31" type="curve" smooth="yes"/>
      <point x="300" y="204"/>
      <point x="188" y="313"/>
      <point x="188" y="406" type="curve" smooth="yes"/>
      <point x="188" y="463"/>
      <point x="248" y="495"/>
      <point x="357" y="518" type="curve"/>
      <point x="316" y="632" type="line"/>
      <point x="164" y="601"/>
      <point x="53" y="536"/>
      <point x="53" y="408" type="curve" smooth="yes"/>
      <point x="53" y="270"/>
      <point x="164" y="174"/>
      <point x="164" y="36" type="curve" smooth="yes"/>
      <point x="164" y="-54"/>
      <point x="101" y="-136"/>
      <point x="-92" y="-136" type="curve" smooth="yes"/>
      <point x="-114" y="-136"/>
      <point x="-130" y="-135"/>
    </contour>
  </outline>
</glyph>
<glyph name="aivowelsignanusvaragujr" format="2">
  <outline>
    <contour>
      <point x="-198" y="641" type="curve"/>
      <point x="-90" y="641" type="line"/>
      <point x="-125" y="875"/>
      <point x="-210" y="896"/>
      <point x="-295" y="896" type="curve" smooth="yes"/>
      <point x="-329" y="896"/>
      <point x="-366" y="891"/>
      <point x="-393" y="882" type="curve"/>
      <point x="-360" y="788" type="line"/>
      <point x="-345" y="792"/>
      <point x="-327" y="796"/>
      <point x="-306" y="796" type="curve" smooth="yes"/>
      <point x="-238" y="796"/>
      <point x="-220" y="750"/>
    </contour>
    <contour>
      <point x="-264" y="620" type="curve"/>
      <point x="-210" y="689" type="line"/>
      <point x="-283" y="750"/>
      <point x="-337" y="785"/>
      <point x="-430" y="785" type="curve" smooth="yes"/>
      <point x="-456" y="785"/>
      <point x="-484" y="783"/>
      <point x="-510" y="775" type="curve"/>
      <point x="-477" y="679" type="line"/>
      <point x="-464" y="683"/>
      <point x="-444" y="685"/>
      <point x="-428" y="685" type="curve" smooth="yes"/>
      <point x="-380" y="685"/>
      <point x="-339" y="673"/>
    </contour>
    <contour>
      <point x="-42" y="739" type="curve" smooth="yes"/>
      <point x="-2" y="739"/>
      <point x="27" y="769"/>
      <point x="27" y="810" type="curve" smooth="yes"/>
      <point x="27" y="850"/>
      <point x="-2" y="880"/>
      <point x="-42" y="880" type="curve" smooth="yes"/>
      <point x="-83" y="880"/>
      <point x="-112" y="850"/>
      <point x="-112" y="810" type="curve" smooth="yes"/>
      <point x="-112" y="769"/>
      <point x="-83" y="739"/>
    </contour>
  </outline>
</glyph>
<glyph name="aivowelsignrephanusvaragujr" format="2">
  <outline>
    <contour>
      <point x="-206" y="641" type="curve"/>
      <point x="-98" y="641" type="line"/>
      <point x="-108" y="709"/>
      <point x="-123" y="760"/>
      <point x="-140" y="796" type="curve"/>
      <point x="-180" y="826" type="line"/>
      <point x="-208" y="883"/>
      <point x="-241" y="896"/>
      <point x="-304" y="896" type="curve" smooth="yes"/>
      <point x="-337" y="896"/>
      <point x="-375" y="891"/>
      <point x="-401" y="882" type="curve"/>
      <point x="-368" y="788" type="line"/>
      <point x="-354" y="792"/>
      <point x="-335" y="796"/>
      <point x="-314" y="796" type="curve" smooth="yes"/>
      <point x="-246" y="796"/>
      <point x="-228" y="750"/>
    </contour>
    <contour>
      <point x="-272" y="620" type="curve"/>
      <point x="-218" y="689" type="line"/>
      <point x="-291" y="750"/>
      <point x="-345" y="785"/>
      <point x="-438" y="785" type="curve" smooth="yes"/>
      <point x="-464" y="785"/>
      <point x="-492" y="783"/>
      <point x="-518" y="775" type="curve"/>
      <point x="-485" y="679" type="line"/>
      <point x="-472" y="683"/>
      <point x="-452" y="685"/>
      <point x="-436" y="685" type="curve" smooth="yes"/>
      <point x="-388" y="685"/>
      <point x="-347" y="673"/>
    </contour>
    <contour>
      <point x="-26" y="648" type="curve" smooth="yes"/>
      <point x="3" y="648"/>
      <point x="27" y="671"/>
      <point x="27" y="701" type="curve" smooth="yes"/>
      <point x="27" y="730"/>
      <point x="3" y="753"/>
      <point x="-26" y="753" type="curve" smooth="yes"/>
      <point x="-54" y="753"/>
      <point x="-78" y="730"/>
      <point x="-78" y="701" type="curve" smooth="yes"/>
      <point x="-78" y="671"/>
      <point x="-54" y="648"/>
    </contour>
    <contour>
      <point x="-110" y="690" type="line"/>
      <point x="-113" y="701"/>
      <point x="-115" y="713"/>
      <point x="-115" y="726" type="curve" smooth="yes"/>
      <point x="-115" y="768"/>
      <point x="-93" y="796"/>
      <point x="-41" y="796" type="curve" smooth="yes"/>
      <point x="-23" y="796"/>
      <point x="-2" y="794"/>
      <point x="23" y="786" type="curve"/>
      <point x="47" y="881" type="line"/>
      <point x="18" y="890"/>
      <point x="-24" y="896"/>
      <point x="-62" y="896" type="curve" smooth="yes"/>
      <point x="-149" y="896"/>
      <point x="-192" y="851"/>
      <point x="-201" y="778" type="curve"/>
    </contour>
  </outline>
</glyph>
<glyph name="aivowelsignrephgujr" format="2">
  <outline>
    <contour>
      <point x="-206" y="641" type="curve"/>
      <point x="-98" y="641" type="line"/>
      <point x="-108" y="709"/>
      <point x="-123" y="760"/>
      <point x="-140" y="796" type="curve"/>
      <point x="-180" y="826" type="line"/>
      <point x="-208" y="883"/>
      <point x="-241" y="896"/>
      <point x="-304" y="896" type="curve" smooth="yes"/>
      <point x="-337" y="896"/>
      <point x="-375" y="891"/>
      <point x="-401" y="882" type="curve"/>
      <point x="-368" y="788" type="line"/>
      <point x="-354" y="792"/>
      <point x="-335" y="796"/>
      <point x="-314" y="796" type="curve" smooth="yes"/>
      <point x="-246" y="796"/>
      <point x="-228" y="750"/>
    </contour>
    <contour>
      <point x="-272" y="620" type="curve"/>
      <point x="-218" y="689" type="line"/>
      <point x="-291" y="750"/>
      <point x="-345" y="785"/>
      <point x="-438" y="785" type="curve" smooth="yes"/>
      <point x="-464" y="785"/>
      <point x="-492" y="783"/>
      <point x="-518" y="775" type="curve"/>
      <point x="-485" y="679" type="line"/>
      <point x="-472" y="683"/>
      <point x="-452" y="685"/>
      <point x="-436" y="685" type="curve" smooth="yes"/>
      <point x="-388" y="685"/>
      <point x="-347" y="673"/>
    </contour>
    <contour>
      <point x="-110" y="690" type="line"/>
      <point x="-113" y="701"/>
      <point x="-115" y="713"/>
      <point x="-115" y="726" type="curve" smooth="yes"/>
      <point x="-115" y="768"/>
      <point x="-93" y="796"/>
      <point x="-41" y="796" type="curve" smooth="yes"/>
      <point x="-23" y="796"/>
      <point x="-2" y="794"/>
      <point x="23" y="786" type="curve"/>
      <point x="47" y="881" type="line"/>
      <point x="18" y="890"/>
      <point x="-24" y="896"/>
      <point x="-62" y="896" type="curve" smooth="yes"/>
      <point x="-149" y="896"/>
      <point x="-192" y="851"/>
      <point x="-201" y="778" type="curve"/>
    </contour>
  </outline>
</glyph>
<glyph name="badagujr" format="2">
  <advance width="1033"/>
  <outline>
    <contour>
      <point x="257" y="149" type="curve" smooth="yes"/>
      <point x="411" y="149"/>
      <point x="475" y="225"/>
      <point x="475" y="373" type="curve" smooth="yes"/>
      <point x="475" y="441" type="line"/>
      <point x="341" y="452" type="line"/>
      <point x="341" y="381" type="line" smooth="yes"/>
      <point x="341" y="322"/>
      <point x="334" y="299"/>
      <point x="318" y="283" type="curve" smooth="yes"/>
      <point x="305" y="270"/>
      <point x="286" y="263"/>
      <point x="259" y="263" type="curve" smooth="yes"/>
      <point x="212" y="263"/>
      <point x="170" y="283"/>
      <point x="170" y="358" type="curve" smooth="yes"/>
      <point x="170" y="430"/>
      <point x="228" y="469"/>
      <point x="302" y="487" type="curve"/>
      <point x="271" y="603" type="line"/>
      <point x="127" y="570"/>
      <point x="34" y="483"/>
      <point x="34" y="357" type="curve" smooth="yes"/>
      <point x="34" y="228"/>
      <point x="125" y="149"/>
    </contour>
    <contour>
      <point x="528" y="217" type="curve" smooth="yes"/>
      <point x="553" y="217"/>
      <point x="578" y="221"/>
      <point x="594" y="228" type="curve"/>
      <point x="576" y="341" type="line"/>
      <point x="555" y="332"/>
      <point x="541" y="330"/>
      <point x="523" y="330" type="curve" smooth="yes"/>
      <point x="495" y="330"/>
      <point x="474" y="341"/>
      <point x="469" y="368" type="curve"/>
      <point x="411" y="272" type="line"/>
      <point x="441" y="227"/>
      <point x="479" y="217"/>
    </contour>
    <contour>
      <point x="840" y="-10" type="curve" smooth="yes"/>
      <point x="968" y="-10"/>
      <point x="1036" y="38"/>
      <point x="1036" y="110" type="curve" smooth="yes"/>
      <point x="1036" y="149"/>
      <point x="1010" y="187"/>
      <point x="958" y="187" type="curve" smooth="yes"/>
      <point x="915" y="187"/>
      <point x="881" y="163"/>
      <point x="881" y="114" type="curve" smooth="yes"/>
      <point x="881" y="91"/>
      <point x="887" y="76"/>
      <point x="898" y="55" type="curve"/>
      <point x="926" y="117" type="line"/>
      <point x="907" y="109"/>
      <point x="880" y="101"/>
      <point x="839" y="101" type="curve" smooth="yes"/>
      <point x="773" y="101"/>
      <point x="733" y="133"/>
      <point x="733" y="180" type="curve" smooth="yes"/>
      <point x="733" y="234"/>
      <point x="772" y="261"/>
      <point x="841" y="261" type="curve" smooth="yes"/>
      <point x="860" y="261"/>
      <point x="885" y="258"/>
      <point x="904" y="255" type="curve"/>
      <point x="925" y="366" type="line"/>
      <point x="901" y="371"/>
      <point x="865" y="374"/>
      <point x="848" y="374" type="curve" smooth="yes"/>
      <point x="686" y="374"/>
      <point x="597" y="294"/>
      <point x="597" y="178" type="curve" smooth="yes"/>
      <point x="597" y="76"/>
      <point x="672" y="-10"/>
    </contour>
    <contour>
      <point x="673" y="271" type="curve"/>
      <point x="779" y="342" type="line"/>
      <point x="723" y="367"/>
      <point x="697" y="398"/>
      <point x="697" y="434" type="curve" smooth="yes"/>
      <point x="697" y="469"/>
      <point x="722" y="489"/>
      <point x="782" y="489" type="curve" smooth="yes"/>
      <point x="806" y="489"/>
      <point x="837" y="485"/>
      <point x="862" y="480" type="curve"/>
      <point x="884" y="589" type="line"/>
      <point x="859" y="595"/>
      <point x="808" y="603"/>
      <point x="760" y="603" type="curve" smooth="yes"/>
      <point x="628" y="603"/>
      <point x="561" y="541"/>
      <point x="561" y="446" type="curve" smooth="yes"/>
      <point x="561" y="377"/>
      <point x="601" y="321"/>
    </contour>
  </outline>
</glyph>
<glyph name="baprehalfgujr" format="2">
  <advance width="583"/>
  <outline>
    <contour>
      <point x="257" y="149" type="curve" smooth="yes"/>
      <point x="411" y="149"/>
      <point x="475" y="225"/>
      <point x="475" y="373" type="curve" smooth="yes"/>
      <point x="475" y="441" type="line"/>
      <point x="341" y="452" type="line"/>
      <point x="341" y="381" type="line" smooth="yes"/>
      <point x="341" y="322"/>
      <point x="334" y="299"/>
      <point x="318" y="283" type="curve" smooth="yes"/>
      <point x="305" y="270"/>
      <point x="286" y="263"/>
      <point x="259" y="263" type="curve" smooth="yes"/>
      <point x="212" y="263"/>
      <point x="170" y="283"/>
      <point x="170" y="358" type="curve" smooth="yes"/>
      <point x="170" y="430"/>
      <point x="228" y="469"/>
      <point x="302" y="487" type="curve"/>
      <point x="271" y="603" type="line"/>
      <point x="127" y="570"/>
      <point x="34" y="483"/>
      <point x="34" y="357" type="curve" smooth="yes"/>
      <point x="34" y="228"/>
      <point x="125" y="149"/>
    </contour>
    <contour>
      <point x="515" y="222" type="curve" smooth="yes"/>
      <point x="553" y="222"/>
      <point x="577" y="228"/>
      <point x="607" y="249" type="curve"/>
      <point x="566" y="351" type="line"/>
      <point x="552" y="340"/>
      <point x="534" y="335"/>
      <point x="516" y="335" type="curve" smooth="yes"/>
      <point x="492" y="335"/>
      <point x="475" y="347"/>
      <point x="469" y="373" type="curve"/>
      <point x="411" y="277" type="line"/>
      <point x="441" y="232"/>
      <point x="479" y="222"/>
    </contour>
  </outline>
</glyph>
<glyph name="baragujr" format="2">
  <advance width="797"/>
  <outline>
    <contour>
      <point x="257" y="149" type="curve" smooth="yes"/>
      <point x="411" y="149"/>
      <point x="475" y="225"/>
      <point x="475" y="373" type="curve" smooth="yes"/>
      <point x="475" y="441" type="line"/>
      <point x="341" y="452" type="line"/>
      <point x="341" y="381" type="line" smooth="yes"/>
      <point x="341" y="322"/>
      <point x="334" y="299"/>
      <point x="318" y="283" type="curve" smooth="yes"/>
      <point x="305" y="270"/>
      <point x="286" y="263"/>
      <point x="259" y="263" type="curve" smooth="yes"/>
      <point x="212" y="263"/>
      <point x="170" y="283"/>
      <point x="170" y="358" type="curve" smooth="yes"/>
      <point x="170" y="430"/>
      <point x="228" y="469"/>
      <point x="302" y="487" type="curve"/>
      <point x="271" y="603" type="line"/>
      <point x="127" y="570"/>
      <point x="34" y="483"/>
      <point x="34" y="357" type="curve" smooth="yes"/>
      <point x="34" y="228"/>
      <point x="125" y="149"/>
    </contour>
    <contour>
      <point x="385" y="-17" type="line"/>
      <point x="653" y="143" type="line"/>
      <point x="611" y="234" type="line"/>
      <point x="582" y="219" type="line"/>
      <point x="317" y="87" type="line"/>
    </contour>
    <contour>
      <point x="515" y="258" type="curve" smooth="yes"/>
      <point x="574" y="258"/>
      <point x="604" y="285"/>
      <point x="625" y="309" type="curve"/>
      <point x="609" y="431" type="line"/>
      <point x="588" y="403"/>
      <point x="562" y="371"/>
      <point x="516" y="371" type="curve" smooth="yes"/>
      <point x="492" y="371"/>
      <point x="475" y="383"/>
      <point x="469" y="409" type="curve"/>
      <point x="411" y="313" type="line"/>
      <point x="441" y="268"/>
      <point x="479" y="258"/>
    </contour>
    <contour>
      <point x="757" y="0" type="curve" smooth="yes"/>
      <point x="784" y="0" type="line"/>
      <point x="793" y="114" type="line"/>
      <point x="756" y="114"/>
      <point x="742" y="115"/>
      <point x="729" y="129" type="curve" smooth="yes"/>
      <point x="720" y="138"/>
      <point x="716" y="157"/>
      <point x="716" y="187" type="curve" smooth="yes"/>
      <point x="716" y="592" type="line"/>
      <point x="582" y="603" type="line"/>
      <point x="582" y="177" type="line" smooth="yes"/>
      <point x="582" y="134"/>
      <point x="582" y="89"/>
      <point x="611" y="51" type="curve" smooth="yes"/>
      <point x="638" y="15"/>
      <point x="682" y="0"/>
    </contour>
  </outline>
</glyph>
<glyph name="baraprehalfgujr" format="2">
  <advance width="583"/>
  <outline>
    <contour>
      <point x="257" y="149" type="curve" smooth="yes"/>
      <point x="411" y="149"/>
      <point x="475" y="225"/>
      <point x="475" y="373" type="curve" smooth="yes"/>
      <point x="475" y="441" type="line"/>
      <point x="341" y="452" type="line"/>
      <point x="341" y="381" type="line" smooth="yes"/>
      <point x="341" y="322"/>
      <point x="334" y="299"/>
      <point x="318" y="283" type="curve" smooth="yes"/>
      <point x="305" y="270"/>
      <point x="286" y="263"/>
      <point x="259" y="263" type="curve" smooth="yes"/>
      <point x="212" y="263"/>
      <point x="170" y="283"/>
      <point x="170" y="358" type="curve" smooth="yes"/>
      <point x="170" y="430"/>
      <point x="228" y="469"/>
      <point x="302" y="487" type="curve"/>
      <point x="271" y="603" type="line"/>
      <point x="127" y="570"/>
      <point x="34" y="483"/>
      <point x="34" y="357" type="curve" smooth="yes"/>
      <point x="34" y="228"/>
      <point x="125" y="149"/>
    </contour>
    <contour>
      <point x="385" y="-17" type="line"/>
      <point x="582" y="96" type="line"/>
      <point x="582" y="219" type="line"/>
      <point x="317" y="87" type="line"/>
    </contour>
    <contour>
      <point x="515" y="249" type="curve" smooth="yes"/>
      <point x="557" y="249"/>
      <point x="582" y="259"/>
      <point x="607" y="276" type="curve"/>
      <point x="566" y="378" type="line"/>
      <point x="554" y="369"/>
      <point x="538" y="362"/>
      <point x="516" y="362" type="curve" smooth="yes"/>
      <point x="492" y="362"/>
      <point x="475" y="374"/>
      <point x="469" y="400" type="curve"/>
      <point x="411" y="304" type="line"/>
      <point x="441" y="259"/>
      <point x="479" y="249"/>
    </contour>
  </outline>
</glyph>
<glyph name="barastemgujr" format="2">
  <advance width="797"/>
  <outline>
    <contour>
      <point x="257" y="149" type="curve" smooth="yes"/>
      <point x="411" y="149"/>
      <point x="475" y="225"/>
      <point x="475" y="373" type="curve" smooth="yes"/>
      <point x="475" y="441" type="line"/>
      <point x="341" y="452" type="line"/>
      <point x="341" y="381" type="line" smooth="yes"/>
      <point x="341" y="322"/>
      <point x="334" y="299"/>
      <point x="318" y="283" type="curve" smooth="yes"/>
      <point x="305" y="270"/>
      <point x="286" y="263"/>
      <point x="259" y="263" type="curve" smooth="yes"/>
      <point x="212" y="263"/>
      <point x="170" y="283"/>
      <point x="170" y="358" type="curve" smooth="yes"/>
      <point x="170" y="430"/>
      <point x="228" y="469"/>
      <point x="302" y="487" type="curve"/>
      <point x="271" y="603" type="line"/>
      <point x="127" y="570"/>
      <point x="34" y="483"/>
      <point x="34" y="357" type="curve" smooth="yes"/>
      <point x="34" y="228"/>
      <point x="125" y="149"/>
    </contour>
    <contour>
      <point x="385" y="-17" type="line"/>
      <point x="653" y="143" type="line"/>
      <point x="611" y="234" type="line"/>
      <point x="582" y="219" type="line"/>
      <point x="317" y="87" type="line"/>
    </contour>
    <contour>
      <point x="515" y="258" type="curve" smooth="yes"/>
      <point x="574" y="258"/>
      <point x="604" y="285"/>
      <point x="625" y="309" type="curve"/>
      <point x="609" y="431" type="line"/>
      <point x="588" y="403"/>
      <point x="562" y="371"/>
      <point x="516" y="371" type="curve" smooth="yes"/>
      <point x="492" y="371"/>
      <point x="475" y="383"/>
      <point x="469" y="409" type="curve"/>
      <point x="411" y="313" type="line"/>
      <point x="441" y="268"/>
      <point x="479" y="258"/>
    </contour>
    <contour>
      <point x="582" y="-45" type="line"/>
      <point x="716" y="-45" type="line"/>
      <point x="716" y="592" type="line"/>
      <point x="582" y="603" type="line"/>
    </contour>
  </outline>
</glyph>
<glyph name="bastemgujr" format="2">
  <advance width="796"/>
  <outline>
    <contour>
      <point x="257" y="149" type="curve" smooth="yes"/>
      <point x="411" y="149"/>
      <point x="475" y="225"/>
      <point x="475" y="373" type="curve" smooth="yes"/>
      <point x="475" y="441" type="line"/>
      <point x="341" y="452" type="line"/>
      <point x="341" y="381" type="line" smooth="yes"/>
      <point x="341" y="322"/>
      <point x="334" y="299"/>
      <point x="318" y="283" type="curve" smooth="yes"/>
      <point x="305" y="270"/>
      <point x="286" y="263"/>
      <point x="259" y="263" type="curve" smooth="yes"/>
      <point x="212" y="263"/>
      <point x="170" y="283"/>
      <point x="170" y="358" type="curve" smooth="yes"/>
      <point x="170" y="430"/>
      <point x="228" y="469"/>
      <point x="302" y="487" type="curve"/>
      <point x="271" y="603" type="line"/>
      <point x="127" y="570"/>
      <point x="34" y="483"/>
      <point x="34" y="357" type="curve" smooth="yes"/>
      <point x="34" y="228"/>
      <point x="125" y="149"/>
    </contour>
    <contour>
      <point x="515" y="222" type="curve" smooth="yes"/>
      <point x="574" y="222"/>
      <point x="604" y="249"/>
      <point x="625" y="273" type="curve"/>
      <point x="609" y="395" type="line"/>
      <point x="588" y="367"/>
      <point x="562" y="335"/>
      <point x="516" y="335" type="curve" smooth="yes"/>
      <point x="492" y="335"/>
      <point x="475" y="347"/>
      <point x="469" y="373" type="curve"/>
      <point x="411" y="277" type="line"/>
      <point x="441" y="232"/>
      <point x="479" y="222"/>
    </contour>
    <contour>
      <point x="582" y="-45" type="line"/>
      <point x="716" y="-45" type="line"/>
      <point x="716" y="592" type="line"/>
      <point x="582" y="603" type="line"/>
    </contour>
  </outline>
</glyph>
<glyph name="bhastemgujr" format="2">
  <advance width="860"/>
  <outline>
    <contour>
      <point x="212" y="49" type="curve"/>
      <point x="303" y="134" type="line"/>
      <point x="214" y="209"/>
      <point x="170" y="277"/>
      <point x="170" y="369" type="curve" smooth="yes"/>
      <point x="170" y="431"/>
      <point x="203" y="489"/>
      <point x="279" y="489" type="curve" smooth="yes"/>
      <point x="309" y="489"/>
      <point x="329" y="480"/>
      <point x="343" y="464" type="curve" smooth="yes"/>
      <point x="358" y="447"/>
      <point x="367" y="415"/>
      <point x="367" y="369" type="curve" smooth="yes"/>
      <point x="367" y="339" type="line"/>
      <point x="501" y="339" type="line"/>
      <point x="501" y="364" type="line" smooth="yes"/>
      <point x="501" y="468"/>
      <point x="477" y="513"/>
      <point x="434" y="552" type="curve" smooth="yes"/>
      <point x="398" y="585"/>
      <point x="344" y="603"/>
      <point x="274" y="603" type="curve" smooth="yes"/>
      <point x="127" y="603"/>
      <point x="34" y="505"/>
      <point x="34" y="375" type="curve" smooth="yes"/>
      <point x="34" y="241"/>
      <point x="103" y="140"/>
    </contour>
    <contour>
      <point x="431" y="165" type="curve" smooth="yes"/>
      <point x="476" y="165"/>
      <point x="501" y="187"/>
      <point x="501" y="244" type="curve" smooth="yes"/>
      <point x="501" y="263" type="line"/>
      <point x="661" y="263" type="line"/>
      <point x="661" y="376" type="line"/>
      <point x="357" y="376" type="line" smooth="yes"/>
      <point x="301" y="376"/>
      <point x="287" y="348"/>
      <point x="287" y="313" type="curve" smooth="yes"/>
      <point x="287" y="250"/>
      <point x="375" y="165"/>
    </contour>
    <contour>
      <point x="645" y="-45" type="line"/>
      <point x="779" y="-45" type="line"/>
      <point x="779" y="592" type="line"/>
      <point x="645" y="603" type="line"/>
    </contour>
  </outline>
</glyph>
<glyph name="caprehalfgujr" format="2">
  <advance width="481"/>
  <outline>
    <contour>
      <point x="346" y="112" type="curve" smooth="yes"/>
      <point x="428" y="112"/>
      <point x="485" y="136"/>
      <point x="525" y="168" type="curve"/>
      <point x="471" y="272" type="line"/>
      <point x="437" y="244"/>
      <point x="400" y="225"/>
      <point x="346" y="225" type="curve" smooth="yes"/>
      <point x="295" y="225"/>
      <point x="241" y="236"/>
      <point x="206" y="277" type="curve"/>
      <point x="219" y="316" type="line"/>
      <point x="184" y="357"/>
      <point x="149" y="372"/>
      <point x="107" y="372" type="curve" smooth="yes"/>
      <point x="57" y="372"/>
      <point x="26" y="342"/>
      <point x="26" y="301" type="curve" smooth="yes"/>
      <point x="26" y="250"/>
      <point x="63" y="218"/>
      <point x="126" y="218" type="curve" smooth="yes"/>
      <point x="274" y="218"/>
      <point x="380" y="297"/>
      <point x="380" y="423" type="curve" smooth="yes"/>
      <point x="380" y="532"/>
      <point x="303" y="603"/>
      <point x="170" y="603" type="curve" smooth="yes"/>
      <point x="120" y="603"/>
      <point x="70" y="591"/>
      <point x="24" y="572" type="curve"/>
      <point x="62" y="472" type="line"/>
      <point x="97" y="486"/>
      <point x="130" y="492"/>
      <point x="160" y="492" type="curve" smooth="yes"/>
      <point x="216" y="492"/>
      <point x="250" y="467"/>
      <point x="250" y="423" type="curve" smooth="yes"/>
      <point x="250" y="364"/>
      <point x="204" y="338"/>
      <point x="134" y="328" type="curve"/>
      <point x="122" y="320" type="line"/>
      <point x="104" y="243" type="line"/>
      <point x="171" y="145"/>
      <point x="253" y="112"/>
    </contour>
  </outline>
</glyph>
<glyph name="caraprehalfgujr" format="2">
  <advance width="481"/>
  <outline>
    <contour>
      <point x="334" y="124" type="curve" smooth="yes"/>
      <point x="429" y="124"/>
      <point x="481" y="150"/>
      <point x="518" y="178" type="curve"/>
      <point x="472" y="272" type="line"/>
      <point x="435" y="244"/>
      <point x="399" y="225"/>
      <point x="346" y="225" type="curve" smooth="yes"/>
      <point x="295" y="225"/>
      <point x="241" y="236"/>
      <point x="206" y="277" type="curve"/>
      <point x="219" y="316" type="line"/>
      <point x="184" y="357"/>
      <point x="149" y="372"/>
      <point x="107" y="372" type="curve" smooth="yes"/>
      <point x="57" y="372"/>
      <point x="26" y="342"/>
      <point x="26" y="301" type="curve" smooth="yes"/>
      <point x="26" y="250"/>
      <point x="61" y="218"/>
      <point x="126" y="218" type="curve" smooth="yes"/>
      <point x="274" y="218"/>
      <point x="380" y="297"/>
      <point x="380" y="422" type="curve" smooth="yes"/>
      <point x="380" y="533"/>
      <point x="304" y="603"/>
      <point x="170" y="603" type="curve" smooth="yes"/>
      <point x="120" y="603"/>
      <point x="70" y="591"/>
      <point x="24" y="572" type="curve"/>
      <point x="62" y="472" type="line"/>
      <point x="97" y="486"/>
      <point x="130" y="492"/>
      <point x="160" y="492" type="curve" smooth="yes"/>
      <point x="216" y="492"/>
      <point x="250" y="468"/>
      <point x="250" y="423" type="curve" smooth="yes"/>
      <point x="250" y="365"/>
      <point x="204" y="338"/>
      <point x="134" y="328" type="curve"/>
      <point x="122" y="315" type="line"/>
      <point x="104" y="243" type="line"/>
      <point x="171" y="145"/>
      <point x="252" y="124"/>
    </contour>
    <contour>
      <point x="197" y="-45" type="line"/>
      <point x="523" y="173" type="line"/>
      <point x="472" y="272" type="line"/>
      <point x="440" y="214" type="line"/>
      <point x="371" y="182" type="line"/>
      <point x="119" y="53" type="line"/>
    </contour>
  </outline>
</glyph>
<glyph name="carastemgujr" format="2">
  <advance width="708"/>
  <outline>
    <contour>
      <point x="335" y="124" type="curve" smooth="yes"/>
      <point x="430" y="124"/>
      <point x="481" y="146"/>
      <point x="518" y="174" type="curve"/>
      <point x="498" y="299" type="line"/>
      <point x="457" y="253"/>
      <point x="408" y="225"/>
      <point x="346" y="225" type="curve" smooth="yes"/>
      <point x="295" y="225"/>
      <point x="241" y="236"/>
      <point x="206" y="277" type="curve"/>
      <point x="219" y="316" type="line"/>
      <point x="184" y="357"/>
      <point x="149" y="372"/>
      <point x="107" y="372" type="curve" smooth="yes"/>
      <point x="57" y="372"/>
      <point x="26" y="343"/>
      <point x="26" y="301" type="curve" smooth="yes"/>
      <point x="26" y="250"/>
      <point x="63" y="218"/>
      <point x="126" y="218" type="curve" smooth="yes"/>
      <point x="274" y="218"/>
      <point x="380" y="302"/>
      <point x="380" y="422" type="curve" smooth="yes"/>
      <point x="380" y="533"/>
      <point x="304" y="603"/>
      <point x="170" y="603" type="curve" smooth="yes"/>
      <point x="120" y="603"/>
      <point x="70" y="591"/>
      <point x="24" y="572" type="curve"/>
      <point x="62" y="472" type="line"/>
      <point x="97" y="486"/>
      <point x="130" y="492"/>
      <point x="160" y="492" type="curve" smooth="yes"/>
      <point x="216" y="492"/>
      <point x="250" y="468"/>
      <point x="250" y="423" type="curve" smooth="yes"/>
      <point x="250" y="365"/>
      <point x="204" y="338"/>
      <point x="134" y="328" type="curve"/>
      <point x="122" y="315" type="line"/>
      <point x="104" y="243" type="line"/>
      <point x="171" y="145"/>
      <point x="248" y="124"/>
    </contour>
    <contour>
      <point x="197" y="-45" type="line"/>
      <point x="512" y="169" type="line"/>
      <point x="418" y="200" type="line"/>
      <point x="371" y="182" type="line"/>
      <point x="119" y="53" type="line"/>
    </contour>
    <contour>
      <point x="492" y="-45" type="line"/>
      <point x="626" y="-45" type="line"/>
      <point x="626" y="592" type="line"/>
      <point x="492" y="603" type="line"/>
    </contour>
  </outline>
</glyph>
<glyph name="chasquishgujr" format="2">
  <advance width="773"/>
  <outline>
    <contour>
      <point x="330" y="116" type="curve" smooth="yes"/>
      <point x="602" y="116"/>
      <point x="743" y="251"/>
      <point x="743" y="411" type="curve" smooth="yes"/>
      <point x="743" y="549"/>
      <point x="640" y="603"/>
      <point x="542" y="603" type="curve" smooth="yes"/>
      <point x="434" y="603"/>
      <point x="372" y="542"/>
      <point x="372" y="464" type="curve" smooth="yes"/>
      <point x="372" y="373"/>
      <point x="439" y="327"/>
      <point x="525" y="299" type="curve"/>
      <point x="588" y="391" type="line"/>
      <point x="521" y="408"/>
      <point x="494" y="429"/>
      <point x="494" y="457" type="curve" smooth="yes"/>
      <point x="494" y="478"/>
      <point x="509" y="494"/>
      <point x="540" y="494" type="curve" smooth="yes"/>
      <point x="580" y="494"/>
      <point x="610" y="467"/>
      <point x="610" y="413" type="curve" smooth="yes"/>
      <point x="610" y="333"/>
      <point x="533" y="230"/>
      <point x="322" y="230" type="curve" smooth="yes"/>
      <point x="236" y="230"/>
      <point x="206" y="247"/>
      <point x="206" y="280" type="curve" smooth="yes"/>
      <point x="206" y="303"/>
      <point x="227" y="319"/>
      <point x="280" y="319" type="curve" smooth="yes"/>
      <point x="301" y="319"/>
      <point x="318" y="318"/>
      <point x="330" y="317" type="curve"/>
      <point x="344" y="427" type="line"/>
      <point x="328" y="429"/>
      <point x="306" y="431"/>
      <point x="286" y="431" type="curve" smooth="yes"/>
      <point x="155" y="431"/>
      <point x="70" y="365"/>
      <point x="70" y="279" type="curve" smooth="yes"/>
      <point x="70" y="188"/>
      <point x="151" y="116"/>
    </contour>
    <contour>
      <point x="141" y="313" type="curve"/>
      <point x="250" y="383" type="line"/>
      <point x="193" y="400"/>
      <point x="167" y="421"/>
      <point x="167" y="452" type="curve" smooth="yes"/>
      <point x="167" y="476"/>
      <point x="189" y="491"/>
      <point x="237" y="491" type="curve" smooth="yes"/>
      <point x="263" y="491"/>
      <point x="287" y="490"/>
      <point x="307" y="485" type="curve"/>
      <point x="329" y="591" type="line"/>
      <point x="304" y="597"/>
      <point x="264" y="603"/>
      <point x="220" y="603" type="curve" smooth="yes"/>
      <point x="101" y="603"/>
      <point x="34" y="549"/>
      <point x="34" y="468" type="curve" smooth="yes"/>
      <point x="34" y="408"/>
      <point x="68" y="358"/>
    </contour>
  </outline>
</glyph>
<glyph name="chavagujr" format="2">
  <advance width="776"/>
  <outline>
    <contour>
      <point x="329" y="66" type="curve" smooth="yes"/>
      <point x="606" y="66"/>
      <point x="747" y="213"/>
      <point x="747" y="393" type="curve" smooth="yes"/>
      <point x="747" y="549"/>
      <point x="640" y="603"/>
      <point x="541" y="603" type="curve" smooth="yes"/>
      <point x="431" y="603"/>
      <point x="373" y="538"/>
      <point x="373" y="458" type="curve" smooth="yes"/>
      <point x="373" y="354"/>
      <point x="450" y="304"/>
      <point x="542" y="278" type="curve"/>
      <point x="591" y="380" type="line"/>
      <point x="518" y="397"/>
      <point x="494" y="420"/>
      <point x="494" y="451" type="curve" smooth="yes"/>
      <point x="494" y="474"/>
      <point x="509" y="493"/>
      <point x="542" y="493" type="curve" smooth="yes"/>
      <point x="579" y="493"/>
      <point x="612" y="471"/>
      <point x="612" y="398" type="curve" smooth="yes"/>
      <point x="612" y="303"/>
      <point x="533" y="180"/>
      <point x="326" y="180" type="curve" smooth="yes"/>
      <point x="240" y="180"/>
      <point x="206" y="202"/>
      <point x="206" y="243" type="curve" smooth="yes"/>
      <point x="206" y="275"/>
      <point x="234" y="296"/>
      <point x="291" y="296" type="curve" smooth="yes"/>
      <point x="309" y="296"/>
      <point x="323" y="295"/>
      <point x="337" y="293" type="curve"/>
      <point x="352" y="403" type="line"/>
      <point x="336" y="407"/>
      <point x="313" y="408"/>
      <point x="293" y="408" type="curve" smooth="yes"/>
      <point x="158" y="408"/>
      <point x="70" y="337"/>
      <point x="70" y="241" type="curve" smooth="yes"/>
      <point x="70" y="143"/>
      <point x="150" y="66"/>
    </contour>
    <contour>
      <point x="143" y="297" type="curve"/>
      <point x="251" y="366" type="line"/>
      <point x="194" y="387"/>
      <point x="168" y="412"/>
      <point x="168" y="444" type="curve" smooth="yes"/>
      <point x="168" y="473"/>
      <point x="193" y="490"/>
      <point x="241" y="490" type="curve" smooth="yes"/>
      <point x="263" y="490"/>
      <point x="287" y="489"/>
      <point x="307" y="484" type="curve"/>
      <point x="329" y="591" type="line"/>
      <point x="304" y="597"/>
      <point x="264" y="603"/>
      <point x="221" y="603" type="curve" smooth="yes"/>
      <point x="102" y="603"/>
      <point x="34" y="546"/>
      <point x="34" y="459" type="curve" smooth="yes"/>
      <point x="34" y="396"/>
      <point x="70" y="343"/>
    </contour>
    <contour>
      <point x="397" y="-233" type="curve" smooth="yes"/>
      <point x="477" y="-233"/>
      <point x="529" y="-206"/>
      <point x="573" y="-167" type="curve"/>
      <point x="536" y="-66" type="line"/>
      <point x="508" y="-102"/>
      <point x="465" y="-138"/>
      <point x="410" y="-138" type="curve" smooth="yes"/>
      <point x="379" y="-138"/>
      <point x="356" y="-127"/>
      <point x="356" y="-95" type="curve" smooth="yes"/>
      <point x="356" y="-69"/>
      <point x="373" y="-53"/>
      <point x="410" y="-53" type="curve" smooth="yes"/>
      <point x="431" y="-53"/>
      <point x="447" y="-55"/>
      <point x="458" y="-58" type="curve"/>
      <point x="468" y="33" type="line"/>
      <point x="450" y="36"/>
      <point x="424" y="40"/>
      <point x="394" y="40" type="curve" smooth="yes"/>
      <point x="291" y="40"/>
      <point x="233" y="-14"/>
      <point x="233" y="-94" type="curve" smooth="yes"/>
      <point x="233" y="-185"/>
      <point x="301" y="-233"/>
    </contour>
    <contour>
      <point x="672" y="-268" type="curve" smooth="yes"/>
      <point x="674" y="-268" type="line"/>
      <point x="684" y="-164" type="line"/>
      <point x="662" y="-163"/>
      <point x="649" y="-161"/>
      <point x="636" y="-149" type="curve" smooth="yes"/>
      <point x="628" y="-141"/>
      <point x="624" y="-123"/>
      <point x="624" y="-95" type="curve" smooth="yes"/>
      <point x="624" y="176" type="line"/>
      <point x="500" y="146" type="line"/>
      <point x="500" y="-91" type="line" smooth="yes"/>
      <point x="500" y="-158"/>
      <point x="510" y="-190"/>
      <point x="531" y="-218" type="curve" smooth="yes"/>
      <point x="554" y="-249"/>
      <point x="590" y="-268"/>
    </contour>
  </outline>
</glyph>
<glyph name="chayastemgujr" format="2">
  <advance width="1395"/>
  <outline>
    <contour>
      <point x="333" y="-10" type="curve" smooth="yes"/>
      <point x="613" y="-10"/>
      <point x="752" y="166"/>
      <point x="752" y="371" type="curve" smooth="yes"/>
      <point x="752" y="550"/>
      <point x="641" y="603"/>
      <point x="545" y="603" type="curve" smooth="yes"/>
      <point x="430" y="603"/>
      <point x="373" y="531"/>
      <point x="373" y="449" type="curve" smooth="yes"/>
      <point x="373" y="329"/>
      <point x="462" y="274"/>
      <point x="560" y="251" type="curve"/>
      <point x="598" y="362" type="line"/>
      <point x="516" y="378"/>
      <point x="494" y="411"/>
      <point x="494" y="442" type="curve" smooth="yes"/>
      <point x="494" y="467"/>
      <point x="508" y="494"/>
      <point x="545" y="494" type="curve" smooth="yes"/>
      <point x="579" y="494"/>
      <point x="617" y="470"/>
      <point x="617" y="375" type="curve" smooth="yes"/>
      <point x="617" y="256"/>
      <point x="533" y="104"/>
      <point x="332" y="104" type="curve" smooth="yes"/>
      <point x="245" y="104"/>
      <point x="206" y="133"/>
      <point x="206" y="188" type="curve" smooth="yes"/>
      <point x="206" y="234"/>
      <point x="245" y="261"/>
      <point x="307" y="261" type="curve" smooth="yes"/>
      <point x="319" y="261"/>
      <point x="334" y="261"/>
      <point x="348" y="259" type="curve"/>
      <point x="363" y="370" type="line"/>
      <point x="347" y="373"/>
      <point x="324" y="374"/>
      <point x="304" y="374" type="curve" smooth="yes"/>
      <point x="162" y="374"/>
      <point x="70" y="294"/>
      <point x="70" y="183" type="curve" smooth="yes"/>
      <point x="70" y="76"/>
      <point x="144" y="-10"/>
    </contour>
    <contour>
      <point x="146" y="271" type="curve"/>
      <point x="252" y="342" type="line"/>
      <point x="196" y="367"/>
      <point x="170" y="398"/>
      <point x="170" y="434" type="curve" smooth="yes"/>
      <point x="170" y="469"/>
      <point x="198" y="489"/>
      <point x="246" y="489" type="curve" smooth="yes"/>
      <point x="263" y="489"/>
      <point x="287" y="487"/>
      <point x="307" y="482" type="curve"/>
      <point x="329" y="591" type="line"/>
      <point x="304" y="597"/>
      <point x="264" y="603"/>
      <point x="223" y="603" type="curve" smooth="yes"/>
      <point x="103" y="603"/>
      <point x="34" y="541"/>
      <point x="34" y="446" type="curve" smooth="yes"/>
      <point x="34" y="377"/>
      <point x="74" y="321"/>
    </contour>
    <contour>
      <point x="1039" y="109" type="curve" smooth="yes"/>
      <point x="1098" y="109"/>
      <point x="1147" y="123"/>
      <point x="1193" y="153" type="curve"/>
      <point x="1199" y="229" type="line"/>
      <point x="1185" y="292" type="line"/>
      <point x="1138" y="242"/>
      <point x="1095" y="223"/>
      <point x="1043" y="223" type="curve" smooth="yes"/>
      <point x="988" y="223"/>
      <point x="957" y="248"/>
      <point x="926" y="293" type="curve"/>
      <point x="921" y="235" type="line"/>
      <point x="996" y="270"/>
      <point x="1044" y="313"/>
      <point x="1044" y="391" type="curve" smooth="yes"/>
      <point x="1044" y="428"/>
      <point x="1033" y="462"/>
      <point x="1007" y="489" type="curve" smooth="yes"/>
      <point x="975" y="522"/>
      <point x="928" y="544"/>
      <point x="821" y="544" type="curve" smooth="yes"/>
      <point x="677" y="544" type="line"/>
      <point x="677" y="430" type="line"/>
      <point x="847" y="430" type="line" smooth="yes"/>
      <point x="878" y="430"/>
      <point x="890" y="426"/>
      <point x="900" y="418" type="curve" smooth="yes"/>
      <point x="907" y="412"/>
      <point x="911" y="402"/>
      <point x="911" y="389" type="curve" smooth="yes"/>
      <point x="911" y="344"/>
      <point x="857" y="320"/>
      <point x="786" y="304" type="curve"/>
      <point x="826" y="188"/>
      <point x="903" y="109"/>
    </contour>
    <contour>
      <point x="1179" y="-45" type="line"/>
      <point x="1313" y="-45" type="line"/>
      <point x="1313" y="592" type="line"/>
      <point x="1179" y="603" type="line"/>
    </contour>
  </outline>
</glyph>
